<?xml version="1.0" encoding="utf-8"?>
<!-- Generator: Adobe Illustrator 28.0.0, SVG Export Plug-In . SVG Version: 6.00 Build 0)  -->
<svg version="1.1" id="Layer_1" xmlns="http://www.w3.org/2000/svg" xmlns:xlink="http://www.w3.org/1999/xlink" x="0px" y="0px"
	 viewBox="0 0 722.83 141.73" style="enable-background:new 0 0 722.83 141.73;" xml:space="preserve">
<style type="text/css">
	.st0{fill:#FFFFFF;}
	.st1{fill:#98BE3C;}
</style>
<path class="st0" d="M81.67,107.13c0,3.09-0.32,5.7-0.97,7.83c-0.65,2.13-1.79,4.02-3.43,5.66c-1.64,1.64-3.94,2.84-6.91,3.62
	c-2.97,0.77-6.65,1.16-11.03,1.16H23.92H5.56V60.32h46.35c4.39,0,8.11,0.34,11.17,1.02c3.06,0.68,5.5,1.75,7.32,3.2
	c1.82,1.45,3.14,3.15,3.94,5.1c0.8,1.95,1.2,4.28,1.2,7c0,5.87-1.48,10.11-4.45,12.7c1.3,0.37,2.52,0.94,3.66,1.71
	c1.14,0.77,2.27,1.82,3.38,3.15c1.11,1.33,1.98,3.11,2.6,5.33C81.36,101.76,81.67,104.29,81.67,107.13z M27.25,78.39v6.21h24.38
	c0.86,0,1.59-0.31,2.18-0.93c0.59-0.62,0.88-1.36,0.88-2.22c0-0.86-0.29-1.59-0.88-2.18c-0.59-0.59-1.31-0.88-2.18-0.88H27.25z
	 M58.96,107.41c0.93,0,1.7-0.31,2.32-0.93c0.62-0.62,0.93-1.37,0.93-2.27c0-0.9-0.31-1.65-0.93-2.27c-0.62-0.62-1.39-0.93-2.32-0.93
	h-31.7v6.4H58.96z"/>
<path class="st0" d="M153.06,60.41l29.2,64.89h-25.03l-4.91-10.94h-32.17l-4.91,10.94H90.39l29.11-64.89H153.06z M127.84,95.64
	h16.78l-8.44-17.06L127.84,95.64z"/>
<path class="st0" d="M588.15,59.39c8.16,0,15.17,0.7,21.04,2.09s10.51,3.4,13.91,6.03c3.4,2.63,5.87,5.67,7.42,9.13
	c1.54,3.46,2.32,7.48,2.32,12.05h-22.16c-0.06-0.31-0.17-0.71-0.32-1.21c-0.15-0.49-0.7-1.34-1.62-2.55s-2.13-2.29-3.62-3.24
	c-1.48-0.96-3.72-1.82-6.72-2.6c-3-0.77-6.47-1.16-10.43-1.16c-3.52,0-6.6,0.28-9.22,0.83c-2.63,0.56-4.7,1.27-6.21,2.13
	c-1.51,0.87-2.72,1.96-3.62,3.29c-0.9,1.33-1.5,2.63-1.81,3.89c-0.31,1.27-0.46,2.67-0.46,4.22c0,2.16,0.34,4.08,1.02,5.75
	c0.68,1.67,1.79,3.2,3.34,4.59c1.54,1.39,3.74,2.46,6.58,3.2c2.84,0.74,6.3,1.11,10.38,1.11c4.2,0,7.85-0.31,10.94-0.93
	c3.09-0.62,5.35-1.36,6.77-2.22c1.42-0.86,2.55-1.75,3.38-2.64c0.83-0.9,1.31-1.65,1.44-2.27l0.18-0.93h22.16
	c0,3.15-0.4,6.01-1.21,8.58c-0.8,2.57-2.22,5.05-4.26,7.46c-2.04,2.41-4.68,4.42-7.93,6.03c-3.24,1.61-7.46,2.89-12.65,3.85
	c-5.19,0.96-11.22,1.44-18.08,1.44c-8.41,0-15.45-0.63-21.14-1.9c-5.69-1.27-10.24-3.27-13.67-6.03c-3.43-2.75-5.89-6.07-7.37-9.97
	c-1.48-3.89-2.23-8.68-2.23-14.37c0-6.12,0.94-11.36,2.83-15.71c1.88-4.36,4.71-7.85,8.48-10.48c3.77-2.63,8.31-4.53,13.63-5.7
	C574.56,59.98,580.86,59.39,588.15,59.39z"/>
<path class="st0" d="M646.93,59.81h71.85v18.08h-50.25v5.75h47.1v17.34h-47.1v5.84h50.25v18.08h-71.85V59.81z"/>
<polygon class="st0" points="383.92,60.41 350.36,60.41 321.25,125.3 346.09,125.3 351.01,114.36 358.7,95.64 367.04,78.58 
	375.48,95.64 383.17,114.36 388.09,125.3 413.12,125.3 "/>
<rect x="194.48" y="95.97" transform="matrix(0.9976 -0.0697 0.0697 0.9976 -6.4572 25.5736)" class="st1" width="337.6" height="18.73"/>
<path class="st0" d="M515.93,80.22l-29.41,2.05l-34.55-36.9l2.73,39.12L433.16,86l-4.54-64.92l30.06-2.1l33.95,36.29l-2.69-38.47
	l21.45-1.5L515.93,80.22z"/>
<path class="st0" d="M227.36,77.96l47.07-3.29l1.51,21.55l-68.62,4.79l-4.54-64.92l21.55-1.51L227.36,77.96z"/>
</svg>
