<?xml version="1.0" encoding="utf-8"?>
<!-- Generator: Adobe Illustrator 28.0.0, SVG Export Plug-In . SVG Version: 6.00 Build 0)  -->
<svg version="1.1" id="Layer_1" xmlns="http://www.w3.org/2000/svg" xmlns:xlink="http://www.w3.org/1999/xlink" x="0px" y="0px"
	 viewBox="0 0 1133.9 198.4" style="enable-background:new 0 0 1133.9 198.4;" xml:space="preserve">
<style type="text/css">
	.st0{clip-path:url(#SVGID_00000031176447224892573890000005880977969834584511_);fill:#FFFFFF;}
	.st1{clip-path:url(#SVGID_00000139259975169469437810000011355373779065330598_);fill:#FFFFFF;}
	.st2{fill:#FFFFFF;}
	.st3{clip-path:url(#SVGID_00000062907598993495285880000007647953404489131958_);fill:#FFFFFF;}
	.st4{fill:#A0BC1C;}
</style>
<g>
	<g>
		<g>
			<defs>
				<rect id="SVGID_1_" x="106.3" y="32.5" width="921.3" height="215"/>
			</defs>
			<clipPath id="SVGID_00000169552499645520531190000008307346981307876284_">
				<use xlink:href="#SVGID_1_"  style="overflow:visible;"/>
			</clipPath>
			<path style="clip-path:url(#SVGID_00000169552499645520531190000008307346981307876284_);fill:#FFFFFF;" d="M350.8,466.6
				c3.4,0,5.8,1.2,5.8,4.1c0,1.7-0.9,3.2-2.5,3.7v0.2c2,0.5,3.4,1.7,3.4,4c0,3.4-2.6,4.9-6.4,4.9h-5.4v-16.9L350.8,466.6
				L350.8,466.6z M354.5,470.9c0-2-1.4-2.8-4-2.8h-2.6v5.5h2.5C353.3,473.8,354.5,472.7,354.5,470.9z M350.8,481.8
				c2.9,0,4.6-1.1,4.6-3.4c0-2.1-1.7-3.1-4.6-3.1h-2.9v6.3h2.9V481.8z M366.3,476.4v-10h2.1v10c0,4,1.7,5.4,4,5.4s4-1.2,4-5.4v-10h2
				v10c0,5.4-2.6,7.4-6.1,7.4S366.3,481.9,366.3,476.4z M388.4,466.6h2.1v16.9h-2.1V466.6z M400.5,466.6h2.1v15h7.4v1.8h-9.5
				L400.5,466.6L400.5,466.6z M422.7,466.6c5.2,0,8,3.1,8,8.4c0,5.4-2.8,8.6-7.8,8.6h-4.3v-16.9h4.1V466.6z M422.5,481.6
				c4,0,6-2.5,6-6.7s-2-6.6-6-6.6h-2v13.3L422.5,481.6L422.5,481.6z M439.7,466.6h2.1v16.9h-2.1V466.6z M451.8,466.6h2.1l6.1,10.6
				l1.8,3.5h0.2c-0.2-1.7-0.3-3.7-0.3-5.4v-8.7h2v16.9h-2.1l-6.1-10.6l-1.8-3.5h-0.2c0.2,1.7,0.3,3.5,0.3,5.2v8.9h-2V466.6z
				 M472.9,475c0-5.5,3.2-8.7,7.8-8.7c2.3,0,3.8,1.1,4.9,2.1l-1.2,1.4c-0.9-0.9-2-1.5-3.7-1.5c-3.4,0-5.5,2.6-5.5,6.9s2,6.9,5.7,6.9
				c1.2,0,2.5-0.3,3.1-0.9v-4.4h-3.5v-1.8h5.5v7c-1.1,1.1-2.9,2-5.2,2C476.1,483.8,472.9,480.6,472.9,475z M509.2,466.6h2.5
				l5.7,16.9h-2.3l-1.5-5.2h-6.1l-1.7,5.2h-2.1L509.2,466.6z M512.9,476.6l-0.8-2.6c-0.6-1.8-1.1-3.7-1.7-5.7h-0.2
				c-0.5,2-1.1,3.8-1.7,5.7l-0.8,2.6H512.9z M534.5,475c0-5.5,3.2-8.7,7.8-8.7c2.3,0,3.8,1.1,4.9,2.1l-1.2,1.4
				c-0.9-0.9-2-1.5-3.7-1.5c-3.4,0-5.5,2.6-5.5,6.9s2,6.9,5.7,6.9c1.2,0,2.5-0.3,3.1-0.9v-4.4H542v-1.8h5.5v7c-1.1,1.1-2.9,2-5.2,2
				C537.7,483.8,534.5,480.6,534.5,475z M559,476.3v7.2h-2.1v-16.9h5.4c3.4,0,6,1.2,6,4.7c0,2.6-1.5,4.1-3.8,4.7l4.3,7.4h-2.5
				l-4.1-7.2H559z M565.9,471.4c0-2.3-1.4-3.1-4.1-3.1H559v6.3h2.8C564.6,474.6,565.9,473.5,565.9,471.4z M577,466.6h9.8v1.8h-7.7
				v5.4h6.4v1.8h-6.4v6.1h7.8v1.8h-10V466.6z M596,466.6h9.8v1.8h-7.7v5.4h6.4v1.8h-6.4v6.1h7.8v1.8h-10V466.6z M614.8,466.6h2.1
				l6.1,10.6l1.8,3.5h0.2c-0.2-1.7-0.3-3.7-0.3-5.4v-8.7h2v16.9h-2.1l-6.1-10.6l-1.8-3.5h-0.2c0.2,1.7,0.3,3.5,0.3,5.2v8.9h-2V466.6
				z M652.5,466.6c3.4,0,5.8,1.2,5.8,4.1c0,1.7-0.9,3.2-2.5,3.7v0.2c2,0.5,3.4,1.7,3.4,4c0,3.4-2.6,4.9-6.4,4.9h-5.4v-16.9
				L652.5,466.6L652.5,466.6z M656.2,470.9c0-2-1.4-2.8-4-2.8h-2.6v5.5h2.5C655,473.8,656.2,472.7,656.2,470.9z M652.5,481.8
				c2.9,0,4.6-1.1,4.6-3.4c0-2.1-1.7-3.1-4.6-3.1h-2.9v6.3h2.9V481.8z M671.5,466.6h2.5l5.7,16.9h-2.3l-1.5-5.2h-6.1l-1.7,5.2h-2.1
				L671.5,466.6z M675.2,476.6l-0.8-2.6c-0.6-1.8-1.1-3.7-1.7-5.7h-0.2c-0.5,2-1.1,3.8-1.7,5.7l-0.8,2.6H675.2z M687.3,466.6h2.1v15
				h7.4v1.8h-9.5L687.3,466.6L687.3,466.6z M708.7,466.6h2.5l5.7,16.9h-2.3l-1.5-5.2h-6.1l-1.7,5.2h-2.1L708.7,466.6z M712.6,476.6
				l-0.8-2.6c-0.6-1.8-1.1-3.7-1.7-5.7H710c-0.5,2-1.1,3.8-1.7,5.7l-0.8,2.6H712.6z M724.7,466.6h2.1l6.1,10.6l1.8,3.5h0.2
				c-0.2-1.7-0.3-3.7-0.3-5.4v-8.7h2v16.9h-2.1l-6.1-10.6l-1.8-3.5h-0.2c0.2,1.7,0.3,3.5,0.3,5.2v8.9h-2L724.7,466.6L724.7,466.6z
				 M745.7,475c0-5.5,3.2-8.7,7.5-8.7c2,0,3.7,1.1,4.6,2.1l-1.2,1.4c-0.9-0.9-2-1.5-3.4-1.5c-3.2,0-5.4,2.6-5.4,6.9s2,6.9,5.2,6.9
				c1.7,0,2.9-0.8,4-1.8l1.2,1.4c-1.4,1.5-3.1,2.5-5.2,2.5C748.9,483.8,745.7,480.6,745.7,475z M766.8,466.6h9.8v1.8H769v5.4h6.4
				v1.8H769v6.1h7.8v1.8h-10V466.6z M785,482.1c0-0.9,0.8-1.7,1.5-1.7s1.5,0.6,1.5,1.7c0,0.9-0.8,1.5-1.5,1.5
				C785.8,483.8,785,483.2,785,482.1z"/>
		</g>
		<g>
			<defs>
				<rect id="SVGID_00000086674174660431570330000005009425669525097098_" x="106.3" y="32.5" width="921.3" height="215"/>
			</defs>
			<clipPath id="SVGID_00000101096780734687603330000016337262665224975551_">
				<use xlink:href="#SVGID_00000086674174660431570330000005009425669525097098_"  style="overflow:visible;"/>
			</clipPath>
			<path style="clip-path:url(#SVGID_00000101096780734687603330000016337262665224975551_);fill:#FFFFFF;" d="M175.2,151.6
				c1.2,0,2.1-0.5,3.1-1.2c0.8-0.8,1.2-1.8,1.2-2.9c0-1.2-0.5-2.1-1.2-2.9c-0.8-0.8-1.8-1.2-3.1-1.2h-40.9v8.3
				C134.3,151.6,175.2,151.6,175.2,151.6z M134.3,114.1v8h31.6c1.1,0,2-0.5,2.8-1.2c0.8-0.8,1.1-1.7,1.1-2.9c0-1.1-0.3-2-1.1-2.8
				c-0.8-0.8-1.7-1.1-2.8-1.1C165.9,114.1,134.3,114.1,134.3,114.1z M204.6,151.1c0,4-0.5,7.4-1.2,10.1c-0.8,2.8-2.3,5.2-4.4,7.4
				c-2.1,2.1-5.1,3.7-8.9,4.6c-3.8,1.1-8.6,1.5-14.2,1.5H130h-23.7v-84h59.9c5.7,0,10.4,0.5,14.4,1.4c4,0.9,7,2.3,9.5,4.1
				c2.3,1.8,4,4.1,5.1,6.6c1.1,2.5,1.5,5.5,1.5,9c0,7.7-1.8,13-5.8,16.4c1.7,0.5,3.2,1.2,4.7,2.1c1.5,1.1,2.9,2.3,4.4,4.1
				c1.4,1.7,2.6,4,3.4,6.9C204.2,144.2,204.6,147.5,204.6,151.1"/>
		</g>
	</g>
	<path class="st2" d="M264.2,136.3h21.6L275,114.2L264.2,136.3z M296.9,90.8l37.7,83.8h-32.3l-6.3-14.1h-41.5l-6.3,14.1h-32
		l37.4-83.8H296.9z"/>
	<g>
		<g>
			<defs>
				<rect id="SVGID_00000166677804829258156590000008787083130782373560_" x="106.3" y="32.5" width="921.3" height="215"/>
			</defs>
			<clipPath id="SVGID_00000145778277993283707800000003541033798504966551_">
				<use xlink:href="#SVGID_00000166677804829258156590000008787083130782373560_"  style="overflow:visible;"/>
			</clipPath>
			<path style="clip-path:url(#SVGID_00000145778277993283707800000003541033798504966551_);fill:#FFFFFF;" d="M858.9,89.5
				c10.6,0,19.6,0.9,27.1,2.8c7.7,1.8,13.6,4.4,17.9,7.8c4.4,3.4,7.5,7.4,9.7,11.8c2,4.4,3.1,9.7,3.1,15.6H888
				c-0.2-0.5-0.2-0.9-0.5-1.5c-0.2-0.6-0.9-1.7-2.1-3.2c-1.2-1.5-2.8-2.9-4.6-4.1c-2-1.2-4.7-2.3-8.7-3.4c-3.8-1.1-8.4-1.5-13.5-1.5
				c-4.6,0-8.6,0.3-12,1.1c-3.4,0.8-6.1,1.7-8,2.8c-2,1.1-3.5,2.6-4.6,4.3c-1.2,1.7-2,3.4-2.3,5.1c-0.5,1.7-0.6,3.5-0.6,5.5
				c0,2.8,0.5,5.2,1.4,7.4c0.9,2.1,2.3,4.1,4.3,6c2,1.8,4.9,3.2,8.4,4.1c3.7,0.9,8.1,1.4,13.5,1.4c5.4,0,10.1-0.5,14.1-1.2
				c4-0.8,6.9-1.7,8.7-2.9c1.8-1.1,3.2-2.3,4.4-3.4c1.1-1.2,1.7-2.1,1.8-2.9l0.3-1.2h28.7c0,4.1-0.5,7.8-1.5,11
				c-1.1,3.4-2.9,6.6-5.5,9.7c-2.6,3.1-6,5.7-10.3,7.8c-4.1,2.1-9.7,3.7-16.4,4.9c-6.7,1.2-14.6,1.8-23.3,1.8
				c-10.9,0-19.9-0.8-27.3-2.5c-7.4-1.7-13.2-4.3-17.6-7.8c-4.4-3.5-7.7-7.8-9.5-12.9c-2-5.1-2.9-11.2-2.9-18.5
				c0-8,1.2-14.7,3.7-20.2c2.5-5.7,6.1-10.1,11-13.5s10.7-5.8,17.6-7.4C841.3,90.3,849.5,89.5,858.9,89.5"/>
		</g>
	</g>
	<polygon class="st2" points="934.9,90 934.9,174.1 1027.6,174.1 1027.6,150.8 962.8,150.8 962.8,143.2 1023.6,143.2 1023.6,120.8 
		962.8,120.8 962.8,113.4 1027.6,113.4 1027.6,90 	"/>
	<polygon class="st2" points="595,90.8 551.7,90.8 514.1,174.6 546.2,174.6 552.6,160.5 562.6,136.3 573.3,114.4 584.2,136.3 
		594.1,160.5 600.4,174.6 632.7,174.6 	"/>
	
		<rect x="350.4" y="136.7" transform="matrix(0.9976 -6.969105e-02 6.969105e-02 0.9976 -8.9909 39.9745)" class="st4" width="436.1" height="24.2"/>
	<polygon class="st2" points="759.8,32.5 732,34.5 735.5,84.2 691.7,37.3 652.8,40 658.6,123.9 686.5,121.9 683,71.5 727.6,119.1 
		765.6,116.4 	"/>
	<polygon class="st2" points="392.8,113.4 453.6,109.3 455.6,137 366.9,143.3 361.1,59.4 389,57.5 	"/>
</g>
</svg>
