<?xml version="1.0" encoding="UTF-8"?>
<svg id="Layer_1" data-name="Layer 1" xmlns="http://www.w3.org/2000/svg" viewBox="0 0 1180.8 111.1">
  <defs>
    <style>
      .cls-1 {
        fill: #98be3c;
      }

      .cls-1, .cls-2 {
        stroke-width: 0px;
      }

      .cls-2 {
        fill: #fff;
      }
    </style>
  </defs>
  <path class="cls-2" d="m76.1,91.8c0,3.1-.3,5.7-1,7.8-.6,2.1-1.8,4-3.4,5.7-1.6,1.6-3.9,2.8-6.9,3.6-3,.8-6.6,1.2-11,1.2H0V45h46.4c4.4,0,8.1.3,11.2,1,3.1.7,5.5,1.7,7.3,3.2,1.8,1.5,3.1,3.2,3.9,5.1.8,1.9,1.2,4.3,1.2,7,0,5.9-1.5,10.1-4.4,12.7,1.3.4,2.5.9,3.7,1.7,1.1.8,2.3,1.8,3.4,3.2,1.1,1.3,2,3.1,2.6,5.3.6,2.2.9,4.8.9,7.6Zm-54.4-28.7v6.2h24.4c.9,0,1.6-.3,2.2-.9.6-.6.9-1.4.9-2.2s-.3-1.6-.9-2.2c-.6-.6-1.3-.9-2.2-.9h-24.4Zm31.7,29c.9,0,1.7-.3,2.3-.9.6-.6.9-1.4.9-2.3s-.3-1.7-.9-2.3c-.6-.6-1.4-.9-2.3-.9h-31.7v6.4h31.7Z"/>
  <path class="cls-2" d="m147.5,45.1l29.2,64.9h-25l-4.9-10.9h-32.2l-4.9,10.9h-24.8l29.1-64.9h33.6Zm-25.2,35.2h16.8l-8.4-17.1-8.3,17.1Z"/>
  <path class="cls-2" d="m582.6,44.1c8.2,0,15.2.7,21,2.1,5.9,1.4,10.5,3.4,13.9,6,3.4,2.6,5.9,5.7,7.4,9.1,1.5,3.5,2.3,7.5,2.3,12.1h-22.2c0-.3-.2-.7-.3-1.2-.2-.5-.7-1.3-1.6-2.5-.9-1.2-2.1-2.3-3.6-3.2-1.5-1-3.7-1.8-6.7-2.6-3-.8-6.5-1.2-10.4-1.2s-6.6.3-9.2.8c-2.6.6-4.7,1.3-6.2,2.1-1.5.9-2.7,2-3.6,3.3-.9,1.3-1.5,2.6-1.8,3.9-.3,1.3-.5,2.7-.5,4.2s.3,4.1,1,5.7c.7,1.7,1.8,3.2,3.3,4.6,1.5,1.4,3.7,2.5,6.6,3.2,2.8.7,6.3,1.1,10.4,1.1s7.8-.3,10.9-.9c3.1-.6,5.3-1.4,6.8-2.2,1.4-.9,2.5-1.7,3.4-2.6.8-.9,1.3-1.7,1.4-2.3l.2-.9h22.2c0,3.2-.4,6-1.2,8.6-.8,2.6-2.2,5.1-4.3,7.5-2,2.4-4.7,4.4-7.9,6-3.2,1.6-7.5,2.9-12.7,3.8-5.2,1-11.2,1.4-18.1,1.4s-15.5-.6-21.1-1.9c-5.7-1.3-10.2-3.3-13.7-6-3.4-2.7-5.9-6.1-7.4-10-1.5-3.9-2.2-8.7-2.2-14.4s.9-11.4,2.8-15.7c1.9-4.4,4.7-7.8,8.5-10.5,3.8-2.6,8.3-4.5,13.6-5.7,5.3-1.2,11.6-1.8,18.9-1.8Z"/>
  <path class="cls-2" d="m641.4,44.5h71.8v18.1h-50.2v5.7h47.1v17.3h-47.1v5.8h50.2v18.1h-71.8V44.5Z"/>
  <polygon class="cls-2" points="378.4 45.1 344.8 45.1 315.7 110 340.5 110 345.4 99.1 353.1 80.3 361.5 63.3 369.9 80.3 377.6 99.1 382.5 110 407.6 110 378.4 45.1"/>
  <rect class="cls-1" x="188.9" y="80.7" width="337.6" height="18.7" transform="translate(-5.4 25.1) rotate(-4)"/>
  <path class="cls-2" d="m510.4,64.9l-29.4,2.1-34.5-36.9,2.7,39.1-21.5,1.5-4.5-64.9,30.1-2.1,33.9,36.3-2.7-38.5,21.5-1.5,4.5,64.9Z"/>
  <path class="cls-2" d="m221.8,62.7l47.1-3.3,1.5,21.5-68.6,4.8-4.5-64.9,21.5-1.5,3,43.4Z"/>
  <g>
    <polygon class="cls-2" points="1118 18 1079.2 18 1045.6 93.1 1074.3 93.1 1080 80.4 1088.9 58.8 1098.5 39.1 1108.3 58.8 1117.2 80.4 1122.9 93.1 1151.8 93.1 1118 18"/>
    <rect class="cls-1" x="1017.2" y="55.4" width="163.1" height="21.7" transform="translate(-1.9 76.7) rotate(-4)"/>
  </g>
</svg>