<?xml version="1.0" encoding="utf-8"?>
<!-- Generator: Adobe Illustrator 28.0.0, SVG Export Plug-In . SVG Version: 6.00 Build 0)  -->
<svg version="1.1" id="Layer_1" xmlns="http://www.w3.org/2000/svg" xmlns:xlink="http://www.w3.org/1999/xlink" x="0px" y="0px"
	 viewBox="0 0 2267.7 5669.3" style="enable-background:new 0 0 2267.7 5669.3;" xml:space="preserve">
<style type="text/css">
	.st0{fill:none;}
	.st1{fill:#98BE3C;}
	.st2{fill:#C5DC6E;}
	.st3{fill:#F2E9CC;}
	.st4{opacity:0.13;fill:url(#leafs_groen);}
</style>
<pattern  x="712.9" y="2537" width="364" height="500" patternUnits="userSpaceOnUse" id="leafs_groen" viewBox="0 -613.6 364 500" style="overflow:visible;">
	<g>
		<rect y="-613.6" class="st0" width="364" height="500"/>
		<g>
			<path class="st1" d="M245.4-159.6c-0.4-0.3-0.9-0.6-1.3-0.9c-5.9-3-12.2-3.9-18.8-2.8c-5.8,0.9-11,3.2-15.9,6.3
				c-5.6,3.5-10.5,7.7-14.9,12.7c-2.6,3-4.6,6.5-6.6,9.9c-0.4,0.7-0.9,1.4-1.7,1.9c-0.5-0.5-0.3-1-0.2-1.5c0.3-1.3,0.6-2.6,1-3.8
				c0.9-3,1.8-6,2.7-9c1.5-4.9,1.5-9.9,0.9-14.9c-0.7-4.9-0.9-9.7-0.1-14.6c1.1-6.3,2.8-12.4,6.2-17.9c2.9-4.6,6.9-8,11.9-10.2
				c6.4-2.7,13.2-4.2,20.1-4.5c5.4-0.3,10.8,0.1,16.1,1.1c5.3,1,10.2,3,14.5,6.2c4.2,3.2,7.3,7.2,8.3,12.5c0.2,1,0.4,2,0.7,3.1
				c0.3,1.2,0.9,2.2,1.9,2.9c1.1,0.8,2.2,0.7,3-0.4c0.5-0.8,1-1.7,1.3-2.7c0.9-2.8,1.6-5.6,2.4-8.3c0.9-3,2.1-5.9,3.7-8.6
				c3.1-5.7,8.1-8.3,14.4-8.8c4.6-0.3,8.8,0.8,13,2.6c5.1,2.3,9.8,5.2,14.3,8.5c1.9,1.4,3.7,2.8,5.4,4.3c4.7,4.1,8.1,9.2,10.7,14.9
				c1.5,3.4,2.8,6.9,4.2,10.3c1.7,4.2,3.9,8.2,6.8,11.8c1.5,1.8,3.3,3.2,5.2,4.6c0.5,0.4,1.1,0.8,1.5,1.3c0.4,0.5,0.2,1.1-0.5,1.1
				c-0.7,0-1.4-0.2-2.1-0.4c-5.5-1.5-10.7-3.8-15.5-6.9c-3-1.9-6-3.9-9.4-4.9c-6.6-1.9-13.4-2.8-20.2-0.9c-3.8,1.1-7.3,3-10,6
				c-0.7,0.7-1.4,1.5-1.4,2.9c0.6-0.3,1-0.4,1.3-0.7c5.7-3.3,11.8-5,18.4-4.9c3.2,0,6.1,1.1,9.1,2.2c5.2,2,9.9,4.9,14.3,8.4
				c8.7,7.1,14.7,16,18.4,26.5c1.2,3.4,1.7,6.9,1.2,10.5c-0.3,2.5-1.3,4.7-2.4,7c-1.7,3.5-3.4,7-4.3,10.8c-0.6,2.6-1.1,5.2-1.4,7.8
				c-0.2,1.6,0.3,3.2,0.4,4.8c0,0.5,0.4,1.3-0.2,1.6c-0.7,0.3-1-0.5-1.4-0.9c-3.4-4.4-6-9.3-8.9-14.1c-1.8-3-3.7-5.9-5.8-8.8
				c-2.2-3-4.8-5.6-7.8-7.9c-1.9-1.4-3.7-2.8-5.6-4.1c-4.8-3.1-10.1-4.3-15.7-3.7c-0.8,0.1-1.7,0.1-2.6,0.8c0.5,0.3,1,0.6,1.4,0.8
				c4.6,2,8.9,4.4,13.1,7.1c4.2,2.8,8.4,5.7,11.8,9.5c3.3,3.5,6.2,7.3,7.7,12c1,3.2,1.2,6.4,0.6,9.7c-0.6,3.6-2.7,6.3-5.4,8.6
				c-2,1.7-4.1,3.4-6,5.2c-2.7,2.6-4.2,5.8-4.5,9.6c0,0.3,0,0.6-0.1,0.8c-0.1,0.4-0.2,0.9-0.7,0.8c-0.3,0-0.4-0.5-0.6-0.8
				c-0.1-0.1,0-0.3,0-0.4c-0.6-5-1.7-9.9-3.5-14.6c-0.8-2-1.8-4-3.1-5.7c-2.8-3.7-6.6-5.6-10.9-6.8c-0.3-0.1-0.5-0.2-0.8-0.2
				c-0.1,0.2-0.1,0.3-0.2,0.5c0.3,0.3,0.5,0.7,0.8,1c1.4,1.7,3.1,3.4,4.3,5.3c3.4,5,5.8,10.6,6.6,16.6c0.3,2.2,0.3,4.5,0.1,6.8
				c-0.4,4.6-3,8.1-6.4,11c-4.3,3.7-9.2,6.1-14.4,8.1c-3.4,1.3-6.6,3-9.4,5.3c-4.3,3.6-6.6,8.1-5.8,13.9c0.1,0.5,0.1,1,0.1,1.8
				c-0.5-0.3-0.8-0.4-1-0.6c-0.7-0.7-1.3-1.5-1.9-2.3c-4.2-5.6-10-8.9-16.2-11.6c-5.5-2.3-10.9-5-15.9-8.3c-4.6-3-8.8-6.6-11.9-11.3
				c-5.2-7.7-4.2-17.9,0.2-24.4c1.7-2.6,3.8-4.8,6.3-6.7c0.3-0.2,0.6-0.5,0.9-0.8c0-0.1-0.1-0.2-0.1-0.3c-0.5,0.1-1,0.1-1.4,0.3
				c-4.1,1.1-7.7,3.2-11.1,5.9c-2.3,1.9-4.3,4-5.7,6.6c-1.8,3.3-2.7,6.9-3.1,10.6c0,0.4,0,0.9-0.2,1.2c-0.3,0.8-1.1,0.8-1.5,0.1
				c-0.2-0.4-0.3-0.8-0.4-1.2c-1-3-1.9-6-3-8.9c-0.7-1.8-1.8-3.6-2.9-5.2c-3.2-4.8-3.9-10-2.5-15.5c0.9-3.6,2.1-7,4.2-10
				c1.6-2.3,3.6-4.3,5.7-6.1c4.3-3.8,9.1-6.6,14.3-8.9c2.3-1,4.7-2,7-3.1c0.3-0.1,0.5-0.3,0.7-0.4c-0.3-0.7-0.9-0.6-1.3-0.6
				c-4.1-0.3-8.1,0-11.9,1.3c-5.3,1.8-9.9,4.7-14,8.4c-5.1,4.6-9.1,10.1-12.3,16.2c-1.5,2.9-2.5,6-3.3,9.2c-0.2,0.6-0.4,1.2-0.8,1.8
				c-0.4,0.5-1,0.5-1.3,0c-0.4-0.6-0.8-1.3-1-2c-1.1-3.8-2.2-7.7-3.1-11.5c-0.9-3.9-1.8-7.8-2.2-11.7c-1-8.7,0.1-17.2,3.9-25.2
				c1.3-2.7,3-5.1,4.9-7.5c4.8-6,11.1-10.1,17.4-14.2c3.6-2.3,7.3-4.4,11.3-5.9c4.4-1.6,9-2.1,13.7-1.8c1.7,0.1,3.3,0.3,5,0.4
				c0.4,0,0.8,0,1.2,0C245.3-159.4,245.4-159.5,245.4-159.6z M247.1-184.1c-2.3-2.4-5.1-3.8-8.2-4.6c-4.4-1.1-9-1.5-13.5-1.2
				c-1.4,0.1-2.9,0.4-4.3,1c-3.6,1.4-5.5,4.2-6.2,7.9c-0.4,1.9,0.3,2.8,2.1,3.2c0.8,0.2,1.7,0.3,2.5,0.4c4.9,0.5,9.7,0.9,14.6,1.5
				c5.2,0.6,10.4,1,15.3,2.9c1.4,0.5,2.2,0,2.5-1.5c0.2-1.4-0.1-2.7-0.7-4C250.1-180.7,248.9-182.6,247.1-184.1z M248.6-49
				C248.6-49,248.7-49,248.6-49c0.8-1,1.5-2.1,2.1-3.2c2-3.8,3.5-7.8,4.9-11.8c1.8-5,3.3-10.1,5.8-14.8c0.1-0.2,0.2-0.3,0.2-0.5
				c0.3-1-0.1-1.6-1.2-1.5c-0.2,0-0.5,0-0.7,0.1c-3.2,0.9-6.4,1.7-9.6,2.7c-2.6,0.9-4.6,2.6-5.9,5c-0.9,1.7-1.6,3.4-1.8,5.2
				c-0.4,3.3-0.9,6.6-1.1,9.9c-0.1,2.4,0.3,4.7,1.2,6.9c0.3,0.8,0.8,1.5,1.3,2.2c1.1,1.3,2.6,1.4,3.9,0.4
				C248.1-48.5,248.3-48.8,248.6-49z M224.5-133.6c-2,2.4-3.4,5.2-4.5,8.1c-0.5,1.3,0,1.9,1.4,1.7c1.1-0.2,2.2-0.5,3.3-0.8
				c7.3-1.7,14.7-3.3,22-5c2.5-0.6,5-1.3,7.5-2.1c0.8-0.2,1.6-0.7,2.3-1.1c1.7-1.2,1.7-2.7-0.1-3.9c-0.7-0.5-1.6-0.9-2.4-1.1
				c-1.9-0.4-3.8-0.8-5.8-0.7c-3.8,0.1-7.7,0.4-11.5,0.7c-2.3,0.2-4.6,0.7-6.8,1.2C227.8-136.1,226-135.1,224.5-133.6z M290.6-187.4
				c-3.4,3.8-5.2,8.3-5.7,13.3c-0.1,1,0,2.1,0.3,3.1c0.4,1.5,1.6,2.3,3.2,2.4c1.6,0.1,3-0.5,4.3-1.6c1.3-1.1,1.9-2.5,2.6-4
				c1.2-3.1,3.4-5.3,6.5-6.5c1-0.4,2-0.7,2.9-1.2c0.9-0.4,1.8-0.9,2.6-1.5c1.8-1.3,2-3.1,0.6-4.8c-0.3-0.3-0.6-0.6-0.9-0.9
				c-1.5-1.2-3.2-2-5-2.5c-1.9-0.6-3.8-0.5-5.6,0.3C294.1-190.4,292.2-189.2,290.6-187.4z M300.1-138.9c-0.7,0.6-1.2,1.7-1.4,2.8
				c-0.7,2.9,1.1,4.7,4,4.1c0.4-0.1,0.7-0.2,1.1-0.3c0.5-0.1,1-0.2,1.5-0.3c7.7-0.5,14.9,0.9,21.5,5c0.8,0.5,1.7,0.9,2.6,1.2
				c1.4,0.5,2.9,0.5,4.3-0.2c1.1-0.6,1.5-1.5,1.1-2.6c-0.2-0.7-0.6-1.3-1-1.8c-1.4-1.8-3.4-2.9-5.4-3.9c-4.7-2.4-9.6-4.3-14.6-5.8
				c-2.4-0.7-4.9-1-7.4-0.8C304-141.4,301.9-140.8,300.1-138.9z M301.9-95.7c0,0-0.1,0.1-0.1,0.1c2.1,1.6,4.1,3.3,6.3,4.8
				c2.9,1.9,6.2,2.9,9.6,3.3c0.9,0.1,2,0.3,2.4-0.7c0.4-1-0.5-1.7-1.2-2.2c-0.8-0.7-1.7-1.4-2.6-2c-4.1-2.8-8.2-5.6-12.4-8.3
				c-2.6-1.8-5.4-3.4-8.3-4.5c-0.8-0.3-1.6-0.5-2.5-0.5c-0.7,0-1.4,0.3-2,0.6c-0.7,0.4-0.6,1.2,0.1,1.6c0.4,0.2,0.9,0.4,1.3,0.5
				c1.7,0.5,3.2,1.3,4.5,2.6C298.8-98.8,300.4-97.3,301.9-95.7z M282.4-78.6C282.5-78.7,282.5-78.7,282.4-78.6
				c0.6,0.4,1,0.9,1.5,1.3c1.2,1,2.5,1.9,4.1,2.2c2.1,0.4,3.7-1.3,3-3.3c-0.3-0.8-0.8-1.7-1.4-2.2c-0.9-0.9-2-1.6-3.1-2.3
				c-2-1.2-4.2-1.8-6.5-2.3c-1.1-0.2-1.8,0.5-1.4,1.6c0.2,0.7,0.6,1.3,1,1.8C280.5-80.7,281.5-79.7,282.4-78.6z M188.4-137.4
				c-0.1,0-0.2,0-0.3,0c-0.1,0.1-0.1,0.2-0.1,0.4c0.1,0,0.3,0,0.3,0C188.5-137.1,188.4-137.3,188.4-137.4z"/>
		</g>
		<g>
			<g id="lYSiho.tif_00000066510329112742873310000004729731123703541121_">
				<path class="st2" d="M54.2-62.6c1.2-3,2.3-5.5,3.1-8.1c1.1-3.2-0.2-5.3-3.4-6.2c-0.6-0.2-1.3-0.3-1.9-0.7
					c-3.8-2.9-8-2.3-12.1-1.1c-2.3,0.7-4.7,1.3-7.1,1.4c-9.6,0.6-17.5-5.1-19.8-14.8c-1.6-6.9-3-13.8-4.6-20.7
					C7.2-117.8,7.7-123,9-128.2c1.3-4.8,2-9.6,1.9-14.5c0-2.2-0.3-5,2.2-5.9c2.7-0.9,4.2,1.8,5.4,3.6c5.5,9.1,9.1,18.7,6.7,29.6
					c-0.4,2-0.2,3.7,1,5.4c1.4,1.9,1.7,4.1,1.7,6.4c0.1,4.8,1.8,6.3,6.5,5.6c10.2-1.4,19.4,3.8,23.2,13.4c1.1,2.9,0.6,6.1,2,9.3
					c3.4-6.1,8-11,12.3-16.1c1.8-2.1,0.7-4.5-1.9-5.1c-1.5-0.3-3-0.3-4.4-0.6c-3.9-0.9-7-3-9.6-6c-1.1-1.2-2.2-1.8-3.9-1.2
					c-3.1,1-5.9,0.1-8.4-1.8c-2.2-1.7-4.4-3.1-7-4.2c-3.3-1.3-5.1-3.7-4.8-5.7c0.3-2.1,2.5-3.7,6.2-4.1c2.5-0.2,5-0.3,7.5,0
					c2.9,0.3,5.8,0.5,8.7,0.4c5.5-0.2,9.5,2.2,12.1,6.9c1.5,2.8,3.1,5.5,5.5,7.7c1.4,1.3,1.9,3.1,2.3,4.9c0.3,1.4,0.5,2.9,0.8,4.7
					c1.7-2.1,2.8-4.1,3.4-6.3c1.7-5.4,2.6-11,2.8-16.7c0.1-4.8-3.4-8.3-8.2-8c-4.1,0.3-7.8-0.5-11-3.1c-2.5-2-5-1.8-7.9-0.7
					c-10.2,4-19.9,1.8-27.5-6.2c-3-3.1-4.6-6.9-5.7-10.9c-0.7-2.6-1.6-5.2-2.9-7.7c-2.3-3.9-0.8-6.6,3.8-6.9
					c5.5-0.4,10.5,1.3,15.2,4c0.3,0.2,0.6,0.3,0.8,0.5c4.7,4.1,10.1,4.7,16.1,3.8c7.6-1.2,13.6,2.1,18.5,7.7
					c4.5,5.2,6.6,11.7,8.6,18.1c0.2,0.7,0.4,1.4,0.9,2.2c0.1-3.7,1.4-7.1,1.8-10.8c0.4-3.8,0.6-7.6,1-11.4c0.5-6-2.6-10.5-8.3-12.3
					c-2.5-0.8-5.1-0.9-7.6-1.3c-4.3-0.6-8.3-2.2-11.5-5c-3.9-3.3-8-4.3-12.9-2.8c-2.1,0.6-4.4,0.8-6.7,0.7c-2.7-0.2-5.3-1-7.3-2.8
					c-7.4-6.7-13.7-14-15.5-24.4c-0.5-3.2-2.2-6.1-3.9-8.9c-0.8-1.3-1.7-2.8-0.4-4.4c1.2-1.4,2.8-1.2,4.4-0.7
					c5.5,1.7,9.4,5.5,12.6,10.1c2.8,4.1,5.3,8.5,9.4,11.5c2.2,1.6,4.5,2.5,7.1,2.5c5,0.1,9.7,1.3,13.8,4.3c3.8,2.8,8,4.1,12.8,4.2
					c9.3,0.2,16.6,8.2,17,18.2c0.2,4.9-0.4,9.8-0.8,15c2.8-3,4.4-6.1,4.6-10c0.1-3.2,0.5-6.3,0.6-9.5c0.1-5.4-3.1-10-8.2-11.9
					c-2.8-1.1-5.7-1.9-8.6-2.4c-9.9-1.6-16.3-7.2-19.9-16.5c-1.6-4.1-3.1-8.3-6.5-11.4c-1.1-1-2.3-1.9-3.8-2.3
					c-5.3-1.5-10.1-3.8-14.4-7.3c-2.2-1.8-4.7-3.1-7.3-4.3c-1.2-0.6-2.4-1.2-3.5-1.9c-1.8-1.2-3.2-2.7-3-5.1
					c0.3-2.3,1.8-3.7,3.8-4.5c4.6-1.7,9.1-0.9,13.1,1.6c3.1,1.8,5.8,4.2,8.7,6.2c2.1,1.5,4.3,2.9,6.9,3.5
					c10.6,2.3,17.4,9.4,22.6,18.2c2.9,4.9,6.3,9,11.5,11.7c5.7,3,8.3,8.5,9.7,14.5c1.7,7.3,1.3,14.7,0.5,22.1
					c3.8-5.1,8.9-9.4,9.7-16.3c0.3-2.3-0.1-4.3-2.1-5.7c-1.4-1-2.7-2.2-4-3.3c-4.4-3.7-6.4-8.4-5.5-14c1.4-8.9,0.5-17.5-0.8-26.3
					c-0.7-4.7,0.3-9.3,3-13.3c0.7-1,1.4-1.8,2.4-2.5c3.8-2.6,7.9-0.8,8.3,3.8c0.2,2.5,0,5-0.8,7.4c-1,3.2-0.9,6.4,0.3,9.5
					c3,7.3,2.4,14.5-0.5,21.6c-1.3,3.2-1.6,6.1-0.2,9.4c1.5,3.5,1.4,7.3,1.8,11.4c1.2-1.9,2.4-3.4,2.9-5.2c1.7-5.5,2.6-11.1,2-17
					c-0.4-3.7,0.6-7.1,2.7-10.1c2.6-3.7,5-7.4,5.7-12.1c0.4-2.4,0.2-4.8,0.1-7.2c-0.2-3.9,0.5-7.6,3.6-10.5
					c4.2-3.8,9.7-2.2,11.4,3.2c0.9,2.9,0.5,5.8,0,8.6c-0.6,3.7-1.1,7.4-0.2,11.1c1.2,5.1-0.6,9.3-4.1,12.7c-4.4,4.2-7.6,9-10,14.4
					c-1.6,3.5-4.1,6.3-7.8,7.7c-1.2,0.5-2.1,1.3-2.9,2.3c-2,2.7-3.5,5.6-5,9.2c3.4-1.7,6.1-3.6,8.5-6c3.4-3.3,7.3-5.5,12-6.1
					c7.8-1,11-4.8,11.6-13.4c0.7-9.6,4.5-17.6,11.3-24.3c1.7-1.6,3.6-2.9,5.6-4.2c1.8-1.2,3.5-2.5,5.1-4c2.2-2.3,4.8-1.7,6,1.3
					c1,2.6,0.8,5.3,0.1,7.9c-0.9,3.3-2.3,6.5-4.5,9.1c-3.7,4.5-5.4,9.7-6,15.3c-0.2,2.2-0.4,4.4-1.5,6.3c-3,5.4-5.2,11.1-7.7,16.7
					c-1.9,4.3-5.3,7-9.9,8.1c-4.1,1-8.3,1.8-12.5,2.6c-3.5,0.7-6.1-0.6-8.1-3.5c-3.8-5.5-6.1-5.9-11.5-1.9c-0.9,0.6-1.7,1.4-2.4,2.2
					c-2.9,3.5-5.8,7.1-8.6,10.7c-3,3.9-4.7,8.4-6,13c0.4,0.4,0.7,0.1,0.9-0.1c3.5-4.1,8-6.6,13.3-7.8c3.7-0.9,6.7-3.1,9.6-5.6
					c2.2-1.9,4.6-3.3,7.5-3.8c3.1-0.5,5.7,1.8,5.3,4.9c-0.3,3-1.1,5.9-2.5,8.6c-1.5,2.8-3.9,4.7-7,5c-3.1,0.3-5.8,1.5-8.3,3.2
					c-3.5,2.4-6.8,2.2-10.2-0.2c-0.5-0.3-1-0.7-1.5-1c-3.9-2.4-7.8-0.8-8.5,3.9c-0.8,5.2-1.2,10.5-1.8,16.6c1.4-2.2,2.4-3.7,3.5-5.3
					c1.2-1.8,2.4-3.6,3.8-5.3c4.4-5,9.9-6.1,16.3-4.5c9.1,2.3,18.8-1.6,24.1-9.3c1.2-1.7,2.2-3.6,2.8-5.5
					c2.6-7.8,7.6-13.6,14.6-17.7c2.7-1.6,4.1-3.8,5.2-6.6c2.3-5.9,3.7-12.1,7.2-17.5c1.2-1.9,2.5-3.7,4.4-5c3-2.1,6.4-1.1,7,2.4
					c1.4,7.9,3.3,15.9-1.4,23.5c-1.1,1.8-1.8,3.9-2.4,6c-1.3,4.4-4.4,7.3-8.2,9.3c-6,3.2-9.5,7.7-10,14.6
					c-0.7,8.8-5.9,14.2-14.2,16.7c-0.8,0.3-1.5,0.6-2,1.4c-3.8,5.6-9.3,8.4-15.8,9.5c-4.7,0.8-9.4,1.3-14.1,0.8
					c-3.8-0.5-7.3-1.8-9.9-4.7c-0.2-0.2-0.5-0.5-0.7-0.7c-5.6-5.4-8.2-3.6-10.5,2.2c-2.3,5.5-3.9,11.3-8.2,16.1
					c2.2-0.4,2.5-0.7,4.6-3.3c3.5-4.4,7.9-7.3,13.6-8c3.5-0.4,7,0.2,10.3,1.2c6.6,2,13,1.3,19.1-1.7c2.4-1.2,4.8-1.8,7.4-2
					c3.7-0.2,7.4-0.4,11.1-1.4c2.3-0.6,4,1.3,3.2,3.6c-1.4,3.7-2.6,7.6-4.7,11c-1.6,2.7-4.3,4.1-7.2,5c-9.5,3-19.1,3.1-28.9,1.8
					c-2.2-0.3-4.2-1.6-6-2.9c-3.2-2.3-6.7-3-10.4-1.9c-3.6,1-7.2,1-10.8,1.5c-3.2,0.4-5.7,1.9-7.7,4.5c-4,5.1-7.1,10.7-9.3,16.9
					c4.8-3.8,10.2-6.3,16.3-7c3.5-0.4,6.8,0.3,10.1,0.9c6.1,1.1,12.1,0.7,18-1.3c7.4-2.5,14.8-3.1,22.2,0c2.4,1,4.8,0.2,7.1-0.4
					c9-2.4,14.8-8.6,18.8-16.6c2.1-4.2,3.9-8.5,6.6-12.3c1.1-1.5,2.2-2.9,3.7-4c2-1.5,4-0.8,4.5,1.7c0.3,1.3,0.2,2.7,0,4
					c-1.6,8.1-2.4,16.3-3.3,24.5c-1.3,11.9-10.8,21.3-22.6,22.9c-4.9,0.7-9.8,1-14.6,0c-5.2-1.1-10.2-0.4-15.3,0.2
					c-6.3,0.7-12.6,1.1-18.9,0.2c-7.2-1-13.2-4.3-18-9.7c-4.5-5.1-8.8-4.8-12.8,0.8c-4.9,6.9-4.9,14.3-2.3,21.9
					c0.2,0.4,0.3,1.1,0.9,1c0.3-0.1,0.6-0.6,0.8-0.9c5.9-10.2,14.7-13.9,26.3-11.1c3.2,0.8,6.2,2,9.1,3.5c8.2,4.1,16.4,8,24.6,12.3
					c9.2,4.8,19.3,6.7,29.3,8.8c5.1,1.1,10.2,2.4,14.8,5.2c6.8,4.2,7.3,9.1,1.4,14.5c-5.9,5.3-12.8,7.9-20.9,6
					c-5.8-1.4-11.4-3.2-16.4-6.5c-6.7-4.5-14-5.3-21.7-4.4C94-10.1,87.2-13.8,81.8-24c-2.2-4.1-4.3-8.3-7.2-11.9
					c-1.6-1.9-3.3-3.5-5.7-4.3c-2.4-0.8-4.9-1.1-6.7,1c-1.9,2.2-2.5,4.9-1.3,7.7c1.6,3.4,3.2,6.8,4.8,10.1
					c2.4,5.2,4.2,10.7,5.4,16.3c0.3,1.3,0.9,3.5-0.5,3.8c-1.4,0.3-1.2-2-1.4-3.2c-1.1-5.8-3.3-11.3-5.9-16.7
					c-3.2-6.7-7.2-13.1-8.9-20.6c-0.9-3.9-1.6-7.8-1.6-11.8c0-4.3-3.1-6.1-6.9-3.8c-3.7,2.2-5.6,5.6-6.5,9.7c-0.6,2.6-1,5.2-1.5,7.8
					c-1.4,6.6-4.1,12.5-9.2,17.1c-3.8,3.5-7.2,7.4-8.7,12.5c-0.2,0.5-0.5,1-0.8,1.5c-1.1,1.7-2.4,3.1-4.6,3
					c-2.2-0.1-3.4-1.7-4.1-3.6c-2.1-6.4-3-13-1.2-19.6c1.1-3.9,3.6-6.8,6.8-8.9c3.8-2.6,6.4-5.9,7.8-10.3c1.8-5.5,3.4-11,6.1-16.1
					c1.2-2.3,2.8-4.3,4.9-5.9c6-4.5,13-3.1,16.9,3.3C52.7-65.7,53.3-64.3,54.2-62.6z"/>
			</g>
		</g>
		<g>
			<g id="lYSiho.tif_00000080179631521358968260000006324737145160940725_">
				<path class="st2" d="M236.2-312.6c1.2-3,2.3-5.5,3.1-8.1c1.1-3.2-0.2-5.3-3.4-6.2c-0.6-0.2-1.3-0.3-1.9-0.7
					c-3.8-2.9-8-2.3-12.1-1.1c-2.3,0.7-4.7,1.3-7.1,1.4c-9.6,0.6-17.5-5.1-19.8-14.8c-1.6-6.9-3-13.8-4.6-20.7
					c-1.2-5.2-0.8-10.4,0.5-15.6c1.3-4.8,2-9.6,1.9-14.5c0-2.2-0.3-5,2.2-5.9c2.7-0.9,4.2,1.8,5.4,3.6c5.5,9.1,9.1,18.7,6.7,29.6
					c-0.4,2-0.2,3.7,1,5.4c1.4,1.9,1.7,4.1,1.7,6.4c0.1,4.8,1.8,6.3,6.5,5.6c10.2-1.4,19.4,3.8,23.2,13.4c1.1,2.9,0.6,6.1,2,9.3
					c3.4-6.1,8-11,12.3-16.1c1.8-2.1,0.7-4.5-1.9-5.1c-1.5-0.3-3-0.3-4.4-0.6c-3.9-0.9-7-3-9.6-6c-1.1-1.2-2.2-1.8-3.9-1.2
					c-3.1,1-5.9,0.1-8.4-1.8c-2.2-1.7-4.4-3.1-7-4.2c-3.3-1.3-5.1-3.7-4.8-5.7c0.3-2.1,2.5-3.7,6.2-4.1c2.5-0.2,5-0.3,7.5,0
					c2.9,0.3,5.8,0.5,8.7,0.4c5.5-0.2,9.5,2.2,12.1,6.9c1.5,2.8,3.1,5.5,5.5,7.7c1.4,1.3,1.9,3.1,2.3,4.9c0.3,1.4,0.5,2.9,0.8,4.7
					c1.7-2.1,2.8-4.1,3.4-6.3c1.7-5.4,2.6-11,2.8-16.7c0.1-4.8-3.4-8.3-8.2-8c-4.1,0.3-7.8-0.5-11-3.1c-2.5-2-5-1.8-7.9-0.7
					c-10.2,4-19.9,1.8-27.5-6.2c-3-3.1-4.6-6.9-5.7-10.9c-0.7-2.6-1.6-5.2-2.9-7.7c-2.3-3.9-0.8-6.6,3.8-6.9
					c5.5-0.4,10.5,1.3,15.2,4c0.3,0.2,0.6,0.3,0.8,0.5c4.7,4.1,10.1,4.7,16.1,3.8c7.6-1.2,13.6,2.1,18.5,7.7
					c4.5,5.2,6.6,11.7,8.6,18.1c0.2,0.7,0.4,1.4,0.9,2.2c0.1-3.7,1.4-7.1,1.8-10.8c0.4-3.8,0.6-7.6,1-11.4c0.5-6-2.6-10.5-8.3-12.3
					c-2.5-0.8-5.1-0.9-7.6-1.3c-4.3-0.6-8.3-2.2-11.5-5c-3.9-3.3-8-4.3-12.9-2.8c-2.1,0.6-4.4,0.8-6.7,0.7c-2.7-0.2-5.3-1-7.3-2.8
					c-7.4-6.7-13.7-14-15.5-24.4c-0.5-3.2-2.2-6.1-3.9-8.9c-0.8-1.3-1.7-2.8-0.4-4.4c1.2-1.4,2.8-1.2,4.4-0.7
					c5.5,1.7,9.4,5.5,12.6,10.1c2.8,4.1,5.3,8.5,9.4,11.5c2.2,1.6,4.5,2.5,7.1,2.5c5,0.1,9.7,1.3,13.8,4.3c3.8,2.8,8,4.1,12.8,4.2
					c9.3,0.2,16.6,8.2,17,18.2c0.2,4.9-0.4,9.8-0.8,15c2.8-3,4.4-6.1,4.6-10c0.1-3.2,0.5-6.3,0.6-9.5c0.1-5.4-3.1-10-8.2-11.9
					c-2.8-1.1-5.7-1.9-8.6-2.4c-9.9-1.6-16.3-7.2-19.9-16.5c-1.6-4.1-3.1-8.3-6.5-11.4c-1.1-1-2.3-1.9-3.8-2.3
					c-5.3-1.5-10.1-3.8-14.4-7.3c-2.2-1.8-4.7-3.1-7.3-4.3c-1.2-0.6-2.4-1.2-3.5-1.9c-1.8-1.2-3.2-2.7-3-5.1
					c0.3-2.3,1.8-3.7,3.8-4.5c4.6-1.7,9.1-0.9,13.1,1.6c3.1,1.8,5.8,4.2,8.7,6.2c2.1,1.5,4.3,2.9,6.9,3.5
					c10.6,2.3,17.4,9.4,22.6,18.2c2.9,4.9,6.3,9,11.5,11.7c5.7,3,8.3,8.5,9.7,14.5c1.7,7.3,1.3,14.7,0.5,22.1
					c3.8-5.1,8.9-9.4,9.7-16.3c0.3-2.3-0.1-4.3-2.1-5.7c-1.4-1-2.7-2.2-4-3.3c-4.4-3.7-6.4-8.4-5.5-14c1.4-8.9,0.5-17.5-0.8-26.3
					c-0.7-4.7,0.3-9.3,3-13.3c0.7-1,1.4-1.8,2.4-2.5c3.8-2.6,7.9-0.8,8.3,3.8c0.2,2.5,0,5-0.8,7.4c-1,3.2-0.9,6.4,0.3,9.5
					c3,7.3,2.4,14.5-0.5,21.6c-1.3,3.2-1.6,6.1-0.2,9.4c1.5,3.5,1.4,7.3,1.8,11.4c1.2-1.9,2.4-3.4,2.9-5.2c1.7-5.5,2.6-11.1,2-17
					c-0.4-3.7,0.6-7.1,2.7-10.1c2.6-3.7,5-7.4,5.7-12.1c0.4-2.4,0.2-4.8,0.1-7.2c-0.2-3.9,0.5-7.6,3.6-10.5
					c4.2-3.8,9.7-2.2,11.4,3.2c0.9,2.9,0.5,5.8,0,8.6c-0.6,3.7-1.1,7.4-0.2,11.1c1.2,5.1-0.6,9.3-4.1,12.7c-4.4,4.2-7.6,9-10,14.4
					c-1.6,3.5-4.1,6.3-7.8,7.7c-1.2,0.5-2.1,1.3-2.9,2.3c-2,2.7-3.5,5.6-5,9.2c3.4-1.7,6.1-3.6,8.5-6c3.4-3.3,7.3-5.5,12-6.1
					c7.8-1,11-4.8,11.6-13.4c0.7-9.6,4.5-17.6,11.3-24.3c1.7-1.6,3.6-2.9,5.6-4.2c1.8-1.2,3.5-2.5,5.1-4c2.2-2.3,4.8-1.7,6,1.3
					c1,2.6,0.8,5.3,0.1,7.9c-0.9,3.3-2.3,6.5-4.5,9.1c-3.7,4.5-5.4,9.7-6,15.3c-0.2,2.2-0.4,4.4-1.5,6.3c-3,5.4-5.2,11.1-7.7,16.7
					c-1.9,4.3-5.3,7-9.9,8.1c-4.1,1-8.3,1.8-12.5,2.6c-3.5,0.7-6.1-0.6-8.1-3.5c-3.8-5.5-6.1-5.9-11.5-1.9c-0.9,0.6-1.7,1.4-2.4,2.2
					c-2.9,3.5-5.8,7.1-8.6,10.7c-3,3.9-4.7,8.4-6,13c0.4,0.4,0.7,0.1,0.9-0.1c3.5-4.1,8-6.6,13.3-7.8c3.7-0.9,6.7-3.1,9.6-5.6
					c2.2-1.9,4.6-3.3,7.5-3.8c3.1-0.5,5.7,1.8,5.3,4.9c-0.3,3-1.1,5.9-2.5,8.6c-1.5,2.8-3.9,4.7-7,5c-3.1,0.3-5.8,1.5-8.3,3.2
					c-3.5,2.4-6.8,2.2-10.2-0.2c-0.5-0.3-1-0.7-1.5-1c-3.9-2.4-7.8-0.8-8.5,3.9c-0.8,5.2-1.2,10.5-1.8,16.6c1.4-2.2,2.4-3.7,3.5-5.3
					c1.2-1.8,2.4-3.6,3.8-5.3c4.4-5,9.9-6.1,16.3-4.5c9.1,2.3,18.8-1.6,24.1-9.3c1.2-1.7,2.2-3.6,2.8-5.5
					c2.6-7.8,7.6-13.6,14.6-17.7c2.7-1.6,4.1-3.8,5.2-6.6c2.3-5.9,3.7-12.1,7.2-17.5c1.2-1.9,2.5-3.7,4.4-5c3-2.1,6.4-1.1,7,2.4
					c1.4,7.9,3.3,15.9-1.4,23.5c-1.1,1.8-1.8,3.9-2.4,6c-1.3,4.4-4.4,7.3-8.2,9.3c-6,3.2-9.5,7.7-10,14.6
					c-0.7,8.8-5.9,14.2-14.2,16.7c-0.8,0.3-1.5,0.6-2,1.4c-3.8,5.6-9.3,8.4-15.8,9.5c-4.7,0.8-9.4,1.3-14.1,0.8
					c-3.8-0.5-7.3-1.8-9.9-4.7c-0.2-0.2-0.5-0.5-0.7-0.7c-5.6-5.4-8.2-3.6-10.5,2.2c-2.3,5.5-3.9,11.3-8.2,16.1
					c2.2-0.4,2.5-0.7,4.6-3.3c3.5-4.4,7.9-7.3,13.6-8c3.5-0.4,7,0.2,10.3,1.2c6.6,2,13,1.3,19.1-1.7c2.4-1.2,4.8-1.8,7.4-2
					c3.7-0.2,7.4-0.4,11.1-1.4c2.3-0.6,4,1.3,3.2,3.6c-1.4,3.7-2.6,7.6-4.7,11c-1.6,2.7-4.3,4.1-7.2,5c-9.5,3-19.1,3.1-28.9,1.8
					c-2.2-0.3-4.2-1.6-6-2.9c-3.2-2.3-6.7-3-10.4-1.9c-3.6,1-7.2,1-10.8,1.5c-3.2,0.4-5.7,1.9-7.7,4.5c-4,5.1-7.1,10.7-9.3,16.9
					c4.8-3.8,10.2-6.3,16.3-7c3.5-0.4,6.8,0.3,10.1,0.9c6.1,1.1,12.1,0.7,18-1.3c7.4-2.5,14.8-3.1,22.2,0c2.4,1,4.8,0.2,7.1-0.4
					c9-2.4,14.8-8.6,18.8-16.6c2.1-4.2,3.9-8.5,6.6-12.3c1.1-1.5,2.2-2.9,3.7-4c2-1.5,4-0.8,4.5,1.7c0.3,1.3,0.2,2.7,0,4
					c-1.6,8.1-2.4,16.3-3.3,24.5c-1.3,11.9-10.8,21.3-22.6,22.9c-4.9,0.7-9.8,1-14.6,0c-5.2-1.1-10.2-0.4-15.3,0.2
					c-6.3,0.7-12.6,1.1-18.9,0.2c-7.2-1-13.2-4.3-18-9.7c-4.5-5.1-8.8-4.8-12.8,0.8c-4.9,6.9-4.9,14.3-2.3,21.9
					c0.2,0.4,0.3,1.1,0.9,1c0.3-0.1,0.6-0.6,0.8-0.9c5.9-10.2,14.7-13.9,26.3-11.1c3.2,0.8,6.2,2,9.1,3.5c8.2,4.1,16.4,8,24.6,12.3
					c9.2,4.8,19.3,6.7,29.3,8.8c5.1,1.1,10.2,2.4,14.8,5.2c6.8,4.2,7.3,9.1,1.4,14.5c-5.9,5.3-12.8,7.9-20.9,6
					c-5.8-1.4-11.4-3.2-16.4-6.5c-6.7-4.5-14-5.3-21.7-4.4c-11.4,1.4-18.3-2.2-23.6-12.5c-2.2-4.1-4.3-8.3-7.2-11.9
					c-1.6-1.9-3.3-3.5-5.7-4.3c-2.4-0.8-4.9-1.1-6.7,1c-1.9,2.2-2.5,4.9-1.3,7.7c1.6,3.4,3.2,6.8,4.8,10.1
					c2.4,5.2,4.2,10.7,5.4,16.3c0.3,1.3,0.9,3.5-0.5,3.8c-1.4,0.3-1.2-2-1.4-3.2c-1.1-5.8-3.3-11.3-5.9-16.7
					c-3.2-6.7-7.2-13.1-8.9-20.6c-0.9-3.9-1.6-7.8-1.6-11.8c0-4.3-3.1-6.1-6.9-3.8c-3.7,2.2-5.6,5.6-6.5,9.7c-0.6,2.6-1,5.2-1.5,7.8
					c-1.4,6.6-4.1,12.5-9.2,17.1c-3.8,3.5-7.2,7.4-8.7,12.5c-0.2,0.5-0.5,1-0.8,1.5c-1.1,1.7-2.4,3.1-4.6,3
					c-2.2-0.1-3.4-1.7-4.1-3.6c-2.1-6.4-3-13-1.2-19.6c1.1-3.9,3.6-6.8,6.8-8.9c3.8-2.6,6.4-5.9,7.8-10.3c1.8-5.5,3.4-11,6.1-16.1
					c1.2-2.3,2.8-4.3,4.9-5.9c6-4.5,13-3.1,16.9,3.3C234.7-315.7,235.3-314.3,236.2-312.6z"/>
			</g>
			<path class="st1" d="M63.4-409.6c-0.4-0.3-0.9-0.6-1.3-0.9c-5.9-3-12.2-3.9-18.8-2.8c-5.8,0.9-11,3.2-15.9,6.3
				c-5.6,3.5-10.5,7.7-14.9,12.7c-2.6,3-4.6,6.5-6.6,9.9c-0.4,0.7-0.9,1.4-1.7,1.9c-0.5-0.5-0.3-1-0.2-1.5c0.3-1.3,0.6-2.6,1-3.8
				c0.9-3,1.8-6,2.7-9c1.5-4.9,1.5-9.9,0.9-14.9c-0.7-4.9-0.9-9.7-0.1-14.6c1.1-6.3,2.8-12.4,6.2-17.9c2.9-4.6,6.9-8,11.9-10.2
				c6.4-2.7,13.2-4.2,20.1-4.5c5.4-0.3,10.8,0.1,16.1,1.1c5.3,1,10.2,3,14.5,6.2c4.2,3.2,7.3,7.2,8.3,12.5c0.2,1,0.4,2,0.7,3.1
				c0.3,1.2,0.9,2.2,1.9,2.9c1.1,0.8,2.2,0.7,3-0.4c0.5-0.8,1-1.7,1.3-2.7c0.9-2.8,1.6-5.6,2.4-8.3c0.9-3,2.1-5.9,3.7-8.6
				c3.1-5.7,8.1-8.3,14.4-8.8c4.6-0.3,8.8,0.8,13,2.6c5.1,2.3,9.8,5.2,14.3,8.5c1.9,1.4,3.7,2.8,5.4,4.3c4.7,4.1,8.1,9.2,10.7,14.9
				c1.5,3.4,2.8,6.9,4.2,10.3c1.7,4.2,3.9,8.2,6.8,11.8c1.5,1.8,3.3,3.2,5.2,4.6c0.5,0.4,1.1,0.8,1.5,1.3c0.4,0.5,0.2,1.1-0.5,1.1
				c-0.7,0-1.4-0.2-2.1-0.4c-5.5-1.5-10.7-3.8-15.5-6.9c-3-1.9-6-3.9-9.4-4.9c-6.6-1.9-13.4-2.8-20.2-0.9c-3.8,1.1-7.3,3-10,6
				c-0.7,0.7-1.4,1.5-1.4,2.9c0.6-0.3,1-0.4,1.3-0.7c5.7-3.3,11.8-5,18.4-4.9c3.2,0,6.1,1.1,9.1,2.2c5.2,2,9.9,4.9,14.3,8.4
				c8.7,7.1,14.7,16,18.4,26.5c1.2,3.4,1.7,6.9,1.2,10.5c-0.3,2.5-1.3,4.7-2.4,7c-1.7,3.5-3.4,7-4.3,10.8c-0.6,2.6-1.1,5.2-1.4,7.8
				c-0.2,1.6,0.3,3.2,0.4,4.8c0,0.5,0.4,1.3-0.2,1.6c-0.7,0.3-1-0.5-1.4-0.9c-3.4-4.4-6-9.3-8.9-14.1c-1.8-3-3.7-5.9-5.8-8.8
				c-2.2-3-4.8-5.6-7.8-7.9c-1.9-1.4-3.7-2.8-5.6-4.1c-4.8-3.1-10.1-4.3-15.7-3.7c-0.8,0.1-1.7,0.1-2.6,0.8c0.5,0.3,1,0.6,1.4,0.8
				c4.6,2,8.9,4.4,13.1,7.1c4.2,2.8,8.4,5.7,11.8,9.5c3.3,3.5,6.2,7.3,7.7,12c1,3.2,1.2,6.4,0.6,9.7c-0.6,3.6-2.7,6.3-5.4,8.6
				c-2,1.7-4.1,3.4-6,5.2c-2.7,2.6-4.2,5.8-4.5,9.6c0,0.3,0,0.6-0.1,0.8c-0.1,0.4-0.2,0.9-0.7,0.8c-0.3,0-0.4-0.5-0.6-0.8
				c-0.1-0.1,0-0.3,0-0.4c-0.6-5-1.7-9.9-3.5-14.6c-0.8-2-1.8-4-3.1-5.7c-2.8-3.7-6.6-5.6-10.9-6.8c-0.3-0.1-0.5-0.2-0.8-0.2
				c-0.1,0.2-0.1,0.3-0.2,0.5c0.3,0.3,0.5,0.7,0.8,1c1.4,1.7,3.1,3.4,4.3,5.3c3.4,5,5.8,10.6,6.6,16.6c0.3,2.2,0.3,4.5,0.1,6.8
				c-0.4,4.6-3,8.1-6.4,11c-4.3,3.7-9.2,6.1-14.4,8.1c-3.4,1.3-6.6,3-9.4,5.3c-4.3,3.6-6.6,8.1-5.8,13.9c0.1,0.5,0.1,1,0.1,1.8
				c-0.5-0.3-0.8-0.4-1-0.6c-0.7-0.7-1.3-1.5-1.9-2.3c-4.2-5.6-10-8.9-16.2-11.6c-5.5-2.3-10.9-5-15.9-8.3c-4.6-3-8.8-6.6-11.9-11.3
				c-5.2-7.7-4.2-17.9,0.2-24.4c1.7-2.6,3.8-4.8,6.3-6.7c0.3-0.2,0.6-0.5,0.9-0.8c0-0.1-0.1-0.2-0.1-0.3c-0.5,0.1-1,0.1-1.4,0.3
				c-4.1,1.1-7.7,3.2-11.1,5.9c-2.3,1.9-4.3,4-5.7,6.6c-1.8,3.3-2.7,6.9-3.1,10.6c0,0.4,0,0.9-0.2,1.2c-0.3,0.8-1.1,0.8-1.5,0.1
				c-0.2-0.4-0.3-0.8-0.4-1.2c-1-3-1.9-6-3-8.9c-0.7-1.8-1.8-3.6-2.9-5.2c-3.2-4.8-3.9-10-2.5-15.5c0.9-3.6,2.1-7,4.2-10
				c1.6-2.3,3.6-4.3,5.7-6.1c4.3-3.8,9.1-6.6,14.3-8.9c2.3-1,4.7-2,7-3.1c0.3-0.1,0.5-0.3,0.7-0.4c-0.3-0.7-0.9-0.6-1.3-0.6
				c-4.1-0.3-8.1,0-11.9,1.3c-5.3,1.8-9.9,4.7-14,8.4c-5.1,4.6-9.1,10.1-12.3,16.2c-1.5,2.9-2.5,6-3.3,9.2c-0.2,0.6-0.4,1.2-0.8,1.8
				c-0.4,0.5-1,0.5-1.3,0c-0.4-0.6-0.8-1.3-1-2c-1.1-3.8-2.2-7.7-3.1-11.5c-0.9-3.9-1.8-7.8-2.2-11.7c-1-8.7,0.1-17.2,3.9-25.2
				c1.3-2.7,3-5.1,4.9-7.5c4.8-6,11.1-10.1,17.4-14.2c3.6-2.3,7.3-4.4,11.3-5.9c4.4-1.6,9-2.1,13.7-1.8c1.7,0.1,3.3,0.3,5,0.4
				c0.4,0,0.8,0,1.2,0C63.3-409.4,63.4-409.5,63.4-409.6z M65.1-434.1c-2.3-2.4-5.1-3.8-8.2-4.6c-4.4-1.1-9-1.5-13.5-1.2
				c-1.4,0.1-2.9,0.4-4.3,1c-3.6,1.4-5.5,4.2-6.2,7.9c-0.4,1.9,0.3,2.8,2.1,3.2c0.8,0.2,1.7,0.3,2.5,0.4c4.9,0.5,9.7,0.9,14.6,1.5
				c5.2,0.6,10.4,1,15.3,2.9c1.4,0.5,2.2,0,2.5-1.5c0.2-1.4-0.1-2.7-0.7-4C68.1-430.7,66.9-432.6,65.1-434.1z M66.6-299
				C66.6-299,66.7-299,66.6-299c0.8-1,1.5-2.1,2.1-3.2c2-3.8,3.5-7.8,4.9-11.8c1.8-5,3.3-10.1,5.8-14.8c0.1-0.2,0.2-0.3,0.2-0.5
				c0.3-1-0.1-1.6-1.2-1.5c-0.2,0-0.5,0-0.7,0.1c-3.2,0.9-6.4,1.7-9.6,2.7c-2.6,0.9-4.6,2.6-5.9,5c-0.9,1.7-1.6,3.4-1.8,5.2
				c-0.4,3.3-0.9,6.6-1.1,9.9c-0.1,2.4,0.3,4.7,1.2,6.9c0.3,0.8,0.8,1.5,1.3,2.2c1.1,1.3,2.6,1.4,3.9,0.4
				C66.1-298.5,66.3-298.8,66.6-299z M42.5-383.6c-2,2.4-3.4,5.2-4.5,8.1c-0.5,1.3,0,1.9,1.4,1.7c1.1-0.2,2.2-0.5,3.3-0.8
				c7.3-1.7,14.7-3.3,22-5c2.5-0.6,5-1.3,7.5-2.1c0.8-0.2,1.6-0.7,2.3-1.1c1.7-1.2,1.7-2.7-0.1-3.9c-0.7-0.5-1.6-0.9-2.4-1.1
				c-1.9-0.4-3.8-0.8-5.8-0.7c-3.8,0.1-7.7,0.4-11.5,0.7c-2.3,0.2-4.6,0.7-6.8,1.2C45.8-386.1,44-385.1,42.5-383.6z M108.6-437.4
				c-3.4,3.8-5.2,8.3-5.7,13.3c-0.1,1,0,2.1,0.3,3.1c0.4,1.5,1.6,2.3,3.2,2.4c1.6,0.1,3-0.5,4.3-1.6c1.3-1.1,1.9-2.5,2.6-4
				c1.2-3.1,3.4-5.3,6.5-6.5c1-0.4,2-0.7,2.9-1.2c0.9-0.4,1.8-0.9,2.6-1.5c1.8-1.3,2-3.1,0.6-4.8c-0.3-0.3-0.6-0.6-0.9-0.9
				c-1.5-1.2-3.2-2-5-2.5c-1.9-0.6-3.8-0.5-5.6,0.3C112.1-440.4,110.2-439.2,108.6-437.4z M118.1-388.9c-0.7,0.6-1.2,1.7-1.4,2.8
				c-0.7,2.9,1.1,4.7,4,4.1c0.4-0.1,0.7-0.2,1.1-0.3c0.5-0.1,1-0.2,1.5-0.3c7.7-0.5,14.9,0.9,21.5,5c0.8,0.5,1.7,0.9,2.6,1.2
				c1.4,0.5,2.9,0.5,4.3-0.2c1.1-0.6,1.5-1.5,1.1-2.6c-0.2-0.7-0.6-1.3-1-1.8c-1.4-1.8-3.4-2.9-5.4-3.9c-4.7-2.4-9.6-4.3-14.6-5.8
				c-2.4-0.7-4.9-1-7.4-0.8C122-391.4,119.9-390.8,118.1-388.9z M119.9-345.7c0,0-0.1,0.1-0.1,0.1c2.1,1.6,4.1,3.3,6.3,4.8
				c2.9,1.9,6.2,2.9,9.6,3.3c0.9,0.1,2,0.3,2.4-0.7c0.4-1-0.5-1.7-1.2-2.2c-0.8-0.7-1.7-1.4-2.6-2c-4.1-2.8-8.2-5.6-12.4-8.3
				c-2.6-1.8-5.4-3.4-8.3-4.5c-0.8-0.3-1.6-0.5-2.5-0.5c-0.7,0-1.4,0.3-2,0.6c-0.7,0.4-0.6,1.2,0.1,1.6c0.4,0.2,0.9,0.4,1.3,0.5
				c1.7,0.5,3.2,1.3,4.5,2.6C116.8-348.8,118.4-347.3,119.9-345.7z M100.4-328.6C100.5-328.7,100.5-328.7,100.4-328.6
				c0.6,0.4,1,0.9,1.5,1.3c1.2,1,2.5,1.9,4.1,2.2c2.1,0.4,3.7-1.3,3-3.3c-0.3-0.8-0.8-1.7-1.4-2.2c-0.9-0.9-2-1.6-3.1-2.3
				c-2-1.2-4.2-1.8-6.5-2.3c-1.1-0.2-1.8,0.5-1.4,1.6c0.2,0.7,0.6,1.3,1,1.8C98.5-330.7,99.5-329.7,100.4-328.6z M6.4-387.4
				c-0.1,0-0.2,0-0.3,0c-0.1,0.1-0.1,0.2-0.1,0.4c0.1,0,0.3,0,0.3,0C6.5-387.1,6.4-387.3,6.4-387.4z"/>
		</g>
		<g>
			<path class="st1" d="M245.4-659.6c-0.4-0.3-0.9-0.6-1.3-0.9c-5.9-3-12.2-3.9-18.8-2.8c-5.8,0.9-11,3.2-15.9,6.3
				c-5.6,3.5-10.5,7.7-14.9,12.7c-2.6,3-4.6,6.5-6.6,9.9c-0.4,0.7-0.9,1.4-1.7,1.9c-0.5-0.5-0.3-1-0.2-1.5c0.3-1.3,0.6-2.6,1-3.8
				c0.9-3,1.8-6,2.7-9c1.5-4.9,1.5-9.9,0.9-14.9c-0.7-4.9-0.9-9.7-0.1-14.6c1.1-6.3,2.8-12.4,6.2-17.9c2.9-4.6,6.9-8,11.9-10.2
				c6.4-2.7,13.2-4.2,20.1-4.5c5.4-0.3,10.8,0.1,16.1,1.1c5.3,1,10.2,3,14.5,6.2c4.2,3.2,7.3,7.2,8.3,12.5c0.2,1,0.4,2,0.7,3.1
				c0.3,1.2,0.9,2.2,1.9,2.9c1.1,0.8,2.2,0.7,3-0.4c0.5-0.8,1-1.7,1.3-2.7c0.9-2.8,1.6-5.6,2.4-8.3c0.9-3,2.1-5.9,3.7-8.6
				c3.1-5.7,8.1-8.3,14.4-8.8c4.6-0.3,8.8,0.8,13,2.6c5.1,2.3,9.8,5.2,14.3,8.5c1.9,1.4,3.7,2.8,5.4,4.3c4.7,4.1,8.1,9.2,10.7,14.9
				c1.5,3.4,2.8,6.9,4.2,10.3c1.7,4.2,3.9,8.2,6.8,11.8c1.5,1.8,3.3,3.2,5.2,4.6c0.5,0.4,1.1,0.8,1.5,1.3c0.4,0.5,0.2,1.1-0.5,1.1
				c-0.7,0-1.4-0.2-2.1-0.4c-5.5-1.5-10.7-3.8-15.5-6.9c-3-1.9-6-3.9-9.4-4.9c-6.6-1.9-13.4-2.8-20.2-0.9c-3.8,1.1-7.3,3-10,6
				c-0.7,0.7-1.4,1.5-1.4,2.9c0.6-0.3,1-0.4,1.3-0.7c5.7-3.3,11.8-5,18.4-4.9c3.2,0,6.1,1.1,9.1,2.2c5.2,2,9.9,4.9,14.3,8.4
				c8.7,7.1,14.7,16,18.4,26.5c1.2,3.4,1.7,6.9,1.2,10.5c-0.3,2.5-1.3,4.7-2.4,7c-1.7,3.5-3.4,7-4.3,10.8c-0.6,2.6-1.1,5.2-1.4,7.8
				c-0.2,1.6,0.3,3.2,0.4,4.8c0,0.5,0.4,1.3-0.2,1.6c-0.7,0.3-1-0.5-1.4-0.9c-3.4-4.4-6-9.3-8.9-14.1c-1.8-3-3.7-5.9-5.8-8.8
				c-2.2-3-4.8-5.6-7.8-7.9c-1.9-1.4-3.7-2.8-5.6-4.1c-4.8-3.1-10.1-4.3-15.7-3.7c-0.8,0.1-1.7,0.1-2.6,0.8c0.5,0.3,1,0.6,1.4,0.8
				c4.6,2,8.9,4.4,13.1,7.1c4.2,2.8,8.4,5.7,11.8,9.5c3.3,3.5,6.2,7.3,7.7,12c1,3.2,1.2,6.4,0.6,9.7c-0.6,3.6-2.7,6.3-5.4,8.6
				c-2,1.7-4.1,3.4-6,5.2c-2.7,2.6-4.2,5.8-4.5,9.6c0,0.3,0,0.6-0.1,0.8c-0.1,0.4-0.2,0.9-0.7,0.8c-0.3,0-0.4-0.5-0.6-0.8
				c-0.1-0.1,0-0.3,0-0.4c-0.6-5-1.7-9.9-3.5-14.6c-0.8-2-1.8-4-3.1-5.7c-2.8-3.7-6.6-5.6-10.9-6.8c-0.3-0.1-0.5-0.2-0.8-0.2
				c-0.1,0.2-0.1,0.3-0.2,0.5c0.3,0.3,0.5,0.7,0.8,1c1.4,1.7,3.1,3.4,4.3,5.3c3.4,5,5.8,10.6,6.6,16.6c0.3,2.2,0.3,4.5,0.1,6.8
				c-0.4,4.6-3,8.1-6.4,11c-4.3,3.7-9.2,6.1-14.4,8.1c-3.4,1.3-6.6,3-9.4,5.3c-4.3,3.6-6.6,8.1-5.8,13.9c0.1,0.5,0.1,1,0.1,1.8
				c-0.5-0.3-0.8-0.4-1-0.6c-0.7-0.7-1.3-1.5-1.9-2.3c-4.2-5.6-10-8.9-16.2-11.6c-5.5-2.3-10.9-5-15.9-8.3c-4.6-3-8.8-6.6-11.9-11.3
				c-5.2-7.7-4.2-17.9,0.2-24.4c1.7-2.6,3.8-4.8,6.3-6.7c0.3-0.2,0.6-0.5,0.9-0.8c0-0.1-0.1-0.2-0.1-0.3c-0.5,0.1-1,0.1-1.4,0.3
				c-4.1,1.1-7.7,3.2-11.1,5.9c-2.3,1.9-4.3,4-5.7,6.6c-1.8,3.3-2.7,6.9-3.1,10.6c0,0.4,0,0.9-0.2,1.2c-0.3,0.8-1.1,0.8-1.5,0.1
				c-0.2-0.4-0.3-0.8-0.4-1.2c-1-3-1.9-6-3-8.9c-0.7-1.8-1.8-3.6-2.9-5.2c-3.2-4.8-3.9-10-2.5-15.5c0.9-3.6,2.1-7,4.2-10
				c1.6-2.3,3.6-4.3,5.7-6.1c4.3-3.8,9.1-6.6,14.3-8.9c2.3-1,4.7-2,7-3.1c0.3-0.1,0.5-0.3,0.7-0.4c-0.3-0.7-0.9-0.6-1.3-0.6
				c-4.1-0.3-8.1,0-11.9,1.3c-5.3,1.8-9.9,4.7-14,8.4c-5.1,4.6-9.1,10.1-12.3,16.2c-1.5,2.9-2.5,6-3.3,9.2c-0.2,0.6-0.4,1.2-0.8,1.8
				c-0.4,0.5-1,0.5-1.3,0c-0.4-0.6-0.8-1.3-1-2c-1.1-3.8-2.2-7.7-3.1-11.5c-0.9-3.9-1.8-7.8-2.2-11.7c-1-8.7,0.1-17.2,3.9-25.2
				c1.3-2.7,3-5.1,4.9-7.5c4.8-6,11.1-10.1,17.4-14.2c3.6-2.3,7.3-4.4,11.3-5.9c4.4-1.6,9-2.1,13.7-1.8c1.7,0.1,3.3,0.3,5,0.4
				c0.4,0,0.8,0,1.2,0C245.3-659.4,245.4-659.5,245.4-659.6z M247.1-684.1c-2.3-2.4-5.1-3.8-8.2-4.6c-4.4-1.1-9-1.5-13.5-1.2
				c-1.4,0.1-2.9,0.4-4.3,1c-3.6,1.4-5.5,4.2-6.2,7.9c-0.4,1.9,0.3,2.8,2.1,3.2c0.8,0.2,1.7,0.3,2.5,0.4c4.9,0.5,9.7,0.9,14.6,1.5
				c5.2,0.6,10.4,1,15.3,2.9c1.4,0.5,2.2,0,2.5-1.5c0.2-1.4-0.1-2.7-0.7-4C250.1-680.7,248.9-682.6,247.1-684.1z M248.6-549
				C248.6-549,248.7-549,248.6-549c0.8-1,1.5-2.1,2.1-3.2c2-3.8,3.5-7.8,4.9-11.8c1.8-5,3.3-10.1,5.8-14.8c0.1-0.2,0.2-0.3,0.2-0.5
				c0.3-1-0.1-1.6-1.2-1.5c-0.2,0-0.5,0-0.7,0.1c-3.2,0.9-6.4,1.7-9.6,2.7c-2.6,0.9-4.6,2.6-5.9,5c-0.9,1.7-1.6,3.4-1.8,5.2
				c-0.4,3.3-0.9,6.6-1.1,9.9c-0.1,2.4,0.3,4.7,1.2,6.9c0.3,0.8,0.8,1.5,1.3,2.2c1.1,1.3,2.6,1.4,3.9,0.4
				C248.1-548.5,248.3-548.8,248.6-549z M224.5-633.6c-2,2.4-3.4,5.2-4.5,8.1c-0.5,1.3,0,1.9,1.4,1.7c1.1-0.2,2.2-0.5,3.3-0.8
				c7.3-1.7,14.7-3.3,22-5c2.5-0.6,5-1.3,7.5-2.1c0.8-0.2,1.6-0.7,2.3-1.1c1.7-1.2,1.7-2.7-0.1-3.9c-0.7-0.5-1.6-0.9-2.4-1.1
				c-1.9-0.4-3.8-0.8-5.8-0.7c-3.8,0.1-7.7,0.4-11.5,0.7c-2.3,0.2-4.6,0.7-6.8,1.2C227.8-636.1,226-635.1,224.5-633.6z M290.6-687.4
				c-3.4,3.8-5.2,8.3-5.7,13.3c-0.1,1,0,2.1,0.3,3.1c0.4,1.5,1.6,2.3,3.2,2.4c1.6,0.1,3-0.5,4.3-1.6c1.3-1.1,1.9-2.5,2.6-4
				c1.2-3.1,3.4-5.3,6.5-6.5c1-0.4,2-0.7,2.9-1.2c0.9-0.4,1.8-0.9,2.6-1.5c1.8-1.3,2-3.1,0.6-4.8c-0.3-0.3-0.6-0.6-0.9-0.9
				c-1.5-1.2-3.2-2-5-2.5c-1.9-0.6-3.8-0.5-5.6,0.3C294.1-690.4,292.2-689.2,290.6-687.4z M300.1-638.9c-0.7,0.6-1.2,1.7-1.4,2.8
				c-0.7,2.9,1.1,4.7,4,4.1c0.4-0.1,0.7-0.2,1.1-0.3c0.5-0.1,1-0.2,1.5-0.3c7.7-0.5,14.9,0.9,21.5,5c0.8,0.5,1.7,0.9,2.6,1.2
				c1.4,0.5,2.9,0.5,4.3-0.2c1.1-0.6,1.5-1.5,1.1-2.6c-0.2-0.7-0.6-1.3-1-1.8c-1.4-1.8-3.4-2.9-5.4-3.9c-4.7-2.4-9.6-4.3-14.6-5.8
				c-2.4-0.7-4.9-1-7.4-0.8C304-641.4,301.9-640.8,300.1-638.9z M301.9-595.7c0,0-0.1,0.1-0.1,0.1c2.1,1.6,4.1,3.3,6.3,4.8
				c2.9,1.9,6.2,2.9,9.6,3.3c0.9,0.1,2,0.3,2.4-0.7c0.4-1-0.5-1.7-1.2-2.2c-0.8-0.7-1.7-1.4-2.6-2c-4.1-2.8-8.2-5.6-12.4-8.3
				c-2.6-1.8-5.4-3.4-8.3-4.5c-0.8-0.3-1.6-0.5-2.5-0.5c-0.7,0-1.4,0.3-2,0.6c-0.7,0.4-0.6,1.2,0.1,1.6c0.4,0.2,0.9,0.4,1.3,0.5
				c1.7,0.5,3.2,1.3,4.5,2.6C298.8-598.8,300.4-597.3,301.9-595.7z M282.4-578.6C282.5-578.7,282.5-578.7,282.4-578.6
				c0.6,0.4,1,0.9,1.5,1.3c1.2,1,2.5,1.9,4.1,2.2c2.1,0.4,3.7-1.3,3-3.3c-0.3-0.8-0.8-1.7-1.4-2.2c-0.9-0.9-2-1.6-3.1-2.3
				c-2-1.2-4.2-1.8-6.5-2.3c-1.1-0.2-1.8,0.5-1.4,1.6c0.2,0.7,0.6,1.3,1,1.8C280.5-580.7,281.5-579.7,282.4-578.6z M188.4-637.4
				c-0.1,0-0.2,0-0.3,0c-0.1,0.1-0.1,0.2-0.1,0.4c0.1,0,0.3,0,0.3,0C188.5-637.1,188.4-637.3,188.4-637.4z"/>
		</g>
		<g>
			<g id="lYSiho.tif_00000048484585416050130530000007103673748496870562_">
				<path class="st2" d="M54.2-562.6c1.2-3,2.3-5.5,3.1-8.1c1.1-3.2-0.2-5.3-3.4-6.2c-0.6-0.2-1.3-0.3-1.9-0.7
					c-3.8-2.9-8-2.3-12.1-1.1c-2.3,0.7-4.7,1.3-7.1,1.4c-9.6,0.6-17.5-5.1-19.8-14.8c-1.6-6.9-3-13.8-4.6-20.7
					C7.2-617.8,7.7-623,9-628.2c1.3-4.8,2-9.6,1.9-14.5c0-2.2-0.3-5,2.2-5.9c2.7-0.9,4.2,1.8,5.4,3.6c5.5,9.1,9.1,18.7,6.7,29.6
					c-0.4,2-0.2,3.7,1,5.4c1.4,1.9,1.7,4.1,1.7,6.4c0.1,4.8,1.8,6.3,6.5,5.6c10.2-1.4,19.4,3.8,23.2,13.4c1.1,2.9,0.6,6.1,2,9.3
					c3.4-6.1,8-11,12.3-16.1c1.8-2.1,0.7-4.5-1.9-5.1c-1.5-0.3-3-0.3-4.4-0.6c-3.9-0.9-7-3-9.6-6c-1.1-1.2-2.2-1.8-3.9-1.2
					c-3.1,1-5.9,0.1-8.4-1.8c-2.2-1.7-4.4-3.1-7-4.2c-3.3-1.3-5.1-3.7-4.8-5.7c0.3-2.1,2.5-3.7,6.2-4.1c2.5-0.2,5-0.3,7.5,0
					c2.9,0.3,5.8,0.5,8.7,0.4c5.5-0.2,9.5,2.2,12.1,6.9c1.5,2.8,3.1,5.5,5.5,7.7c1.4,1.3,1.9,3.1,2.3,4.9c0.3,1.4,0.5,2.9,0.8,4.7
					c1.7-2.1,2.8-4.1,3.4-6.3c1.7-5.4,2.6-11,2.8-16.7c0.1-4.8-3.4-8.3-8.2-8c-4.1,0.3-7.8-0.5-11-3.1c-2.5-2-5-1.8-7.9-0.7
					c-10.2,4-19.9,1.8-27.5-6.2c-3-3.1-4.6-6.9-5.7-10.9c-0.7-2.6-1.6-5.2-2.9-7.7c-2.3-3.9-0.8-6.6,3.8-6.9
					c5.5-0.4,10.5,1.3,15.2,4c0.3,0.2,0.6,0.3,0.8,0.5c4.7,4.1,10.1,4.7,16.1,3.8c7.6-1.2,13.6,2.1,18.5,7.7
					c4.5,5.2,6.6,11.7,8.6,18.1c0.2,0.7,0.4,1.4,0.9,2.2c0.1-3.7,1.4-7.1,1.8-10.8c0.4-3.8,0.6-7.6,1-11.4c0.5-6-2.6-10.5-8.3-12.3
					c-2.5-0.8-5.1-0.9-7.6-1.3c-4.3-0.6-8.3-2.2-11.5-5c-3.9-3.3-8-4.3-12.9-2.8c-2.1,0.6-4.4,0.8-6.7,0.7c-2.7-0.2-5.3-1-7.3-2.8
					c-7.4-6.7-13.7-14-15.5-24.4c-0.5-3.2-2.2-6.1-3.9-8.9c-0.8-1.3-1.7-2.8-0.4-4.4c1.2-1.4,2.8-1.2,4.4-0.7
					c5.5,1.7,9.4,5.5,12.6,10.1c2.8,4.1,5.3,8.5,9.4,11.5c2.2,1.6,4.5,2.5,7.1,2.5c5,0.1,9.7,1.3,13.8,4.3c3.8,2.8,8,4.1,12.8,4.2
					c9.3,0.2,16.6,8.2,17,18.2c0.2,4.9-0.4,9.8-0.8,15c2.8-3,4.4-6.1,4.6-10c0.1-3.2,0.5-6.3,0.6-9.5c0.1-5.4-3.1-10-8.2-11.9
					c-2.8-1.1-5.7-1.9-8.6-2.4c-9.9-1.6-16.3-7.2-19.9-16.5c-1.6-4.1-3.1-8.3-6.5-11.4c-1.1-1-2.3-1.9-3.8-2.3
					c-5.3-1.5-10.1-3.8-14.4-7.3c-2.2-1.8-4.7-3.1-7.3-4.3c-1.2-0.6-2.4-1.2-3.5-1.9c-1.8-1.2-3.2-2.7-3-5.1
					c0.3-2.3,1.8-3.7,3.8-4.5c4.6-1.7,9.1-0.9,13.1,1.6c3.1,1.8,5.8,4.2,8.7,6.2c2.1,1.5,4.3,2.9,6.9,3.5
					c10.6,2.3,17.4,9.4,22.6,18.2c2.9,4.9,6.3,9,11.5,11.7c5.7,3,8.3,8.5,9.7,14.5c1.7,7.3,1.3,14.7,0.5,22.1
					c3.8-5.1,8.9-9.4,9.7-16.3c0.3-2.3-0.1-4.3-2.1-5.7c-1.4-1-2.7-2.2-4-3.3c-4.4-3.7-6.4-8.4-5.5-14c1.4-8.9,0.5-17.5-0.8-26.3
					c-0.7-4.7,0.3-9.3,3-13.3c0.7-1,1.4-1.8,2.4-2.5c3.8-2.6,7.9-0.8,8.3,3.8c0.2,2.5,0,5-0.8,7.4c-1,3.2-0.9,6.4,0.3,9.5
					c3,7.3,2.4,14.5-0.5,21.6c-1.3,3.2-1.6,6.1-0.2,9.4c1.5,3.5,1.4,7.3,1.8,11.4c1.2-1.9,2.4-3.4,2.9-5.2c1.7-5.5,2.6-11.1,2-17
					c-0.4-3.7,0.6-7.1,2.7-10.1c2.6-3.7,5-7.4,5.7-12.1c0.4-2.4,0.2-4.8,0.1-7.2c-0.2-3.9,0.5-7.6,3.6-10.5
					c4.2-3.8,9.7-2.2,11.4,3.2c0.9,2.9,0.5,5.8,0,8.6c-0.6,3.7-1.1,7.4-0.2,11.1c1.2,5.1-0.6,9.3-4.1,12.7c-4.4,4.2-7.6,9-10,14.4
					c-1.6,3.5-4.1,6.3-7.8,7.7c-1.2,0.5-2.1,1.3-2.9,2.3c-2,2.7-3.5,5.6-5,9.2c3.4-1.7,6.1-3.6,8.5-6c3.4-3.3,7.3-5.5,12-6.1
					c7.8-1,11-4.8,11.6-13.4c0.7-9.6,4.5-17.6,11.3-24.3c1.7-1.6,3.6-2.9,5.6-4.2c1.8-1.2,3.5-2.5,5.1-4c2.2-2.3,4.8-1.7,6,1.3
					c1,2.6,0.8,5.3,0.1,7.9c-0.9,3.3-2.3,6.5-4.5,9.1c-3.7,4.5-5.4,9.7-6,15.3c-0.2,2.2-0.4,4.4-1.5,6.3c-3,5.4-5.2,11.1-7.7,16.7
					c-1.9,4.3-5.3,7-9.9,8.1c-4.1,1-8.3,1.8-12.5,2.6c-3.5,0.7-6.1-0.6-8.1-3.5c-3.8-5.5-6.1-5.9-11.5-1.9c-0.9,0.6-1.7,1.4-2.4,2.2
					c-2.9,3.5-5.8,7.1-8.6,10.7c-3,3.9-4.7,8.4-6,13c0.4,0.4,0.7,0.1,0.9-0.1c3.5-4.1,8-6.6,13.3-7.8c3.7-0.9,6.7-3.1,9.6-5.6
					c2.2-1.9,4.6-3.3,7.5-3.8c3.1-0.5,5.7,1.8,5.3,4.9c-0.3,3-1.1,5.9-2.5,8.6c-1.5,2.8-3.9,4.7-7,5c-3.1,0.3-5.8,1.5-8.3,3.2
					c-3.5,2.4-6.8,2.2-10.2-0.2c-0.5-0.3-1-0.7-1.5-1c-3.9-2.4-7.8-0.8-8.5,3.9c-0.8,5.2-1.2,10.5-1.8,16.6c1.4-2.2,2.4-3.7,3.5-5.3
					c1.2-1.8,2.4-3.6,3.8-5.3c4.4-5,9.9-6.1,16.3-4.5c9.1,2.3,18.8-1.6,24.1-9.3c1.2-1.7,2.2-3.6,2.8-5.5
					c2.6-7.8,7.6-13.6,14.6-17.7c2.7-1.6,4.1-3.8,5.2-6.6c2.3-5.9,3.7-12.1,7.2-17.5c1.2-1.9,2.5-3.7,4.4-5c3-2.1,6.4-1.1,7,2.4
					c1.4,7.9,3.3,15.9-1.4,23.5c-1.1,1.8-1.8,3.9-2.4,6c-1.3,4.4-4.4,7.3-8.2,9.3c-6,3.2-9.5,7.7-10,14.6
					c-0.7,8.8-5.9,14.2-14.2,16.7c-0.8,0.3-1.5,0.6-2,1.4c-3.8,5.6-9.3,8.4-15.8,9.5c-4.7,0.8-9.4,1.3-14.1,0.8
					c-3.8-0.5-7.3-1.8-9.9-4.7c-0.2-0.2-0.5-0.5-0.7-0.7c-5.6-5.4-8.2-3.6-10.5,2.2c-2.3,5.5-3.9,11.3-8.2,16.1
					c2.2-0.4,2.5-0.7,4.6-3.3c3.5-4.4,7.9-7.3,13.6-8c3.5-0.4,7,0.2,10.3,1.2c6.6,2,13,1.3,19.1-1.7c2.4-1.2,4.8-1.8,7.4-2
					c3.7-0.2,7.4-0.4,11.1-1.4c2.3-0.6,4,1.3,3.2,3.6c-1.4,3.7-2.6,7.6-4.7,11c-1.6,2.7-4.3,4.1-7.2,5c-9.5,3-19.1,3.1-28.9,1.8
					c-2.2-0.3-4.2-1.6-6-2.9c-3.2-2.3-6.7-3-10.4-1.9c-3.6,1-7.2,1-10.8,1.5c-3.2,0.4-5.7,1.9-7.7,4.5c-4,5.1-7.1,10.7-9.3,16.9
					c4.8-3.8,10.2-6.3,16.3-7c3.5-0.4,6.8,0.3,10.1,0.9c6.1,1.1,12.1,0.7,18-1.3c7.4-2.5,14.8-3.1,22.2,0c2.4,1,4.8,0.2,7.1-0.4
					c9-2.4,14.8-8.6,18.8-16.6c2.1-4.2,3.9-8.5,6.6-12.3c1.1-1.5,2.2-2.9,3.7-4c2-1.5,4-0.8,4.5,1.7c0.3,1.3,0.2,2.7,0,4
					c-1.6,8.1-2.4,16.3-3.3,24.5c-1.3,11.9-10.8,21.3-22.6,22.9c-4.9,0.7-9.8,1-14.6,0c-5.2-1.1-10.2-0.4-15.3,0.2
					c-6.3,0.7-12.6,1.1-18.9,0.2c-7.2-1-13.2-4.3-18-9.7c-4.5-5.1-8.8-4.8-12.8,0.8c-4.9,6.9-4.9,14.3-2.3,21.9
					c0.2,0.4,0.3,1.1,0.9,1c0.3-0.1,0.6-0.6,0.8-0.9c5.9-10.2,14.7-13.9,26.3-11.1c3.2,0.8,6.2,2,9.1,3.5c8.2,4.1,16.4,8,24.6,12.3
					c9.2,4.8,19.3,6.7,29.3,8.8c5.1,1.1,10.2,2.4,14.8,5.2c6.8,4.2,7.3,9.1,1.4,14.5c-5.9,5.3-12.8,7.9-20.9,6
					c-5.8-1.4-11.4-3.2-16.4-6.5c-6.7-4.5-14-5.3-21.7-4.4c-11.4,1.4-18.3-2.2-23.6-12.5c-2.2-4.1-4.3-8.3-7.2-11.9
					c-1.6-1.9-3.3-3.5-5.7-4.3c-2.4-0.8-4.9-1.1-6.7,1c-1.9,2.2-2.5,4.9-1.3,7.7c1.6,3.4,3.2,6.8,4.8,10.1
					c2.4,5.2,4.2,10.7,5.4,16.3c0.3,1.3,0.9,3.5-0.5,3.8c-1.4,0.3-1.2-2-1.4-3.2c-1.1-5.8-3.3-11.3-5.9-16.7
					c-3.2-6.7-7.2-13.1-8.9-20.6c-0.9-3.9-1.6-7.8-1.6-11.8c0-4.3-3.1-6.1-6.9-3.8c-3.7,2.2-5.6,5.6-6.5,9.7c-0.6,2.6-1,5.2-1.5,7.8
					c-1.4,6.6-4.1,12.5-9.2,17.1c-3.8,3.5-7.2,7.4-8.7,12.5c-0.2,0.5-0.5,1-0.8,1.5c-1.1,1.7-2.4,3.1-4.6,3
					c-2.2-0.1-3.4-1.7-4.1-3.6c-2.1-6.4-3-13-1.2-19.6c1.1-3.9,3.6-6.8,6.8-8.9c3.8-2.6,6.4-5.9,7.8-10.3c1.8-5.5,3.4-11,6.1-16.1
					c1.2-2.3,2.8-4.3,4.9-5.9c6-4.5,13-3.1,16.9,3.3C52.7-565.7,53.3-564.3,54.2-562.6z"/>
			</g>
		</g>
	</g>
</pattern>
<rect y="0" class="st3" width="2267.7" height="5669.3"/>
<rect class="st4" width="2267.7" height="5669.3"/>
<path class="st1" d="M-1275.3,4032.2c-0.7,0.1-1.3,0.1-2,0.2c-8.1,1.7-14.7,5.8-20.2,11.9c-4.8,5.4-8,11.6-10.3,18.4
	c-2.6,7.7-4.1,15.6-4.4,23.7c-0.2,4.9,0.6,9.8,1.4,14.7c0.2,1,0.3,2.1-0.1,3.2c-0.8-0.1-1.1-0.7-1.4-1.3c-0.7-1.5-1.4-3-2-4.5
	c-1.5-3.6-3-7.1-4.4-10.7c-2.4-5.9-6.2-10.7-10.8-15c-4.4-4.1-8.4-8.6-11.4-13.9c-3.9-6.9-7-14-8-22c-0.8-6.7,0.3-13,3.5-19
	c4.1-7.6,9.4-14.3,15.8-20c5-4.5,10.4-8.3,16.3-11.5c5.8-3.2,12.1-5.1,18.7-5.3c6.5-0.2,12.6,1.2,17.7,5.5c1,0.8,2,1.6,3,2.4
	c1.2,0.9,2.6,1.4,4.1,1.4c1.6,0,2.7-1.1,2.5-2.7c-0.1-1.2-0.4-2.4-0.9-3.6c-1.3-3.3-2.8-6.6-4.1-9.9c-1.4-3.6-2.5-7.3-3.2-11.1
	c-1.4-7.9,1.3-14.2,6.9-19.6c4.1-3.9,9.1-6.1,14.5-7.6c6.6-1.8,13.4-2.7,20.3-3c2.9-0.1,5.7-0.2,8.6-0.1c7.7,0.3,15,2.5,21.9,5.9
	c4.1,2,8,4.4,12,6.6c4.9,2.7,10.1,4.8,15.7,6c2.8,0.6,5.7,0.5,8.6,0.4c0.8,0,1.6-0.1,2.4,0.1c0.8,0.1,1,0.9,0.3,1.4
	c-0.7,0.5-1.5,0.9-2.3,1.3c-6.5,2.9-13.2,4.7-20.3,5.5c-4.4,0.5-8.8,0.9-12.9,2.6c-7.9,3.3-15,7.7-20,14.9
	c-2.8,4.1-4.6,8.5-4.9,13.5c-0.1,1.2-0.2,2.5,1,3.9c0.3-0.7,0.6-1.2,0.8-1.7c2.9-7.6,7.4-14,13.8-19.1c3.1-2.4,6.8-3.7,10.4-5
	c6.6-2.2,13.3-3,20.2-3c13.8,0,26.5,3.9,38.3,11.1c3.8,2.3,7,5.3,9.3,9.1c1.6,2.6,2.4,5.6,3.1,8.5c1.1,4.7,2.2,9.4,4.3,13.7
	c1.4,2.9,3,5.8,4.8,8.6c1.1,1.6,2.7,2.9,4.1,4.3c0.5,0.5,1.4,0.9,1,1.7c-0.5,0.9-1.4,0.3-2.1,0.2c-6.7-1.6-13-4.3-19.4-6.6
	c-4.1-1.5-8.2-2.8-12.4-3.9c-4.4-1.2-9-1.7-13.6-1.5c-2.9,0.1-5.7,0.2-8.6,0.5c-7,0.7-13,3.7-18,8.7c-0.7,0.7-1.6,1.4-1.8,2.8
	c0.8-0.1,1.4-0.2,2-0.3c5.9-1.7,12-2.7,18.1-3.3c6.2-0.6,12.5-1,18.7-0.1c5.9,0.8,11.6,2.1,16.7,5.5c3.4,2.3,6.2,5.3,8.1,8.8
	c2.2,3.9,2.3,8.1,1.5,12.5c-0.6,3.2-1.3,6.4-1.7,9.7c-0.6,4.6,0.6,8.8,3.2,12.7c0.2,0.3,0.4,0.6,0.6,0.9c0.3,0.5,0.6,1.1,0,1.4
	c-0.3,0.1-0.8-0.2-1.2-0.3c-0.1-0.1-0.2-0.2-0.4-0.4c-4.5-4.3-9.3-8.2-14.7-11.3c-2.3-1.3-4.8-2.4-7.5-3c-5.5-1.4-10.7-0.2-15.7,2
	c-0.3,0.1-0.6,0.3-0.9,0.4c0.1,0.2,0.1,0.4,0.2,0.6c0.5,0.1,1.1,0.2,1.6,0.3c2.8,0.5,5.6,0.9,8.2,1.7c7.2,2.2,13.8,5.7,19.3,10.8
	c2,1.9,3.8,4.2,5.3,6.5c3.2,4.7,3.4,10.1,2.5,15.5c-1.2,6.9-4.1,13-7.5,19c-2.2,3.9-4,8-4.8,12.4c-1.3,6.8,0,12.9,5.2,17.8
	c0.5,0.4,0.9,0.9,1.5,1.6c-0.7,0.1-1,0.3-1.4,0.2c-1.2-0.2-2.4-0.4-3.6-0.7c-8.4-2.1-16.5-0.7-24.6,1.6c-7.1,2-14.3,3.7-21.6,4.4
	c-6.8,0.7-13.6,0.5-20.2-1.5c-11-3.3-18-13.8-18.8-23.6c-0.3-3.8-0.1-7.6,0.8-11.3c0.1-0.5,0.1-1,0.2-1.4c-0.1-0.1-0.3-0.1-0.4-0.2
	c-0.4,0.5-0.8,0.9-1.2,1.4c-3.1,4.3-4.9,9.1-6,14.3c-0.7,3.6-1.1,7.2-0.4,10.8c0.9,4.6,2.8,8.7,5.3,12.5c0.3,0.4,0.6,0.9,0.8,1.4
	c0.3,1-0.5,1.6-1.4,1.2c-0.5-0.2-0.9-0.5-1.3-0.8c-3.3-2.1-6.5-4.3-9.8-6.1c-2.1-1.2-4.5-2-6.8-2.8c-6.8-2.1-11.5-6.5-14.5-12.9
	c-1.9-4.1-3.4-8.3-3.7-12.9c-0.3-3.5,0.1-6.9,0.7-10.3c1.1-6.9,3.6-13.4,6.8-19.6c1.5-2.8,2.9-5.6,4.4-8.4c0.2-0.3,0.2-0.6,0.4-1
	c-0.8-0.5-1.3,0.1-1.8,0.4c-4.1,2.9-7.7,6.3-10.4,10.5c-3.7,5.8-5.9,12.2-6.9,19c-1.3,8.4-0.8,16.8,0.8,25.1c0.8,4,2.3,7.7,4,11.4
	c0.3,0.7,0.5,1.5,0.6,2.3c0.1,0.8-0.5,1.3-1.2,1c-0.9-0.3-1.8-0.6-2.5-1.2c-4-2.8-8.1-5.6-11.9-8.6c-3.9-3-7.8-6.1-11.3-9.5
	c-7.7-7.6-13.3-16.6-15.9-27.2c-0.9-3.6-1.1-7.3-1.1-11c0-9.5,2.7-18.3,5.6-27.2c1.6-5,3.6-9.9,6.3-14.4c3-5,7.1-9,11.7-12.4
	c1.7-1.2,3.4-2.3,5.1-3.4c0.4-0.3,0.7-0.6,1.1-0.9C-1275.2,4032.5-1275.2,4032.4-1275.3,4032.2z M-1292.7,4007.4
	c-4.1-0.5-7.9,0.4-11.5,2c-5.1,2.4-9.8,5.5-13.9,9.4c-1.3,1.2-2.5,2.7-3.3,4.3c-2.3,4.1-2,8.3,0.2,12.4c1.1,2.1,2.4,2.4,4.5,1.4
	c0.9-0.5,1.9-1,2.7-1.6c5-3.3,10-6.7,15.1-9.9c5.4-3.5,10.7-7.1,16.9-9.2c1.7-0.6,2.1-1.7,1.2-3.3c-0.9-1.5-2.2-2.5-3.8-3.3
	C-1287.1,4008.4-1289.8,4007.4-1292.7,4007.4z M-1186.1,4135.8c0,0,0.1,0,0.1,0c-0.2-1.6-0.3-3.1-0.6-4.7c-1-5.2-2.8-10.2-4.5-15.1
	c-2.2-6.2-4.7-12.2-5.9-18.7c0-0.2-0.1-0.5-0.2-0.7c-0.5-1.2-1.3-1.4-2.3-0.5c-0.2,0.2-0.4,0.4-0.6,0.6c-2.4,3.3-4.8,6.6-7,10.1
	c-1.8,2.8-2.4,6-1.7,9.4c0.5,2.3,1.1,4.5,2.3,6.4c2.1,3.5,4.3,7,6.7,10.3c1.7,2.4,3.9,4.3,6.6,5.7c0.9,0.5,1.9,0.9,2.9,1.1
	c2,0.4,3.6-0.6,4-2.7C-1186.2,4136.6-1186.2,4136.2-1186.1,4135.8z M-1275.1,4073.5c0,3.8,0.8,7.6,1.9,11.3c0.5,1.7,1.5,1.8,2.7,0.5
	c0.9-1.1,1.7-2.2,2.6-3.3c5.7-7.3,11.5-14.6,17.2-21.9c2-2.5,3.8-5.2,5.6-7.9c0.6-0.9,1-1.9,1.3-2.9c0.7-2.4-0.5-3.9-3.1-3.7
	c-1.1,0.1-2.2,0.3-3.2,0.8c-2.1,1.1-4.3,2.3-6.1,3.8c-3.6,3.1-7.1,6.3-10.4,9.6c-2,2-3.9,4.2-5.6,6.5
	C-1273.9,4068.4-1274.8,4070.8-1275.1,4073.5z M-1253.6,3970.4c-0.3,6.3,1.4,12,4.9,17.2c0.7,1,1.7,2,2.7,2.7c1.6,1.1,3.3,1,4.9-0.1
	c1.6-1.2,2.5-2.9,2.9-4.9c0.4-2-0.1-3.9-0.7-5.9c-1.2-3.9-0.9-7.7,1.2-11.3c0.7-1.1,1.3-2.2,1.9-3.4c0.5-1.1,1-2.2,1.3-3.4
	c0.7-2.6-0.5-4.5-3.2-5.1c-0.5-0.1-1-0.2-1.6-0.2c-2.4,0-4.6,0.6-6.8,1.5c-2.3,0.9-4,2.4-5.1,4.6
	C-1252.5,3964.8-1253.5,3967.5-1253.6,3970.4z M-1206.7,4009.5c-0.2,1.2,0.2,2.5,0.8,3.8c1.6,3.3,4.6,3.7,7,0.8
	c0.3-0.4,0.5-0.8,0.8-1.1c0.4-0.5,0.8-1,1.2-1.5c7-6.4,15-10.8,24.5-12c1.2-0.1,2.3-0.4,3.4-0.8c1.8-0.7,3.2-1.8,3.9-3.6
	c0.6-1.4,0.3-2.6-1-3.4c-0.7-0.5-1.6-0.8-2.4-1c-2.7-0.6-5.5-0.2-8.2,0.4c-6.3,1.4-12.5,3.3-18.5,5.9c-2.9,1.2-5.5,2.8-7.8,5
	C-1204.9,4004.1-1206.5,4006.3-1206.7,4009.5z M-1171.3,4049.5c0,0.1,0,0.2,0,0.2c3.3-0.1,6.6,0,9.8-0.3c4.3-0.4,8.2-2,11.8-4.3
	c0.9-0.6,2.2-1.3,1.8-2.5c-0.4-1.2-1.8-1.2-2.9-1.3c-1.3-0.1-2.7,0-4,0.1c-6.1,0.5-12.2,1.1-18.3,1.6c-3.9,0.4-7.8,0.9-11.5,2.2
	c-1,0.3-2,0.8-2.8,1.4c-0.6,0.5-1.1,1.3-1.4,2.1c-0.3,0.9,0.4,1.6,1.4,1.4c0.6-0.1,1.1-0.3,1.7-0.5c2-0.9,4.1-1.2,6.3-1
	C-1176.8,4048.9-1174.1,4049.2-1171.3,4049.5z M-1176.7,4081c0,0,0-0.1,0-0.1c0.8,0.1,1.6,0.2,2.4,0.2c1.9,0,3.9-0.1,5.6-1
	c2.4-1.3,2.5-4.1,0.3-5.5c-0.9-0.6-2-1-3.1-1.1c-1.6-0.1-3.1,0-4.7,0.2c-2.9,0.4-5.5,1.5-8.1,2.9c-1.3,0.7-1.3,1.8-0.1,2.6
	c0.7,0.5,1.6,0.8,2.4,1C-1180.2,4080.5-1178.5,4080.7-1176.7,4081z M-1312.6,4097.8c-0.1,0.1-0.2,0.2-0.2,0.2c0,0.1,0.1,0.3,0.2,0.4
	c0.1-0.1,0.3-0.2,0.3-0.2C-1312.4,4098.1-1312.5,4098-1312.6,4097.8z"/>
<g id="lYSiho.tif_00000016055661185170537760000013344357463367476368_">
	<path class="st2" d="M-1062.4,4133.5c1.2-3,2.3-5.5,3.1-8.1c1.1-3.2-0.2-5.3-3.4-6.2c-0.6-0.2-1.3-0.3-1.9-0.7
		c-3.8-2.9-8-2.3-12.1-1.1c-2.3,0.7-4.7,1.3-7.1,1.4c-9.6,0.6-17.5-5.1-19.8-14.8c-1.6-6.9-3-13.8-4.6-20.7
		c-1.2-5.2-0.8-10.4,0.5-15.6c1.3-4.8,2-9.6,1.9-14.5c0-2.2-0.3-5,2.2-5.9c2.7-0.9,4.2,1.8,5.4,3.6c5.5,9.1,9.1,18.7,6.7,29.6
		c-0.4,2-0.2,3.7,1,5.4c1.4,1.9,1.7,4.1,1.7,6.4c0.1,4.8,1.8,6.3,6.5,5.6c10.2-1.4,19.4,3.8,23.2,13.4c1.1,2.9,0.6,6.1,2,9.3
		c3.4-6.1,8-11,12.3-16.1c1.8-2.1,0.7-4.5-1.9-5.1c-1.5-0.3-3-0.3-4.4-0.6c-3.9-0.9-7-3-9.6-6c-1.1-1.2-2.2-1.8-3.9-1.2
		c-3.1,1-5.9,0.1-8.4-1.8c-2.2-1.7-4.4-3.1-7-4.2c-3.3-1.3-5.1-3.7-4.8-5.7c0.3-2.1,2.5-3.7,6.2-4.1c2.5-0.2,5-0.3,7.5,0
		c2.9,0.3,5.8,0.5,8.7,0.4c5.5-0.2,9.5,2.2,12.1,6.9c1.5,2.8,3.1,5.5,5.5,7.7c1.4,1.3,1.9,3.1,2.3,4.9c0.3,1.4,0.5,2.9,0.8,4.7
		c1.7-2.1,2.8-4.1,3.4-6.3c1.7-5.4,2.6-11,2.8-16.7c0.1-4.8-3.4-8.3-8.2-8c-4.1,0.3-7.8-0.5-11-3.1c-2.5-2-5-1.8-7.9-0.7
		c-10.2,4-19.9,1.8-27.5-6.2c-3-3.1-4.6-6.9-5.7-10.9c-0.7-2.6-1.6-5.2-2.9-7.7c-2.3-3.9-0.8-6.6,3.8-6.9c5.5-0.4,10.5,1.3,15.2,4
		c0.3,0.2,0.6,0.3,0.8,0.5c4.7,4.1,10.1,4.7,16.1,3.8c7.6-1.2,13.6,2.1,18.5,7.7c4.5,5.2,6.6,11.7,8.6,18.1c0.2,0.7,0.4,1.4,0.9,2.2
		c0.1-3.7,1.4-7.1,1.8-10.8c0.4-3.8,0.6-7.6,1-11.4c0.5-6-2.6-10.5-8.3-12.3c-2.5-0.8-5.1-0.9-7.6-1.3c-4.3-0.6-8.3-2.2-11.5-5
		c-3.9-3.3-8-4.3-12.9-2.8c-2.1,0.6-4.4,0.8-6.7,0.7c-2.7-0.2-5.3-1-7.3-2.8c-7.4-6.7-13.7-14-15.5-24.4c-0.5-3.2-2.2-6.1-3.9-8.9
		c-0.8-1.3-1.7-2.8-0.4-4.4c1.2-1.4,2.8-1.2,4.4-0.7c5.5,1.7,9.4,5.5,12.6,10.1c2.8,4.1,5.3,8.5,9.4,11.5c2.2,1.6,4.5,2.5,7.1,2.5
		c5,0.1,9.7,1.3,13.8,4.3c3.8,2.8,8,4.1,12.8,4.2c9.3,0.2,16.6,8.2,17,18.2c0.2,4.9-0.4,9.8-0.8,15c2.8-3,4.4-6.1,4.6-10
		c0.1-3.2,0.5-6.3,0.6-9.5c0.1-5.4-3.1-10-8.2-11.9c-2.8-1.1-5.7-1.9-8.6-2.4c-9.9-1.6-16.3-7.2-19.9-16.5
		c-1.6-4.1-3.1-8.3-6.5-11.4c-1.1-1-2.3-1.9-3.8-2.3c-5.3-1.5-10.1-3.8-14.4-7.3c-2.2-1.8-4.7-3.1-7.3-4.3c-1.2-0.6-2.4-1.2-3.5-1.9
		c-1.8-1.2-3.2-2.7-3-5.1c0.3-2.3,1.8-3.7,3.8-4.5c4.6-1.7,9.1-0.9,13.1,1.6c3.1,1.8,5.8,4.2,8.7,6.2c2.1,1.5,4.3,2.9,6.9,3.5
		c10.6,2.3,17.4,9.4,22.6,18.2c2.9,4.9,6.3,9,11.5,11.7c5.7,3,8.3,8.5,9.7,14.5c1.7,7.3,1.3,14.7,0.5,22.1c3.8-5.1,8.9-9.4,9.7-16.3
		c0.3-2.3-0.1-4.3-2.1-5.7c-1.4-1-2.7-2.2-4-3.3c-4.4-3.7-6.4-8.4-5.5-14c1.4-8.9,0.5-17.5-0.8-26.3c-0.7-4.7,0.3-9.3,3-13.3
		c0.7-1,1.4-1.8,2.4-2.5c3.8-2.6,7.9-0.8,8.3,3.8c0.2,2.5,0,5-0.8,7.4c-1,3.2-0.9,6.4,0.3,9.5c3,7.3,2.4,14.5-0.5,21.6
		c-1.3,3.2-1.6,6.1-0.2,9.4c1.5,3.5,1.4,7.3,1.8,11.4c1.2-1.9,2.4-3.4,2.9-5.2c1.7-5.5,2.6-11.1,2-17c-0.4-3.7,0.6-7.1,2.7-10.1
		c2.6-3.7,5-7.4,5.7-12.1c0.4-2.4,0.2-4.8,0.1-7.2c-0.2-3.9,0.5-7.6,3.6-10.5c4.2-3.8,9.7-2.2,11.4,3.2c0.9,2.9,0.5,5.8,0,8.6
		c-0.6,3.7-1.1,7.4-0.2,11.1c1.2,5.1-0.6,9.3-4.1,12.7c-4.4,4.2-7.6,9-10,14.4c-1.6,3.5-4.1,6.3-7.8,7.7c-1.2,0.5-2.1,1.3-2.9,2.3
		c-2,2.7-3.5,5.6-5,9.2c3.4-1.7,6.1-3.6,8.5-6c3.4-3.3,7.3-5.5,12-6.1c7.8-1,11-4.8,11.6-13.4c0.7-9.6,4.5-17.6,11.3-24.3
		c1.7-1.6,3.6-2.9,5.6-4.2c1.8-1.2,3.5-2.5,5.1-4c2.2-2.3,4.8-1.7,6,1.3c1,2.6,0.8,5.3,0.1,7.9c-0.9,3.3-2.3,6.5-4.5,9.1
		c-3.7,4.5-5.4,9.7-6,15.3c-0.2,2.2-0.4,4.4-1.5,6.3c-3,5.4-5.2,11.1-7.7,16.7c-1.9,4.3-5.3,7-9.9,8.1c-4.1,1-8.3,1.8-12.5,2.6
		c-3.5,0.7-6.1-0.6-8.1-3.5c-3.8-5.5-6.1-5.9-11.5-1.9c-0.9,0.6-1.7,1.4-2.4,2.2c-2.9,3.5-5.8,7.1-8.6,10.7c-3,3.9-4.7,8.4-6,13
		c0.4,0.4,0.7,0.1,0.9-0.1c3.5-4.1,8-6.6,13.3-7.8c3.7-0.9,6.7-3.1,9.6-5.6c2.2-1.9,4.6-3.3,7.5-3.8c3.1-0.5,5.7,1.8,5.3,4.9
		c-0.3,3-1.1,5.9-2.5,8.6c-1.5,2.8-3.9,4.7-7,5c-3.1,0.3-5.8,1.5-8.3,3.2c-3.5,2.4-6.8,2.2-10.2-0.2c-0.5-0.3-1-0.7-1.5-1
		c-3.9-2.4-7.8-0.8-8.5,3.9c-0.8,5.2-1.2,10.5-1.8,16.6c1.4-2.2,2.4-3.7,3.5-5.3c1.2-1.8,2.4-3.6,3.8-5.3c4.4-5,9.9-6.1,16.3-4.5
		c9.1,2.3,18.8-1.6,24.1-9.3c1.2-1.7,2.2-3.6,2.8-5.5c2.6-7.8,7.6-13.6,14.6-17.7c2.7-1.6,4.1-3.8,5.2-6.6
		c2.3-5.9,3.7-12.1,7.2-17.5c1.2-1.9,2.5-3.7,4.4-5c3-2.1,6.4-1.1,7,2.4c1.4,7.9,3.3,15.9-1.4,23.5c-1.1,1.8-1.8,3.9-2.4,6
		c-1.3,4.4-4.4,7.3-8.2,9.3c-6,3.2-9.5,7.7-10,14.6c-0.7,8.8-5.9,14.2-14.2,16.7c-0.8,0.3-1.5,0.6-2,1.4c-3.8,5.6-9.3,8.4-15.8,9.5
		c-4.7,0.8-9.4,1.3-14.1,0.8c-3.8-0.5-7.3-1.8-9.9-4.7c-0.2-0.2-0.5-0.5-0.7-0.7c-5.6-5.4-8.2-3.6-10.5,2.2
		c-2.3,5.5-3.9,11.3-8.2,16.1c2.2-0.4,2.5-0.7,4.6-3.3c3.5-4.4,7.9-7.3,13.6-8c3.5-0.4,7,0.2,10.3,1.2c6.6,2,13,1.3,19.1-1.7
		c2.4-1.2,4.8-1.8,7.4-2c3.7-0.2,7.4-0.4,11.1-1.4c2.3-0.6,4,1.3,3.2,3.6c-1.4,3.7-2.6,7.6-4.7,11c-1.6,2.7-4.3,4.1-7.2,5
		c-9.5,3-19.1,3.1-28.9,1.8c-2.2-0.3-4.2-1.6-6-2.9c-3.2-2.3-6.7-3-10.4-1.9c-3.6,1-7.2,1-10.8,1.5c-3.2,0.4-5.7,1.9-7.7,4.5
		c-4,5.1-7.1,10.7-9.3,16.9c4.8-3.8,10.2-6.3,16.3-7c3.5-0.4,6.8,0.3,10.1,0.9c6.1,1.1,12.1,0.7,18-1.3c7.4-2.5,14.8-3.1,22.2,0
		c2.4,1,4.8,0.2,7.1-0.4c9-2.4,14.8-8.6,18.8-16.6c2.1-4.2,3.9-8.5,6.6-12.3c1.1-1.5,2.2-2.9,3.7-4c2-1.5,4-0.8,4.5,1.7
		c0.3,1.3,0.2,2.7,0,4c-1.6,8.1-2.4,16.3-3.3,24.5c-1.3,11.9-10.8,21.3-22.6,22.9c-4.9,0.7-9.8,1-14.6,0c-5.2-1.1-10.2-0.4-15.3,0.2
		c-6.3,0.7-12.6,1.1-18.9,0.2c-7.2-1-13.2-4.3-18-9.7c-4.5-5.1-8.8-4.8-12.8,0.8c-4.9,6.9-4.9,14.3-2.3,21.9c0.2,0.4,0.3,1.1,0.9,1
		c0.3-0.1,0.6-0.6,0.8-0.9c5.9-10.2,14.7-13.9,26.3-11.1c3.2,0.8,6.2,2,9.1,3.5c8.2,4.1,16.4,8,24.6,12.3c9.2,4.8,19.3,6.7,29.3,8.8
		c5.1,1.1,10.2,2.4,14.8,5.2c6.8,4.2,7.3,9.1,1.4,14.5c-5.9,5.3-12.8,7.9-20.9,6c-5.8-1.4-11.4-3.2-16.4-6.5
		c-6.7-4.5-14-5.3-21.7-4.4c-11.4,1.4-18.3-2.2-23.6-12.5c-2.2-4.1-4.3-8.3-7.2-11.9c-1.6-1.9-3.3-3.5-5.7-4.3
		c-2.4-0.8-4.9-1.1-6.7,1c-1.9,2.2-2.5,4.9-1.3,7.7c1.6,3.4,3.2,6.8,4.8,10.1c2.4,5.2,4.2,10.7,5.4,16.3c0.3,1.3,0.9,3.5-0.5,3.8
		c-1.4,0.3-1.2-2-1.4-3.2c-1.1-5.8-3.3-11.3-5.9-16.7c-3.2-6.7-7.2-13.1-8.9-20.6c-0.9-3.9-1.6-7.8-1.6-11.8c0-4.3-3.1-6-6.9-3.8
		c-3.7,2.2-5.6,5.6-6.5,9.7c-0.6,2.6-1,5.2-1.5,7.8c-1.4,6.6-4.1,12.5-9.2,17.1c-3.8,3.5-7.2,7.4-8.7,12.5c-0.2,0.5-0.5,1-0.8,1.5
		c-1.1,1.7-2.4,3.1-4.6,3c-2.2-0.1-3.4-1.7-4.1-3.6c-2.1-6.4-3-13-1.2-19.6c1.1-3.9,3.6-6.8,6.8-8.9c3.8-2.6,6.4-5.9,7.8-10.3
		c1.8-5.5,3.4-11,6.1-16.1c1.2-2.3,2.8-4.3,4.9-5.9c6-4.5,13-3.1,16.9,3.3C-1063.9,4130.5-1063.3,4131.8-1062.4,4133.5z"/>
</g>
</svg>
