<?xml version="1.0" encoding="utf-8"?>
<!-- Generator: Adobe Illustrator 28.0.0, SVG Export Plug-In . SVG Version: 6.00 Build 0)  -->
<svg version="1.1" id="Layer_1" xmlns="http://www.w3.org/2000/svg" xmlns:xlink="http://www.w3.org/1999/xlink" x="0px" y="0px"
	 viewBox="0 0 2267.7 5669.3" style="enable-background:new 0 0 2267.7 5669.3;" xml:space="preserve">
<style type="text/css">
	.st0{fill:none;}
	.st1{fill:#98BE3C;}
	.st2{fill:#C5DC6E;}
	.st3{fill:#F2E9CC;}
	.st4{opacity:0.27;fill:url(#leafs_groen);}
</style>
<pattern  x="712.9" y="2537" width="364" height="500" patternUnits="userSpaceOnUse" id="leafs_groen" viewBox="0 -621.8 364 500" style="overflow:visible;">
	<g>
		<rect y="-621.8" class="st0" width="364" height="500"/>
		<g>
			<path class="st1" d="M343.5-60.5c1.4,0.5,2.4-0.1,3.4-0.4c2.9-0.8,5.8-1.7,8.8-1.7c2.4,0,4.6,1.3,4.9,3.1c0.4,1.7-1,3.8-3.5,4.5
				c-3.6,0.9-7.3,1.6-11,2.3c-7.9,1.4-15.8,2.8-23.1,5.9c-13.7,5.7-20.8,17.6-20.5,32.9c0.1,3.3,0.8,6.6,1.2,9.9
				c0.2,1.5,0.2,2.9-1.2,3.8c-1.4,0.8-2.5,0-3.7-0.7c-1.3-0.8-2-2.1-2.9-3.4c-3.6-5.2-5.1-11.4-7.2-17.2c-1-2.7-2.6-4.7-5.2-6.1
				c-6.6-3.5-13.4-4-20.6-2.5c-2.6,0.5-5.1,0.4-7.6-0.6c-1.6-0.6-2.6-1.8-2.6-3.6c0-1.8,1.3-2.5,2.8-3.1c2.7-1,5.6-0.9,8.4-1.1
				c1.3-0.1,2.6-0.3,3.9-0.8c0.7-0.3,1.4-0.7,1.4-1.6c0-0.9-0.6-1.3-1.3-1.7c-1.6-0.8-3.3-1.2-5-1.5c-8.5-1.1-17-2.3-25.6-1.5
				c-2.7,0.3-5.5,0-8-1.3c-1.6-0.8-2.8-1.9-2.6-3.9c0.2-1.9,1.4-2.8,3.1-3.5c3.9-1.4,7.9-1,11.8-0.7c1.6,0.1,3.8,1,4.5-0.8
				c0.7-1.9-1.6-2.9-3-3.8c-3.3-2.1-6.8-3.9-10.1-5.9c-3.1-1.9-4.5-4.8-3.4-6.9c1-2,4.4-2.5,7.7-1c4.6,2.1,8.5,5.3,12.1,8.7
				c4.2,4,8.3,8.2,12.5,12.2c1.3,1.3,2.7,2.4,4.3,3.4c1.3,0.8,2.8,1.4,4.2,0.5c1.5-0.9,1.5-2.5,1.3-4c-0.1-1.3-0.4-2.7-1.1-3.8
				c-7.6-12.5-16.4-23.9-29.2-31.4c-6.6-3.8-14-5.7-21-8.4c-4.5-1.7-8.8-3.8-12.8-6.6c-0.6-0.4-1.2-0.9-1.7-1.4
				c-1.1-1.2-2.6-2.4-1.6-4.3c0.9-1.7,2.8-1.7,4.4-1.5c1.6,0.2,3.2,0.9,4.8,1.4c1.9,0.6,3.7,1.4,5.6,2c0.9,0.3,2.1,0.7,2.7-0.4
				c0.7-1.1-0.1-2.1-0.7-2.9c-1.6-2-3.6-3.7-5.6-5.3c-5.9-4.7-11.2-10.1-15.7-16.3c-3.5-4.7-6.1-9.9-8.2-15.3
				c-0.4-1-0.4-2.1-0.3-3.2c0.3-2.6,2-3.6,4.4-2.6c2.5,1,4.6,2.7,6.4,4.7c5.9,6.3,10.1,13.6,13.9,21.2c1.2,2.5,2.5,4.9,4.1,7.1
				c1,1.4,2,2.7,3.5,3.6c2.3,1.4,3.7,0.6,3.8-2c0.1-2.8-1.3-5.1-2.7-7.4c-1.8-2.8-3.7-5.5-5-8.6c-0.4-0.9-0.7-1.9-0.6-2.9
				c0-3.3,2.3-4.7,5.2-3.2c3.9,2.1,5.7,6,7,9.9c1.8,5.3,2.6,10.8,4.9,16c1.3,2.9,2.8,5.7,5.7,7.3c4,2.2,7.4,0.5,7.7-4.1
				c0.4-4.8-1.4-9-3.6-13c-4.5-8.2-10.4-15.4-16.4-22.5c-2.7-3.2-5.7-6.1-8.1-9.5c-1.8-2.5-3.4-5.1-3.6-8.3c-0.2-2,0.2-3.7,1.8-4.9
				c1.7-1.2,3.5-0.4,5.1,0.5c2.5,1.5,4.1,3.9,6.3,5.7c0.9,0.7,1.8,1.5,3,1.7c1,0.2,2,0.5,2.7-0.5c0.7-0.9,0.4-1.9-0.1-2.8
				c-1.8-3.1-4.7-5.1-7.7-6.9c-4-2.4-8.2-4.4-11.6-7.8c-3.6-3.6-5.8-7.9-6.6-12.9c-0.3-2,0-4.1,2-5.3c2.1-1.2,4.1-0.5,5.7,1.1
				c3,2.9,4.9,6.7,7.6,9.9c1,1.2,2,3.3,3.6,2.3c1.8-1.1,0.5-3-0.2-4.4c-2.2-4.6-5.6-8.7-7.1-13.7c-1.4-4.7-1.3-9.2,1.4-13.4
				c1.8-2.8,4.6-4.5,7.2-4c2.2,0.4,4.3,3.4,4.8,6.5c1.1,7.3,0.4,14.6,0.6,21.9c0.1,4.7,0.1,9.5,0.8,14.2c0.4,2.8,1.4,5.3,2.8,7.7
				c1,1.7,2.4,2.9,4.4,2.7c2.2-0.2,2.9-2.1,3.3-3.9c0.9-4,0.8-8.1,0.9-12.2c0.1-6.2-0.9-12.3-1.4-18.4c-0.4-3.9-0.2-7.8,1.5-11.5
				c1.2-2.6,3.3-4.2,5.6-3.8c2.4,0.4,3.5,2.2,4.3,4.3c1.2,3.3,0.6,6.6,0,9.8c-0.3,1.4-0.5,2.8-0.6,4.2c-0.1,0.8,0.2,1.5,1,1.9
				c0.9,0.3,1.4-0.3,1.9-0.8c2-2.3,2.8-5.1,3-8.1c0.3-4.6,0.4-9.3,0.6-13.9c0.2-2.9,1.3-5.5,2.8-7.9c0.9-1.4,2.1-2.5,3.8-2.3
				c1.8,0.2,3.2,1.4,3.8,3.2c0.9,2.4,1,4.9,0.6,7.4c-1.1,7.9-4.3,14.9-8.5,21.6c-2.5,4-5.7,7.6-6.8,12.4c-0.3,1.4-1.3,3.2,0.4,4.1
				c1.5,0.7,2.4-1,3.3-2c2.6-3,4.1-6.6,5.7-10.2c1.1-2.6,2.4-5.1,4.3-7.3c1.2-1.4,2.8-2.7,4.8-1.8c2.2,0.9,2.2,3,1.9,4.9
				c-0.7,5-3.3,9.2-6.1,13.3c-2.1,3.2-4.5,6.2-6.7,9.3c-3.4,4.8-4,10.4-4.3,15.9c-0.8,14.3-2.8,28.4-5,42.6
				c-1.8,11.7,1.1,22.4,7.1,32.5c2.3,3.9,4.1,8,7.7,10.9c1.2,1,2.5,2.2,4.2,1.5c1.7-0.7,2-2.4,2.1-4c0.6-6.4-1.1-12.4-3.8-18.1
				c-2.9-6.3-5.8-12.5-8.7-18.8c-1.4-3.1-2.1-6.3-2.1-9.7c0-1.7,0.3-3.3,1.2-4.8c1.8-2.9,4.7-3.1,6.7-0.4c1.5,2.1,2,4.5,2.3,7
				c0.4,2.7,0.6,5.4,1,8.2c0.2,1.1,0.4,2.1,0.8,3.1c0.6,1.6,1.4,3.2,3.4,3.2c2,0,2.8-1.6,3.3-3.3c1.3-3.8,1.4-7.8,0.8-11.6
				c-1.3-9-3.8-17.7-7.2-26.1c-2.1-5.3-3.8-10.8-2.3-16.8c0.9-3.5,2.6-5.3,5.3-5.5c2.2-0.1,4.4,2,5.5,5c1.5,4.2,1.5,8.5,1.4,12.8
				c0,2.2-0.2,4.5,0.3,6.7c0.4,1.7,0.9,3.6,3.1,3.6c2.1,0,3.6-1.3,4.2-3.3c1.5-4.9,1.6-10,1.6-15.1c0.1-4.2-0.6-8.5-0.1-12.7
				c0.1-1.3,0.4-2.6,0.7-3.9c0.6-2.5,2-4.5,4.6-5.1c2.7-0.5,4.8,1,6.5,2.9c2.9,3.4,3.4,7.4,3,11.7c-0.8,7.3-3.8,13.8-7.2,20.1
				c-3.8,7-7.6,14-10.8,21.3c-3.5,8.1-3.5,16.7-4.4,25.2c-1.5,13.1-2.1,26.3-3,39.5c-0.5,8.1,1.4,15.7,4.9,22.9
				c1,2.1,1.7,4.4,3.3,6.1c1.7,1.9,3.1,1.8,3.8-0.6c2.2-6.7,4.9-13.3,6.1-20.3c0.7-3.8,0.7-7.7-0.4-11.4c-3-10.4-4.4-21.1-6.2-31.8
				c-0.9-5.7-1.9-11.3-2-17c0-2.8,1-4.5,3-4.8c2.1-0.4,4.3,1.1,5,3.7c1.1,4,0.9,8.1,1.1,12.1c0.2,4.2,0.3,8.5,1.6,12.6
				c0.5,1.5,1.2,2.9,2.2,4.1c0.7,0.8,1.5,1.6,2.7,1.4c1.4-0.3,1.8-1.5,1.9-2.7c0.5-3.5-0.2-6.9-0.6-10.4c-0.7-6.2-3.6-11.7-6-17.3
				c-1-2.2-1.8-4.5-1.5-7c0.2-2.2,1.2-4.1,3.4-4.8c2.2-0.6,3.8,0.7,5,2.5c2.1,3.4,2.9,7.3,3.5,11.1c1.6,8.7,2.9,17.6,2.2,26.5
				c-0.2,3.3-0.9,6.6-1.2,9.9c-0.1,1.3-0.5,2.9,1.2,3.4c1.7,0.4,2.3-1,2.9-2.2c3.4-8.1,4.1-16.6,2.4-25.2c-0.7-3.6-3-6.6-4.4-10
				c-1.9-4.6-2.1-9.2,0.4-13.7c0.9-1.7,2.3-2.7,4.2-2.5c2,0.2,2.6,1.9,3,3.5c0.9,3.9,0.6,7.9,0.7,11.9c0.1,4-0.4,8,0.7,11.9
				c0.3,1,0.4,2.3,1.7,2.5c1.3,0.2,1.8-1,2.3-1.9c2-3.6,3.4-7.4,5-11.1c0.9-2.1,1.8-4.1,3.4-5.7c1-1,2.1-2.1,3.7-1.1
				c1.5,1,1.5,2.6,1,4c-0.6,1.6-1.5,3-2.1,4.5c-0.4,0.9-1.1,2-0.2,2.8c0.9,0.8,1.6-0.3,2.4-0.8c1.3-0.7,2.8-1.1,4.3-1.4
				c1.8-0.3,3.4,0.3,4.3,1.9c0.9,1.5,0.2,3-0.8,4.2c-2,2.5-4.5,4.5-7.3,6c-6.7,3.6-11.6,8.8-15.1,15.4c-1.6,3.1-3.8,5.8-6.1,8.5
				c-1.1,1.3-2.2,2.5-2.7,4.1c-0.7,2-0.7,3.9,0.9,5.3c1.6,1.4,3.5,1.2,5.4,0.5c4.3-1.6,6.8-5.1,9.5-8.5c3.4-4.2,6.5-8.6,10.5-12.3
				c1.1-1,2.4-1.7,3.9-2.1c1.7-0.4,3.4-0.4,4.6,1.1c1.3,1.6,1.7,3.4,0.9,5.4c-0.8,1.8-1.8,3.5-3.3,4.9c-2.8,2.5-5.6,5-8.4,7.5
				C345.1-62.8,344.1-61.9,343.5-60.5z"/>
		</g>
		<g>
			<g id="lYSiho.tif_00000055679316174269315540000002939742470673545652_">
				<path class="st2" d="M54.2-70.8c1.2-3,2.3-5.5,3.1-8.1c1.1-3.2-0.2-5.3-3.4-6.2c-0.6-0.2-1.3-0.3-1.9-0.7
					c-3.8-2.9-8-2.3-12.1-1.1c-2.3,0.7-4.7,1.3-7.1,1.4c-9.6,0.6-17.5-5.1-19.8-14.8c-1.6-6.9-3-13.8-4.6-20.7
					C7.2-126,7.7-131.3,9-136.4c1.3-4.8,2-9.6,1.9-14.5c0-2.2-0.3-5,2.2-5.9c2.7-0.9,4.2,1.8,5.4,3.6c5.5,9.1,9.1,18.7,6.7,29.6
					c-0.4,2-0.2,3.7,1,5.4c1.4,1.9,1.7,4.1,1.7,6.4c0.1,4.8,1.8,6.3,6.5,5.6c10.2-1.4,19.4,3.8,23.2,13.4c1.1,2.9,0.6,6.1,2,9.3
					c3.4-6.1,8-11,12.3-16.1c1.8-2.1,0.7-4.5-1.9-5.1c-1.5-0.3-3-0.3-4.4-0.6c-3.9-0.9-7-3-9.6-6c-1.1-1.2-2.2-1.8-3.9-1.2
					c-3.1,1-5.9,0.1-8.4-1.8c-2.2-1.7-4.4-3.1-7-4.2c-3.3-1.3-5.1-3.7-4.8-5.7c0.3-2.1,2.5-3.7,6.2-4.1c2.5-0.2,5-0.3,7.5,0
					c2.9,0.3,5.8,0.5,8.7,0.4c5.5-0.2,9.5,2.2,12.1,6.9c1.5,2.8,3.1,5.5,5.5,7.7c1.4,1.3,1.9,3.1,2.3,4.9c0.3,1.4,0.5,2.9,0.8,4.7
					c1.7-2.1,2.8-4.1,3.4-6.3c1.7-5.4,2.6-11,2.8-16.7c0.1-4.8-3.4-8.3-8.2-8c-4.1,0.3-7.8-0.5-11-3.1c-2.5-2-5-1.8-7.9-0.7
					c-10.2,4-19.9,1.8-27.5-6.2c-3-3.1-4.6-6.9-5.7-10.9c-0.7-2.6-1.6-5.2-2.9-7.7c-2.3-3.9-0.8-6.6,3.8-6.9
					c5.5-0.4,10.5,1.3,15.2,4c0.3,0.2,0.6,0.3,0.8,0.5c4.7,4.1,10.1,4.7,16.1,3.8c7.6-1.2,13.6,2.1,18.5,7.7
					c4.5,5.2,6.6,11.7,8.6,18.1c0.2,0.7,0.4,1.4,0.9,2.2c0.1-3.7,1.4-7.1,1.8-10.8c0.4-3.8,0.6-7.6,1-11.4c0.5-6-2.6-10.5-8.3-12.3
					c-2.5-0.8-5.1-0.9-7.6-1.3c-4.3-0.6-8.3-2.2-11.5-5c-3.9-3.3-8-4.3-12.9-2.8c-2.1,0.6-4.4,0.8-6.7,0.7c-2.7-0.2-5.3-1-7.3-2.8
					c-7.4-6.7-13.7-14-15.5-24.4c-0.5-3.2-2.2-6.1-3.9-8.9c-0.8-1.3-1.7-2.8-0.4-4.4c1.2-1.4,2.8-1.2,4.4-0.7
					c5.5,1.7,9.4,5.5,12.6,10.1c2.8,4.1,5.3,8.5,9.4,11.5c2.2,1.6,4.5,2.5,7.1,2.5c5,0.1,9.7,1.3,13.8,4.3c3.8,2.8,8,4.1,12.8,4.2
					c9.3,0.2,16.6,8.2,17,18.2c0.2,4.9-0.4,9.8-0.8,15c2.8-3,4.4-6.1,4.6-10c0.1-3.2,0.5-6.3,0.6-9.5c0.1-5.4-3.1-10-8.2-11.9
					c-2.8-1.1-5.7-1.9-8.6-2.4c-9.9-1.6-16.3-7.2-19.9-16.5c-1.6-4.1-3.1-8.3-6.5-11.4c-1.1-1-2.3-1.9-3.8-2.3
					c-5.3-1.5-10.1-3.8-14.4-7.3c-2.2-1.8-4.7-3.1-7.3-4.3c-1.2-0.6-2.4-1.2-3.5-1.9c-1.8-1.2-3.2-2.7-3-5.1
					c0.3-2.3,1.8-3.7,3.8-4.5c4.6-1.7,9.1-0.9,13.1,1.6c3.1,1.8,5.8,4.2,8.7,6.2c2.1,1.5,4.3,2.9,6.9,3.5
					c10.6,2.3,17.4,9.4,22.6,18.2c2.9,4.9,6.3,9,11.5,11.7c5.7,3,8.3,8.5,9.7,14.5c1.7,7.3,1.3,14.7,0.5,22.1
					c3.8-5.1,8.9-9.4,9.7-16.3c0.3-2.3-0.1-4.3-2.1-5.7c-1.4-1-2.7-2.2-4-3.3c-4.4-3.7-6.4-8.4-5.5-14c1.4-8.9,0.5-17.5-0.8-26.3
					c-0.7-4.7,0.3-9.3,3-13.3c0.7-1,1.4-1.8,2.4-2.5c3.8-2.6,7.9-0.8,8.3,3.8c0.2,2.5,0,5-0.8,7.4c-1,3.2-0.9,6.4,0.3,9.5
					c3,7.3,2.4,14.5-0.5,21.6c-1.3,3.2-1.6,6.1-0.2,9.4c1.5,3.5,1.4,7.3,1.8,11.4c1.2-1.9,2.4-3.4,2.9-5.2c1.7-5.5,2.6-11.1,2-17
					c-0.4-3.7,0.6-7.1,2.7-10.1c2.6-3.7,5-7.4,5.7-12.1c0.4-2.4,0.2-4.8,0.1-7.2c-0.2-3.9,0.5-7.6,3.6-10.5
					c4.2-3.8,9.7-2.2,11.4,3.2c0.9,2.9,0.5,5.8,0,8.6c-0.6,3.7-1.1,7.4-0.2,11.1c1.2,5.1-0.6,9.3-4.1,12.7c-4.4,4.2-7.6,9-10,14.4
					c-1.6,3.5-4.1,6.3-7.8,7.7c-1.2,0.5-2.1,1.3-2.9,2.3c-2,2.7-3.5,5.6-5,9.2c3.4-1.7,6.1-3.6,8.5-6c3.4-3.3,7.3-5.5,12-6.1
					c7.8-1,11-4.8,11.6-13.4c0.7-9.6,4.5-17.6,11.3-24.3c1.7-1.6,3.6-2.9,5.6-4.2c1.8-1.2,3.5-2.5,5.1-4c2.2-2.3,4.8-1.7,6,1.3
					c1,2.6,0.8,5.3,0.1,7.9c-0.9,3.3-2.3,6.5-4.5,9.1c-3.7,4.5-5.4,9.7-6,15.3c-0.2,2.2-0.4,4.4-1.5,6.3c-3,5.4-5.2,11.1-7.7,16.7
					c-1.9,4.3-5.3,7-9.9,8.1c-4.1,1-8.3,1.8-12.5,2.6c-3.5,0.7-6.1-0.6-8.1-3.5c-3.8-5.5-6.1-5.9-11.5-1.9c-0.9,0.6-1.7,1.4-2.4,2.2
					c-2.9,3.5-5.8,7.1-8.6,10.7c-3,3.9-4.7,8.4-6,13c0.4,0.4,0.7,0.1,0.9-0.1c3.5-4.1,8-6.6,13.3-7.8c3.7-0.9,6.7-3.1,9.6-5.6
					c2.2-1.9,4.6-3.3,7.5-3.8c3.1-0.5,5.7,1.8,5.3,4.9c-0.3,3-1.1,5.9-2.5,8.6c-1.5,2.8-3.9,4.7-7,5c-3.1,0.3-5.8,1.5-8.3,3.2
					c-3.5,2.4-6.8,2.2-10.2-0.2c-0.5-0.3-1-0.7-1.5-1c-3.9-2.4-7.8-0.8-8.5,3.9c-0.8,5.2-1.2,10.5-1.8,16.6c1.4-2.2,2.4-3.7,3.5-5.3
					c1.2-1.8,2.4-3.6,3.8-5.3c4.4-5,9.9-6.1,16.3-4.5c9.1,2.3,18.8-1.6,24.1-9.3c1.2-1.7,2.2-3.6,2.8-5.5
					c2.6-7.8,7.6-13.6,14.6-17.7c2.7-1.6,4.1-3.8,5.2-6.6c2.3-5.9,3.7-12.1,7.2-17.5c1.2-1.9,2.5-3.7,4.4-5c3-2.1,6.4-1.1,7,2.4
					c1.4,7.9,3.3,15.9-1.4,23.5c-1.1,1.8-1.8,3.9-2.4,6c-1.3,4.4-4.4,7.3-8.2,9.3c-6,3.2-9.5,7.7-10,14.6
					c-0.7,8.8-5.9,14.2-14.2,16.7c-0.8,0.3-1.5,0.6-2,1.4c-3.8,5.6-9.3,8.4-15.8,9.5c-4.7,0.8-9.4,1.3-14.1,0.8
					c-3.8-0.5-7.3-1.8-9.9-4.7c-0.2-0.2-0.5-0.5-0.7-0.7c-5.6-5.4-8.2-3.6-10.5,2.2c-2.3,5.5-3.9,11.3-8.2,16.1
					c2.2-0.4,2.5-0.7,4.6-3.3c3.5-4.4,7.9-7.3,13.6-8c3.5-0.4,7,0.2,10.3,1.2c6.6,2,13,1.3,19.1-1.7c2.4-1.2,4.8-1.8,7.4-2
					c3.7-0.2,7.4-0.4,11.1-1.4c2.3-0.6,4,1.3,3.2,3.6c-1.4,3.7-2.6,7.6-4.7,11c-1.6,2.7-4.3,4.1-7.2,5c-9.5,3-19.1,3.1-28.9,1.8
					c-2.2-0.3-4.2-1.6-6-2.9c-3.2-2.3-6.7-3-10.4-1.9c-3.6,1-7.2,1-10.8,1.5c-3.2,0.4-5.7,1.9-7.7,4.5c-4,5.1-7.1,10.7-9.3,16.9
					c4.8-3.8,10.2-6.3,16.3-7c3.5-0.4,6.8,0.3,10.1,0.9c6.1,1.1,12.1,0.7,18-1.3c7.4-2.5,14.8-3.1,22.2,0c2.4,1,4.8,0.2,7.1-0.4
					c9-2.4,14.8-8.6,18.8-16.6c2.1-4.2,3.9-8.5,6.6-12.3c1.1-1.5,2.2-2.9,3.7-4c2-1.5,4-0.8,4.5,1.7c0.3,1.3,0.2,2.7,0,4
					c-1.6,8.1-2.4,16.3-3.3,24.5c-1.3,11.9-10.8,21.3-22.6,22.9c-4.9,0.7-9.8,1-14.6,0c-5.2-1.1-10.2-0.4-15.3,0.2
					c-6.3,0.7-12.6,1.1-18.9,0.2c-7.2-1-13.2-4.3-18-9.7c-4.5-5.1-8.8-4.8-12.8,0.8C55-63.1,54.9-55.7,57.5-48
					c0.2,0.4,0.3,1.1,0.9,1c0.3-0.1,0.6-0.6,0.8-0.9C65.1-58.1,73.9-61.8,85.5-59c3.2,0.8,6.2,2,9.1,3.5c8.2,4.1,16.4,8,24.6,12.3
					c9.2,4.8,19.3,6.7,29.3,8.8c5.1,1.1,10.2,2.4,14.8,5.2c6.8,4.2,7.3,9.1,1.4,14.5c-5.9,5.3-12.8,7.9-20.9,6
					c-5.8-1.4-11.4-3.2-16.4-6.5c-6.7-4.5-14-5.3-21.7-4.4C94-18.4,87.2-22,81.8-32.2c-2.2-4.1-4.3-8.3-7.2-11.9
					c-1.6-1.9-3.3-3.5-5.7-4.3c-2.4-0.8-4.9-1.1-6.7,1c-1.9,2.2-2.5,4.9-1.3,7.7c1.6,3.4,3.2,6.8,4.8,10.1
					c2.4,5.2,4.2,10.7,5.4,16.3c0.3,1.3,0.9,3.5-0.5,3.8c-1.4,0.3-1.2-2-1.4-3.2c-1.1-5.8-3.3-11.3-5.9-16.7
					c-3.2-6.7-7.2-13.1-8.9-20.6c-0.9-3.9-1.6-7.8-1.6-11.8c0-4.3-3.1-6.1-6.9-3.8c-3.7,2.2-5.6,5.6-6.5,9.7c-0.6,2.6-1,5.2-1.5,7.8
					c-1.4,6.6-4.1,12.5-9.2,17.1c-3.8,3.5-7.2,7.4-8.7,12.5c-0.2,0.5-0.5,1-0.8,1.5c-1.1,1.7-2.4,3.1-4.6,3
					c-2.2-0.1-3.4-1.7-4.1-3.6c-2.1-6.4-3-13-1.2-19.6c1.1-3.9,3.6-6.8,6.8-8.9c3.8-2.6,6.4-5.9,7.8-10.3c1.8-5.5,3.4-11,6.1-16.1
					c1.2-2.3,2.8-4.3,4.9-5.9c6-4.5,13-3.1,16.9,3.3C52.7-73.9,53.3-72.5,54.2-70.8z"/>
			</g>
		</g>
		<g>
			<g id="lYSiho.tif_00000173126391229786177330000014917278224924070817_">
				<path class="st2" d="M236.2-320.8c1.2-3,2.3-5.5,3.1-8.1c1.1-3.2-0.2-5.3-3.4-6.2c-0.6-0.2-1.3-0.3-1.9-0.7
					c-3.8-2.9-8-2.3-12.1-1.1c-2.3,0.7-4.7,1.3-7.1,1.4c-9.6,0.6-17.5-5.1-19.8-14.8c-1.6-6.9-3-13.8-4.6-20.7
					c-1.2-5.2-0.8-10.4,0.5-15.6c1.3-4.8,2-9.6,1.9-14.5c0-2.2-0.3-5,2.2-5.9c2.7-0.9,4.2,1.8,5.4,3.6c5.5,9.1,9.1,18.7,6.7,29.6
					c-0.4,2-0.2,3.7,1,5.4c1.4,1.9,1.7,4.1,1.7,6.4c0.1,4.8,1.8,6.3,6.5,5.6c10.2-1.4,19.4,3.8,23.2,13.4c1.1,2.9,0.6,6.1,2,9.3
					c3.4-6.1,8-11,12.3-16.1c1.8-2.1,0.7-4.5-1.9-5.1c-1.5-0.3-3-0.3-4.4-0.6c-3.9-0.9-7-3-9.6-6c-1.1-1.2-2.2-1.8-3.9-1.2
					c-3.1,1-5.9,0.1-8.4-1.8c-2.2-1.7-4.4-3.1-7-4.2c-3.3-1.3-5.1-3.7-4.8-5.7c0.3-2.1,2.5-3.7,6.2-4.1c2.5-0.2,5-0.3,7.5,0
					c2.9,0.3,5.8,0.5,8.7,0.4c5.5-0.2,9.5,2.2,12.1,6.9c1.5,2.8,3.1,5.5,5.5,7.7c1.4,1.3,1.9,3.1,2.3,4.9c0.3,1.4,0.5,2.9,0.8,4.7
					c1.7-2.1,2.8-4.1,3.4-6.3c1.7-5.4,2.6-11,2.8-16.7c0.1-4.8-3.4-8.3-8.2-8c-4.1,0.3-7.8-0.5-11-3.1c-2.5-2-5-1.8-7.9-0.7
					c-10.2,4-19.9,1.8-27.5-6.2c-3-3.1-4.6-6.9-5.7-10.9c-0.7-2.6-1.6-5.2-2.9-7.7c-2.3-3.9-0.8-6.6,3.8-6.9
					c5.5-0.4,10.5,1.3,15.2,4c0.3,0.2,0.6,0.3,0.8,0.5c4.7,4.1,10.1,4.7,16.1,3.8c7.6-1.2,13.6,2.1,18.5,7.7
					c4.5,5.2,6.6,11.7,8.6,18.1c0.2,0.7,0.4,1.4,0.9,2.2c0.1-3.7,1.4-7.1,1.8-10.8c0.4-3.8,0.6-7.6,1-11.4c0.5-6-2.6-10.5-8.3-12.3
					c-2.5-0.8-5.1-0.9-7.6-1.3c-4.3-0.6-8.3-2.2-11.5-5c-3.9-3.3-8-4.3-12.9-2.8c-2.1,0.6-4.4,0.8-6.7,0.7c-2.7-0.2-5.3-1-7.3-2.8
					c-7.4-6.7-13.7-14-15.5-24.4c-0.5-3.2-2.2-6.1-3.9-8.9c-0.8-1.3-1.7-2.8-0.4-4.4c1.2-1.4,2.8-1.2,4.4-0.7
					c5.5,1.7,9.4,5.5,12.6,10.1c2.8,4.1,5.3,8.5,9.4,11.5c2.2,1.6,4.5,2.5,7.1,2.5c5,0.1,9.7,1.3,13.8,4.3c3.8,2.8,8,4.1,12.8,4.2
					c9.3,0.2,16.6,8.2,17,18.2c0.2,4.9-0.4,9.8-0.8,15c2.8-3,4.4-6.1,4.6-10c0.1-3.2,0.5-6.3,0.6-9.5c0.1-5.4-3.1-10-8.2-11.9
					c-2.8-1.1-5.7-1.9-8.6-2.4c-9.9-1.6-16.3-7.2-19.9-16.5c-1.6-4.1-3.1-8.3-6.5-11.4c-1.1-1-2.3-1.9-3.8-2.3
					c-5.3-1.5-10.1-3.8-14.4-7.3c-2.2-1.8-4.7-3.1-7.3-4.3c-1.2-0.6-2.4-1.2-3.5-1.9c-1.8-1.2-3.2-2.7-3-5.1
					c0.3-2.3,1.8-3.7,3.8-4.5c4.6-1.7,9.1-0.9,13.1,1.6c3.1,1.8,5.8,4.2,8.7,6.2c2.1,1.5,4.3,2.9,6.9,3.5
					c10.6,2.3,17.4,9.4,22.6,18.2c2.9,4.9,6.3,9,11.5,11.7c5.7,3,8.3,8.5,9.7,14.5c1.7,7.3,1.3,14.7,0.5,22.1
					c3.8-5.1,8.9-9.4,9.7-16.3c0.3-2.3-0.1-4.3-2.1-5.7c-1.4-1-2.7-2.2-4-3.3c-4.4-3.7-6.4-8.4-5.5-14c1.4-8.9,0.5-17.5-0.8-26.3
					c-0.7-4.7,0.3-9.3,3-13.3c0.7-1,1.4-1.8,2.4-2.5c3.8-2.6,7.9-0.8,8.3,3.8c0.2,2.5,0,5-0.8,7.4c-1,3.2-0.9,6.4,0.3,9.5
					c3,7.3,2.4,14.5-0.5,21.6c-1.3,3.2-1.6,6.1-0.2,9.4c1.5,3.5,1.4,7.3,1.8,11.4c1.2-1.9,2.4-3.4,2.9-5.2c1.7-5.5,2.6-11.1,2-17
					c-0.4-3.7,0.6-7.1,2.7-10.1c2.6-3.7,5-7.4,5.7-12.1c0.4-2.4,0.2-4.8,0.1-7.2c-0.2-3.9,0.5-7.6,3.6-10.5
					c4.2-3.8,9.7-2.2,11.4,3.2c0.9,2.9,0.5,5.8,0,8.6c-0.6,3.7-1.1,7.4-0.2,11.1c1.2,5.1-0.6,9.3-4.1,12.7c-4.4,4.2-7.6,9-10,14.4
					c-1.6,3.5-4.1,6.3-7.8,7.7c-1.2,0.5-2.1,1.3-2.9,2.3c-2,2.7-3.5,5.6-5,9.2c3.4-1.7,6.1-3.6,8.5-6c3.4-3.3,7.3-5.5,12-6.1
					c7.8-1,11-4.8,11.6-13.4c0.7-9.6,4.5-17.6,11.3-24.3c1.7-1.6,3.6-2.9,5.6-4.2c1.8-1.2,3.5-2.5,5.1-4c2.2-2.3,4.8-1.7,6,1.3
					c1,2.6,0.8,5.3,0.1,7.9c-0.9,3.3-2.3,6.5-4.5,9.1c-3.7,4.5-5.4,9.7-6,15.3c-0.2,2.2-0.4,4.4-1.5,6.3c-3,5.4-5.2,11.1-7.7,16.7
					c-1.9,4.3-5.3,7-9.9,8.1c-4.1,1-8.3,1.8-12.5,2.6c-3.5,0.7-6.1-0.6-8.1-3.5c-3.8-5.5-6.1-5.9-11.5-1.9c-0.9,0.6-1.7,1.4-2.4,2.2
					c-2.9,3.5-5.8,7.1-8.6,10.7c-3,3.9-4.7,8.4-6,13c0.4,0.4,0.7,0.1,0.9-0.1c3.5-4.1,8-6.6,13.3-7.8c3.7-0.9,6.7-3.1,9.6-5.6
					c2.2-1.9,4.6-3.3,7.5-3.8c3.1-0.5,5.7,1.8,5.3,4.9c-0.3,3-1.1,5.9-2.5,8.6c-1.5,2.8-3.9,4.7-7,5c-3.1,0.3-5.8,1.5-8.3,3.2
					c-3.5,2.4-6.8,2.2-10.2-0.2c-0.5-0.3-1-0.7-1.5-1c-3.9-2.4-7.8-0.8-8.5,3.9c-0.8,5.2-1.2,10.5-1.8,16.6c1.4-2.2,2.4-3.7,3.5-5.3
					c1.2-1.8,2.4-3.6,3.8-5.3c4.4-5,9.9-6.1,16.3-4.5c9.1,2.3,18.8-1.6,24.1-9.3c1.2-1.7,2.2-3.6,2.8-5.5
					c2.6-7.8,7.6-13.6,14.6-17.7c2.7-1.6,4.1-3.8,5.2-6.6c2.3-5.9,3.7-12.1,7.2-17.5c1.2-1.9,2.5-3.7,4.4-5c3-2.1,6.4-1.1,7,2.4
					c1.4,7.9,3.3,15.9-1.4,23.5c-1.1,1.8-1.8,3.9-2.4,6c-1.3,4.4-4.4,7.3-8.2,9.3c-6,3.2-9.5,7.7-10,14.6
					c-0.7,8.8-5.9,14.2-14.2,16.7c-0.8,0.3-1.5,0.6-2,1.4c-3.8,5.6-9.3,8.4-15.8,9.5c-4.7,0.8-9.4,1.3-14.1,0.8
					c-3.8-0.5-7.3-1.8-9.9-4.7c-0.2-0.2-0.5-0.5-0.7-0.7c-5.6-5.4-8.2-3.6-10.5,2.2c-2.3,5.5-3.9,11.3-8.2,16.1
					c2.2-0.4,2.5-0.7,4.6-3.3c3.5-4.4,7.9-7.3,13.6-8c3.5-0.4,7,0.2,10.3,1.2c6.6,2,13,1.3,19.1-1.7c2.4-1.2,4.8-1.8,7.4-2
					c3.7-0.2,7.4-0.4,11.1-1.4c2.3-0.6,4,1.3,3.2,3.6c-1.4,3.7-2.6,7.6-4.7,11c-1.6,2.7-4.3,4.1-7.2,5c-9.5,3-19.1,3.1-28.9,1.8
					c-2.2-0.3-4.2-1.6-6-2.9c-3.2-2.3-6.7-3-10.4-1.9c-3.6,1-7.2,1-10.8,1.5c-3.2,0.4-5.7,1.9-7.7,4.5c-4,5.1-7.1,10.7-9.3,16.9
					c4.8-3.8,10.2-6.3,16.3-7c3.5-0.4,6.8,0.3,10.1,0.9c6.1,1.1,12.1,0.7,18-1.3c7.4-2.5,14.8-3.1,22.2,0c2.4,1,4.8,0.2,7.1-0.4
					c9-2.4,14.8-8.6,18.8-16.6c2.1-4.2,3.9-8.5,6.6-12.3c1.1-1.5,2.2-2.9,3.7-4c2-1.5,4-0.8,4.5,1.7c0.3,1.3,0.2,2.7,0,4
					c-1.6,8.1-2.4,16.3-3.3,24.5c-1.3,11.9-10.8,21.3-22.6,22.9c-4.9,0.7-9.8,1-14.6,0c-5.2-1.1-10.2-0.4-15.3,0.2
					c-6.3,0.7-12.6,1.1-18.9,0.2c-7.2-1-13.2-4.3-18-9.7c-4.5-5.1-8.8-4.8-12.8,0.8c-4.9,6.9-4.9,14.3-2.3,21.9
					c0.2,0.4,0.3,1.1,0.9,1c0.3-0.1,0.6-0.6,0.8-0.9c5.9-10.2,14.7-13.9,26.3-11.1c3.2,0.8,6.2,2,9.1,3.5c8.2,4.1,16.4,8,24.6,12.3
					c9.2,4.8,19.3,6.7,29.3,8.8c5.1,1.1,10.2,2.4,14.8,5.2c6.8,4.2,7.3,9.1,1.4,14.5c-5.9,5.3-12.8,7.9-20.9,6
					c-5.8-1.4-11.4-3.2-16.4-6.5c-6.7-4.5-14-5.3-21.7-4.4c-11.4,1.4-18.3-2.2-23.6-12.5c-2.2-4.1-4.3-8.3-7.2-11.9
					c-1.6-1.9-3.3-3.5-5.7-4.3c-2.4-0.8-4.9-1.1-6.7,1c-1.9,2.2-2.5,4.9-1.3,7.7c1.6,3.4,3.2,6.8,4.8,10.1
					c2.4,5.2,4.2,10.7,5.4,16.3c0.3,1.3,0.9,3.5-0.5,3.8c-1.4,0.3-1.2-2-1.4-3.2c-1.1-5.8-3.3-11.3-5.9-16.7
					c-3.2-6.7-7.2-13.1-8.9-20.6c-0.9-3.9-1.6-7.8-1.6-11.8c0-4.3-3.1-6.1-6.9-3.8c-3.7,2.2-5.6,5.6-6.5,9.7c-0.6,2.6-1,5.2-1.5,7.8
					c-1.4,6.6-4.1,12.5-9.2,17.1c-3.8,3.5-7.2,7.4-8.7,12.5c-0.2,0.5-0.5,1-0.8,1.5c-1.1,1.7-2.4,3.1-4.6,3
					c-2.2-0.1-3.4-1.7-4.1-3.6c-2.1-6.4-3-13-1.2-19.6c1.1-3.9,3.6-6.8,6.8-8.9c3.8-2.6,6.4-5.9,7.8-10.3c1.8-5.5,3.4-11,6.1-16.1
					c1.2-2.3,2.8-4.3,4.9-5.9c6-4.5,13-3.1,16.9,3.3C234.7-323.9,235.3-322.5,236.2-320.8z"/>
			</g>
			<path class="st1" d="M161.5-310.5c1.4,0.5,2.4-0.1,3.4-0.4c2.9-0.8,5.8-1.7,8.8-1.7c2.4,0,4.6,1.3,4.9,3.1c0.4,1.7-1,3.8-3.5,4.5
				c-3.6,0.9-7.3,1.6-11,2.3c-7.9,1.4-15.8,2.8-23.1,5.9c-13.7,5.7-20.8,17.6-20.5,32.9c0.1,3.3,0.8,6.6,1.2,9.9
				c0.2,1.5,0.2,2.9-1.2,3.8c-1.4,0.8-2.5,0-3.7-0.7c-1.3-0.8-2-2.1-2.9-3.4c-3.6-5.2-5.1-11.4-7.2-17.2c-1-2.7-2.6-4.7-5.2-6.1
				c-6.6-3.5-13.4-4-20.6-2.5c-2.6,0.5-5.1,0.4-7.6-0.6c-1.6-0.6-2.6-1.8-2.6-3.6c0-1.8,1.3-2.5,2.8-3.1c2.7-1,5.6-0.9,8.4-1.1
				c1.3-0.1,2.6-0.3,3.9-0.8c0.7-0.3,1.4-0.7,1.4-1.6c0-0.9-0.6-1.3-1.3-1.7c-1.6-0.8-3.3-1.2-5-1.5c-8.5-1.1-17-2.3-25.6-1.5
				c-2.7,0.3-5.5,0-8-1.3c-1.6-0.8-2.8-1.9-2.6-3.9c0.2-1.9,1.4-2.8,3.1-3.5c3.9-1.4,7.9-1,11.8-0.7c1.6,0.1,3.8,1,4.5-0.8
				c0.7-1.9-1.6-2.9-3-3.8c-3.3-2.1-6.8-3.9-10.1-5.9c-3.1-1.9-4.5-4.8-3.4-6.9c1-2,4.4-2.5,7.7-1c4.6,2.1,8.5,5.3,12.1,8.7
				c4.2,4,8.3,8.2,12.5,12.2c1.3,1.3,2.7,2.4,4.3,3.4c1.3,0.8,2.8,1.4,4.2,0.5c1.5-0.9,1.5-2.5,1.3-4c-0.1-1.3-0.4-2.7-1.1-3.8
				c-7.6-12.5-16.4-23.9-29.2-31.4c-6.6-3.8-14-5.7-21-8.4c-4.5-1.7-8.8-3.8-12.8-6.6c-0.6-0.4-1.2-0.9-1.7-1.4
				c-1.1-1.2-2.6-2.4-1.6-4.3c0.9-1.7,2.8-1.7,4.4-1.5c1.6,0.2,3.2,0.9,4.8,1.4c1.9,0.6,3.7,1.4,5.6,2c0.9,0.3,2.1,0.7,2.7-0.4
				c0.7-1.1-0.1-2.1-0.7-2.9c-1.6-2-3.6-3.7-5.6-5.3c-5.9-4.7-11.2-10.1-15.7-16.3c-3.5-4.7-6.1-9.9-8.2-15.3
				c-0.4-1-0.4-2.1-0.3-3.2c0.3-2.6,2-3.6,4.4-2.6c2.5,1,4.6,2.7,6.4,4.7c5.9,6.3,10.1,13.6,13.9,21.2c1.2,2.5,2.5,4.9,4.1,7.1
				c1,1.4,2,2.7,3.5,3.6c2.3,1.4,3.7,0.6,3.8-2c0.1-2.8-1.3-5.1-2.7-7.4c-1.8-2.8-3.7-5.5-5-8.6c-0.4-0.9-0.7-1.9-0.6-2.9
				c0-3.3,2.3-4.7,5.2-3.2c3.9,2.1,5.7,6,7,9.9c1.8,5.3,2.6,10.8,4.9,16c1.3,2.9,2.8,5.7,5.7,7.3c4,2.2,7.4,0.5,7.7-4.1
				c0.4-4.8-1.4-9-3.6-13c-4.5-8.2-10.4-15.4-16.4-22.5c-2.7-3.2-5.7-6.1-8.1-9.5c-1.8-2.5-3.4-5.1-3.6-8.3c-0.2-2,0.2-3.7,1.8-4.9
				c1.7-1.2,3.5-0.4,5.1,0.5c2.5,1.5,4.1,3.9,6.3,5.7c0.9,0.7,1.8,1.5,3,1.7c1,0.2,2,0.5,2.7-0.5c0.7-0.9,0.4-1.9-0.1-2.8
				c-1.8-3.1-4.7-5.1-7.7-6.9c-4-2.4-8.2-4.4-11.6-7.8c-3.6-3.6-5.8-7.9-6.6-12.9c-0.3-2,0-4.1,2-5.3c2.1-1.2,4.1-0.5,5.7,1.1
				c3,2.9,4.9,6.7,7.6,9.9c1,1.2,2,3.3,3.6,2.3c1.8-1.1,0.5-3-0.2-4.4c-2.2-4.6-5.6-8.7-7.1-13.7c-1.4-4.7-1.3-9.2,1.4-13.4
				c1.8-2.8,4.6-4.5,7.2-4c2.2,0.4,4.3,3.4,4.8,6.5c1.1,7.3,0.4,14.6,0.6,21.9c0.1,4.7,0.1,9.5,0.8,14.2c0.4,2.8,1.4,5.3,2.8,7.7
				c1,1.7,2.4,2.9,4.4,2.7c2.2-0.2,2.9-2.1,3.3-3.9c0.9-4,0.8-8.1,0.9-12.2c0.1-6.2-0.9-12.3-1.4-18.4c-0.4-3.9-0.2-7.8,1.5-11.5
				c1.2-2.6,3.3-4.2,5.6-3.8c2.4,0.4,3.5,2.2,4.3,4.3c1.2,3.3,0.6,6.6,0,9.8c-0.3,1.4-0.5,2.8-0.6,4.2c-0.1,0.8,0.2,1.5,1,1.9
				c0.9,0.3,1.4-0.3,1.9-0.8c2-2.3,2.8-5.1,3-8.1c0.3-4.6,0.4-9.3,0.6-13.9c0.2-2.9,1.3-5.5,2.8-7.9c0.9-1.4,2.1-2.5,3.8-2.3
				c1.8,0.2,3.2,1.4,3.8,3.2c0.9,2.4,1,4.9,0.6,7.4c-1.1,7.9-4.3,14.9-8.5,21.6c-2.5,4-5.7,7.6-6.8,12.4c-0.3,1.4-1.3,3.2,0.4,4.1
				c1.5,0.7,2.4-1,3.3-2c2.6-3,4.1-6.6,5.7-10.2c1.1-2.6,2.4-5.1,4.3-7.3c1.2-1.4,2.8-2.7,4.8-1.8c2.2,0.9,2.2,3,1.9,4.9
				c-0.7,5-3.3,9.2-6.1,13.3c-2.1,3.2-4.5,6.2-6.7,9.3c-3.4,4.8-4,10.4-4.3,15.9c-0.8,14.3-2.8,28.4-5,42.6
				c-1.8,11.7,1.1,22.4,7.1,32.5c2.3,3.9,4.1,8,7.7,10.9c1.2,1,2.5,2.2,4.2,1.5c1.7-0.7,2-2.4,2.1-4c0.6-6.4-1.1-12.4-3.8-18.1
				c-2.9-6.3-5.8-12.5-8.7-18.8c-1.4-3.1-2.1-6.3-2.1-9.7c0-1.7,0.3-3.3,1.2-4.8c1.8-2.9,4.7-3.1,6.7-0.4c1.5,2.1,2,4.5,2.3,7
				c0.4,2.7,0.6,5.4,1,8.2c0.2,1.1,0.4,2.1,0.8,3.1c0.6,1.6,1.4,3.2,3.4,3.2c2,0,2.8-1.6,3.3-3.3c1.3-3.8,1.4-7.8,0.8-11.6
				c-1.3-9-3.8-17.7-7.2-26.1c-2.1-5.3-3.8-10.8-2.3-16.8c0.9-3.5,2.6-5.3,5.3-5.5c2.2-0.1,4.4,2,5.5,5c1.5,4.2,1.5,8.5,1.4,12.8
				c0,2.2-0.2,4.5,0.3,6.7c0.4,1.7,0.9,3.6,3.1,3.6c2.1,0,3.6-1.3,4.2-3.3c1.5-4.9,1.6-10,1.6-15.1c0.1-4.2-0.6-8.5-0.1-12.7
				c0.1-1.3,0.4-2.6,0.7-3.9c0.6-2.5,2-4.5,4.6-5.1c2.7-0.5,4.8,1,6.5,2.9c2.9,3.4,3.4,7.4,3,11.7c-0.8,7.3-3.8,13.8-7.2,20.1
				c-3.8,7-7.6,14-10.8,21.3c-3.5,8.1-3.5,16.7-4.4,25.2c-1.5,13.1-2.1,26.3-3,39.5c-0.5,8.1,1.4,15.7,4.9,22.9
				c1,2.1,1.7,4.4,3.3,6.1c1.7,1.9,3.1,1.8,3.8-0.6c2.2-6.7,4.9-13.3,6.1-20.3c0.7-3.8,0.7-7.7-0.4-11.4c-3-10.4-4.4-21.1-6.2-31.8
				c-0.9-5.7-1.9-11.3-2-17c0-2.8,1-4.5,3-4.8c2.1-0.4,4.3,1.1,5,3.6c1.1,4,0.9,8.1,1.1,12.1c0.2,4.2,0.3,8.5,1.6,12.6
				c0.5,1.5,1.2,2.9,2.2,4.1c0.7,0.8,1.5,1.6,2.7,1.4c1.4-0.3,1.8-1.5,1.9-2.7c0.5-3.5-0.2-6.9-0.6-10.4c-0.7-6.2-3.6-11.7-6-17.3
				c-1-2.2-1.8-4.5-1.5-7c0.2-2.2,1.2-4.1,3.4-4.8c2.2-0.6,3.8,0.7,5,2.5c2.1,3.4,2.9,7.3,3.5,11.1c1.6,8.7,2.9,17.6,2.2,26.5
				c-0.2,3.3-0.9,6.6-1.2,9.9c-0.1,1.3-0.5,2.9,1.2,3.4c1.7,0.4,2.3-1,2.9-2.2c3.4-8.1,4.1-16.6,2.4-25.2c-0.7-3.6-3-6.6-4.4-10
				c-1.9-4.6-2.1-9.2,0.4-13.7c0.9-1.7,2.3-2.7,4.2-2.5c2,0.2,2.6,1.9,3,3.5c0.9,3.9,0.6,7.9,0.7,11.9c0.1,4-0.4,8,0.7,11.9
				c0.3,1,0.4,2.3,1.7,2.5c1.3,0.2,1.8-1,2.3-1.9c2-3.6,3.4-7.4,5-11.1c0.9-2.1,1.8-4.1,3.4-5.7c1-1,2.1-2.1,3.7-1.1
				c1.5,1,1.5,2.6,1,4c-0.6,1.6-1.5,3-2.1,4.5c-0.4,0.9-1.1,2-0.2,2.8c0.9,0.8,1.6-0.3,2.4-0.8c1.3-0.7,2.8-1.1,4.3-1.4
				c1.8-0.3,3.4,0.3,4.3,1.9c0.9,1.5,0.2,3-0.8,4.2c-2,2.5-4.5,4.5-7.3,6c-6.7,3.6-11.6,8.8-15.1,15.4c-1.6,3.1-3.8,5.8-6.1,8.5
				c-1.1,1.3-2.2,2.5-2.7,4.1c-0.7,2-0.7,3.9,0.9,5.3c1.6,1.4,3.5,1.2,5.4,0.5c4.3-1.6,6.8-5.1,9.5-8.5c3.4-4.2,6.5-8.6,10.5-12.3
				c1.1-1,2.4-1.7,3.9-2.1c1.7-0.4,3.4-0.4,4.6,1.1c1.3,1.6,1.7,3.4,0.9,5.4c-0.8,1.8-1.8,3.5-3.3,4.9c-2.8,2.5-5.6,5-8.4,7.5
				C163.1-312.8,162.1-311.9,161.5-310.5z"/>
		</g>
		<g>
			<path class="st1" d="M343.5-560.5c1.4,0.5,2.4-0.1,3.4-0.4c2.9-0.8,5.8-1.7,8.8-1.7c2.4,0,4.6,1.3,4.9,3.1c0.4,1.7-1,3.8-3.5,4.5
				c-3.6,0.9-7.3,1.6-11,2.3c-7.9,1.4-15.8,2.8-23.1,5.9c-13.7,5.7-20.8,17.6-20.5,32.9c0.1,3.3,0.8,6.6,1.2,9.9
				c0.2,1.5,0.2,2.9-1.2,3.8c-1.4,0.8-2.5,0-3.7-0.7c-1.3-0.8-2-2.1-2.9-3.4c-3.6-5.2-5.1-11.4-7.2-17.2c-1-2.7-2.6-4.7-5.2-6.1
				c-6.6-3.5-13.4-4-20.6-2.5c-2.6,0.5-5.1,0.4-7.6-0.6c-1.6-0.6-2.6-1.8-2.6-3.6c0-1.8,1.3-2.5,2.8-3.1c2.7-1,5.6-0.9,8.4-1.1
				c1.3-0.1,2.6-0.3,3.9-0.8c0.7-0.3,1.4-0.7,1.4-1.6c0-0.9-0.6-1.3-1.3-1.7c-1.6-0.8-3.3-1.2-5-1.5c-8.5-1.1-17-2.3-25.6-1.5
				c-2.7,0.3-5.5,0-8-1.3c-1.6-0.8-2.8-1.9-2.6-3.9c0.2-1.9,1.4-2.8,3.1-3.5c3.9-1.4,7.9-1,11.8-0.7c1.6,0.1,3.8,1,4.5-0.8
				c0.7-1.9-1.6-2.9-3-3.8c-3.3-2.1-6.8-3.9-10.1-5.9c-3.1-1.9-4.5-4.8-3.4-6.9c1-2,4.4-2.5,7.7-1c4.6,2.1,8.5,5.3,12.1,8.7
				c4.2,4,8.3,8.2,12.5,12.2c1.3,1.3,2.7,2.4,4.3,3.4c1.3,0.8,2.8,1.4,4.2,0.5c1.5-0.9,1.5-2.5,1.3-4c-0.1-1.3-0.4-2.7-1.1-3.8
				c-7.6-12.5-16.4-23.9-29.2-31.4c-6.6-3.8-14-5.7-21-8.4c-4.5-1.7-8.8-3.8-12.8-6.6c-0.6-0.4-1.2-0.9-1.7-1.4
				c-1.1-1.2-2.6-2.4-1.6-4.3c0.9-1.7,2.8-1.7,4.4-1.5c1.6,0.2,3.2,0.9,4.8,1.4c1.9,0.6,3.7,1.4,5.6,2c0.9,0.3,2.1,0.7,2.7-0.4
				c0.7-1.1-0.1-2.1-0.7-2.9c-1.6-2-3.6-3.7-5.6-5.3c-5.9-4.7-11.2-10.1-15.7-16.3c-3.5-4.7-6.1-9.9-8.2-15.3
				c-0.4-1-0.4-2.1-0.3-3.2c0.3-2.6,2-3.6,4.4-2.6c2.5,1,4.6,2.7,6.4,4.7c5.9,6.3,10.1,13.6,13.9,21.2c1.2,2.5,2.5,4.9,4.1,7.1
				c1,1.4,2,2.7,3.5,3.6c2.3,1.4,3.7,0.6,3.8-2c0.1-2.8-1.3-5.1-2.7-7.4c-1.8-2.8-3.7-5.5-5-8.6c-0.4-0.9-0.7-1.9-0.6-2.9
				c0-3.3,2.3-4.7,5.2-3.2c3.9,2.1,5.7,6,7,9.9c1.8,5.3,2.6,10.8,4.9,16c1.3,2.9,2.8,5.7,5.7,7.3c4,2.2,7.4,0.5,7.7-4.1
				c0.4-4.8-1.4-9-3.6-13c-4.5-8.2-10.4-15.4-16.4-22.5c-2.7-3.2-5.7-6.1-8.1-9.5c-1.8-2.5-3.4-5.1-3.6-8.3c-0.2-2,0.2-3.7,1.8-4.9
				c1.7-1.2,3.5-0.4,5.1,0.5c2.5,1.5,4.1,3.9,6.3,5.7c0.9,0.7,1.8,1.5,3,1.7c1,0.2,2,0.5,2.7-0.5c0.7-0.9,0.4-1.9-0.1-2.8
				c-1.8-3.1-4.7-5.1-7.7-6.9c-4-2.4-8.2-4.4-11.6-7.8c-3.6-3.6-5.8-7.9-6.6-12.9c-0.3-2,0-4.1,2-5.3c2.1-1.2,4.1-0.5,5.7,1.1
				c3,2.9,4.9,6.7,7.6,9.9c1,1.2,2,3.3,3.6,2.3c1.8-1.1,0.5-3-0.2-4.4c-2.2-4.6-5.6-8.7-7.1-13.7c-1.4-4.7-1.3-9.2,1.4-13.4
				c1.8-2.8,4.6-4.5,7.2-4c2.2,0.4,4.3,3.4,4.8,6.5c1.1,7.3,0.4,14.6,0.6,21.9c0.1,4.7,0.1,9.5,0.8,14.2c0.4,2.8,1.4,5.3,2.8,7.7
				c1,1.7,2.4,2.9,4.4,2.7c2.2-0.2,2.9-2.1,3.3-3.9c0.9-4,0.8-8.1,0.9-12.2c0.1-6.2-0.9-12.3-1.4-18.4c-0.4-3.9-0.2-7.8,1.5-11.5
				c1.2-2.6,3.3-4.2,5.6-3.8c2.4,0.4,3.5,2.2,4.3,4.3c1.2,3.3,0.6,6.6,0,9.8c-0.3,1.4-0.5,2.8-0.6,4.2c-0.1,0.8,0.2,1.5,1,1.9
				c0.9,0.3,1.4-0.3,1.9-0.8c2-2.3,2.8-5.1,3-8.1c0.3-4.6,0.4-9.3,0.6-13.9c0.2-2.9,1.3-5.5,2.8-7.9c0.9-1.4,2.1-2.5,3.8-2.3
				c1.8,0.2,3.2,1.4,3.8,3.2c0.9,2.4,1,4.9,0.6,7.4c-1.1,7.9-4.3,14.9-8.5,21.6c-2.5,4-5.7,7.6-6.8,12.4c-0.3,1.4-1.3,3.2,0.4,4.1
				c1.5,0.7,2.4-1,3.3-2c2.6-3,4.1-6.6,5.7-10.2c1.1-2.6,2.4-5.1,4.3-7.3c1.2-1.4,2.8-2.7,4.8-1.8c2.2,0.9,2.2,3,1.9,4.9
				c-0.7,5-3.3,9.2-6.1,13.3c-2.1,3.2-4.5,6.2-6.7,9.3c-3.4,4.8-4,10.4-4.3,15.9c-0.8,14.3-2.8,28.4-5,42.6
				c-1.8,11.7,1.1,22.4,7.1,32.5c2.3,3.9,4.1,8,7.7,10.9c1.2,1,2.5,2.2,4.2,1.5c1.7-0.7,2-2.4,2.1-4c0.6-6.4-1.1-12.4-3.8-18.1
				c-2.9-6.3-5.8-12.5-8.7-18.8c-1.4-3.1-2.1-6.3-2.1-9.7c0-1.7,0.3-3.3,1.2-4.8c1.8-2.9,4.7-3.1,6.7-0.4c1.5,2.1,2,4.5,2.3,7
				c0.4,2.7,0.6,5.4,1,8.2c0.2,1.1,0.4,2.1,0.8,3.1c0.6,1.6,1.4,3.2,3.4,3.2c2,0,2.8-1.6,3.3-3.3c1.3-3.8,1.4-7.8,0.8-11.6
				c-1.3-9-3.8-17.7-7.2-26.1c-2.1-5.3-3.8-10.8-2.3-16.8c0.9-3.5,2.6-5.3,5.3-5.5c2.2-0.1,4.4,2,5.5,5c1.5,4.2,1.5,8.5,1.4,12.8
				c0,2.2-0.2,4.5,0.3,6.7c0.4,1.7,0.9,3.6,3.1,3.6c2.1,0,3.6-1.3,4.2-3.3c1.5-4.9,1.6-10,1.6-15.1c0.1-4.2-0.6-8.5-0.1-12.7
				c0.1-1.3,0.4-2.6,0.7-3.9c0.6-2.5,2-4.5,4.6-5.1c2.7-0.5,4.8,1,6.5,2.9c2.9,3.4,3.4,7.4,3,11.7c-0.8,7.3-3.8,13.8-7.2,20.1
				c-3.8,7-7.6,14-10.8,21.3c-3.5,8.1-3.5,16.7-4.4,25.2c-1.5,13.1-2.1,26.3-3,39.5c-0.5,8.1,1.4,15.7,4.9,22.9
				c1,2.1,1.7,4.4,3.3,6.1c1.7,1.9,3.1,1.8,3.8-0.6c2.2-6.7,4.9-13.3,6.1-20.3c0.7-3.8,0.7-7.7-0.4-11.4c-3-10.4-4.4-21.1-6.2-31.8
				c-0.9-5.7-1.9-11.3-2-17c0-2.8,1-4.5,3-4.8c2.1-0.4,4.3,1.1,5,3.6c1.1,4,0.9,8.1,1.1,12.1c0.2,4.2,0.3,8.5,1.6,12.6
				c0.5,1.5,1.2,2.9,2.2,4.1c0.7,0.8,1.5,1.6,2.7,1.4c1.4-0.3,1.8-1.5,1.9-2.7c0.5-3.5-0.2-6.9-0.6-10.4c-0.7-6.2-3.6-11.7-6-17.3
				c-1-2.2-1.8-4.5-1.5-7c0.2-2.2,1.2-4.1,3.4-4.8c2.2-0.6,3.8,0.7,5,2.5c2.1,3.4,2.9,7.3,3.5,11.1c1.6,8.7,2.9,17.6,2.2,26.5
				c-0.2,3.3-0.9,6.6-1.2,9.9c-0.1,1.3-0.5,2.9,1.2,3.4c1.7,0.4,2.3-1,2.9-2.2c3.4-8.1,4.1-16.6,2.4-25.2c-0.7-3.6-3-6.6-4.4-10
				c-1.9-4.6-2.1-9.2,0.4-13.7c0.9-1.7,2.3-2.7,4.2-2.5c2,0.2,2.6,1.9,3,3.5c0.9,3.9,0.6,7.9,0.7,11.9c0.1,4-0.4,8,0.7,11.9
				c0.3,1,0.4,2.3,1.7,2.5c1.3,0.2,1.8-1,2.3-1.9c2-3.6,3.4-7.4,5-11.1c0.9-2.1,1.8-4.1,3.4-5.7c1-1,2.1-2.1,3.7-1.1
				c1.5,1,1.5,2.6,1,4c-0.6,1.6-1.5,3-2.1,4.5c-0.4,0.9-1.1,2-0.2,2.8c0.9,0.8,1.6-0.3,2.4-0.8c1.3-0.7,2.8-1.1,4.3-1.4
				c1.8-0.3,3.4,0.3,4.3,1.9c0.9,1.5,0.2,3-0.8,4.2c-2,2.5-4.5,4.5-7.3,6c-6.7,3.6-11.6,8.8-15.1,15.4c-1.6,3.1-3.8,5.8-6.1,8.5
				c-1.1,1.3-2.2,2.5-2.7,4.1c-0.7,2-0.7,3.9,0.9,5.3c1.6,1.4,3.5,1.2,5.4,0.5c4.3-1.6,6.8-5.1,9.5-8.5c3.4-4.2,6.5-8.6,10.5-12.3
				c1.1-1,2.4-1.7,3.9-2.1c1.7-0.4,3.4-0.4,4.6,1.1c1.3,1.6,1.7,3.4,0.9,5.4c-0.8,1.8-1.8,3.5-3.3,4.9c-2.8,2.5-5.6,5-8.4,7.5
				C345.1-562.8,344.1-561.9,343.5-560.5z"/>
		</g>
		<g>
			<g id="lYSiho.tif_00000057128486443347941690000016146943368109993613_">
				<path class="st2" d="M54.2-570.8c1.2-3,2.3-5.5,3.1-8.1c1.1-3.2-0.2-5.3-3.4-6.2c-0.6-0.2-1.3-0.3-1.9-0.7
					c-3.8-2.9-8-2.3-12.1-1.1c-2.3,0.7-4.7,1.3-7.1,1.4c-9.6,0.6-17.5-5.1-19.8-14.8c-1.6-6.9-3-13.8-4.6-20.7
					C7.2-626,7.7-631.3,9-636.4c1.3-4.8,2-9.6,1.9-14.5c0-2.2-0.3-5,2.2-5.9c2.7-0.9,4.2,1.8,5.4,3.6c5.5,9.1,9.1,18.7,6.7,29.6
					c-0.4,2-0.2,3.7,1,5.4c1.4,1.9,1.7,4.1,1.7,6.4c0.1,4.8,1.8,6.3,6.5,5.6c10.2-1.4,19.4,3.8,23.2,13.4c1.1,2.9,0.6,6.1,2,9.3
					c3.4-6.1,8-11,12.3-16.1c1.8-2.1,0.7-4.5-1.9-5.1c-1.5-0.3-3-0.3-4.4-0.6c-3.9-0.9-7-3-9.6-6c-1.1-1.2-2.2-1.8-3.9-1.2
					c-3.1,1-5.9,0.1-8.4-1.8c-2.2-1.7-4.4-3.1-7-4.2c-3.3-1.3-5.1-3.7-4.8-5.7c0.3-2.1,2.5-3.7,6.2-4.1c2.5-0.2,5-0.3,7.5,0
					c2.9,0.3,5.8,0.5,8.7,0.4c5.5-0.2,9.5,2.2,12.1,6.9c1.5,2.8,3.1,5.5,5.5,7.7c1.4,1.3,1.9,3.1,2.3,4.9c0.3,1.4,0.5,2.9,0.8,4.7
					c1.7-2.1,2.8-4.1,3.4-6.3c1.7-5.4,2.6-11,2.8-16.7c0.1-4.8-3.4-8.3-8.2-8c-4.1,0.3-7.8-0.5-11-3.1c-2.5-2-5-1.8-7.9-0.7
					c-10.2,4-19.9,1.8-27.5-6.2c-3-3.1-4.6-6.9-5.7-10.9c-0.7-2.6-1.6-5.2-2.9-7.7c-2.3-3.9-0.8-6.6,3.8-6.9
					c5.5-0.4,10.5,1.3,15.2,4c0.3,0.2,0.6,0.3,0.8,0.5c4.7,4.1,10.1,4.7,16.1,3.8c7.6-1.2,13.6,2.1,18.5,7.7
					c4.5,5.2,6.6,11.7,8.6,18.1c0.2,0.7,0.4,1.4,0.9,2.2c0.1-3.7,1.4-7.1,1.8-10.8c0.4-3.8,0.6-7.6,1-11.4c0.5-6-2.6-10.5-8.3-12.3
					c-2.5-0.8-5.1-0.9-7.6-1.3c-4.3-0.6-8.3-2.2-11.5-5c-3.9-3.3-8-4.3-12.9-2.8c-2.1,0.6-4.4,0.8-6.7,0.7c-2.7-0.2-5.3-1-7.3-2.8
					c-7.4-6.7-13.7-14-15.5-24.4c-0.5-3.2-2.2-6.1-3.9-8.9c-0.8-1.3-1.7-2.8-0.4-4.4c1.2-1.4,2.8-1.2,4.4-0.7
					c5.5,1.7,9.4,5.5,12.6,10.1c2.8,4.1,5.3,8.5,9.4,11.5c2.2,1.6,4.5,2.5,7.1,2.5c5,0.1,9.7,1.3,13.8,4.3c3.8,2.8,8,4.1,12.8,4.2
					c9.3,0.2,16.6,8.2,17,18.2c0.2,4.9-0.4,9.8-0.8,15c2.8-3,4.4-6.1,4.6-10c0.1-3.2,0.5-6.3,0.6-9.5c0.1-5.4-3.1-10-8.2-11.9
					c-2.8-1.1-5.7-1.9-8.6-2.4c-9.9-1.6-16.3-7.2-19.9-16.5c-1.6-4.1-3.1-8.3-6.5-11.4c-1.1-1-2.3-1.9-3.8-2.3
					c-5.3-1.5-10.1-3.8-14.4-7.3c-2.2-1.8-4.7-3.1-7.3-4.3c-1.2-0.6-2.4-1.2-3.5-1.9c-1.8-1.2-3.2-2.7-3-5.1
					c0.3-2.3,1.8-3.7,3.8-4.5c4.6-1.7,9.1-0.9,13.1,1.6c3.1,1.8,5.8,4.2,8.7,6.2c2.1,1.5,4.3,2.9,6.9,3.5
					c10.6,2.3,17.4,9.4,22.6,18.2c2.9,4.9,6.3,9,11.5,11.7c5.7,3,8.3,8.5,9.7,14.5c1.7,7.3,1.3,14.7,0.5,22.1
					c3.8-5.1,8.9-9.4,9.7-16.3c0.3-2.3-0.1-4.3-2.1-5.7c-1.4-1-2.7-2.2-4-3.3c-4.4-3.7-6.4-8.4-5.5-14c1.4-8.9,0.5-17.5-0.8-26.3
					c-0.7-4.7,0.3-9.3,3-13.3c0.7-1,1.4-1.8,2.4-2.5c3.8-2.6,7.9-0.8,8.3,3.8c0.2,2.5,0,5-0.8,7.4c-1,3.2-0.9,6.4,0.3,9.5
					c3,7.3,2.4,14.5-0.5,21.6c-1.3,3.2-1.6,6.1-0.2,9.4c1.5,3.5,1.4,7.3,1.8,11.4c1.2-1.9,2.4-3.4,2.9-5.2c1.7-5.5,2.6-11.1,2-17
					c-0.4-3.7,0.6-7.1,2.7-10.1c2.6-3.7,5-7.4,5.7-12.1c0.4-2.4,0.2-4.8,0.1-7.2c-0.2-3.9,0.5-7.6,3.6-10.5
					c4.2-3.8,9.7-2.2,11.4,3.2c0.9,2.9,0.5,5.8,0,8.6c-0.6,3.7-1.1,7.4-0.2,11.1c1.2,5.1-0.6,9.3-4.1,12.7c-4.4,4.2-7.6,9-10,14.4
					c-1.6,3.5-4.1,6.3-7.8,7.7c-1.2,0.5-2.1,1.3-2.9,2.3c-2,2.7-3.5,5.6-5,9.2c3.4-1.7,6.1-3.6,8.5-6c3.4-3.3,7.3-5.5,12-6.1
					c7.8-1,11-4.8,11.6-13.4c0.7-9.6,4.5-17.6,11.3-24.3c1.7-1.6,3.6-2.9,5.6-4.2c1.8-1.2,3.5-2.5,5.1-4c2.2-2.3,4.8-1.7,6,1.3
					c1,2.6,0.8,5.3,0.1,7.9c-0.9,3.3-2.3,6.5-4.5,9.1c-3.7,4.5-5.4,9.7-6,15.3c-0.2,2.2-0.4,4.4-1.5,6.3c-3,5.4-5.2,11.1-7.7,16.7
					c-1.9,4.3-5.3,7-9.9,8.1c-4.1,1-8.3,1.8-12.5,2.6c-3.5,0.7-6.1-0.6-8.1-3.5c-3.8-5.5-6.1-5.9-11.5-1.9c-0.9,0.6-1.7,1.4-2.4,2.2
					c-2.9,3.5-5.8,7.1-8.6,10.7c-3,3.9-4.7,8.4-6,13c0.4,0.4,0.7,0.1,0.9-0.1c3.5-4.1,8-6.6,13.3-7.8c3.7-0.9,6.7-3.1,9.6-5.6
					c2.2-1.9,4.6-3.3,7.5-3.8c3.1-0.5,5.7,1.8,5.3,4.9c-0.3,3-1.1,5.9-2.5,8.6c-1.5,2.8-3.9,4.7-7,5c-3.1,0.3-5.8,1.5-8.3,3.2
					c-3.5,2.4-6.8,2.2-10.2-0.2c-0.5-0.3-1-0.7-1.5-1c-3.9-2.4-7.8-0.8-8.5,3.9c-0.8,5.2-1.2,10.5-1.8,16.6c1.4-2.2,2.4-3.7,3.5-5.3
					c1.2-1.8,2.4-3.6,3.8-5.3c4.4-5,9.9-6.1,16.3-4.5c9.1,2.3,18.8-1.6,24.1-9.3c1.2-1.7,2.2-3.6,2.8-5.5
					c2.6-7.8,7.6-13.6,14.6-17.7c2.7-1.6,4.1-3.8,5.2-6.6c2.3-5.9,3.7-12.1,7.2-17.5c1.2-1.9,2.5-3.7,4.4-5c3-2.1,6.4-1.1,7,2.4
					c1.4,7.9,3.3,15.9-1.4,23.5c-1.1,1.8-1.8,3.9-2.4,6c-1.3,4.4-4.4,7.3-8.2,9.3c-6,3.2-9.5,7.7-10,14.6
					c-0.7,8.8-5.9,14.2-14.2,16.7c-0.8,0.3-1.5,0.6-2,1.4c-3.8,5.6-9.3,8.4-15.8,9.5c-4.7,0.8-9.4,1.3-14.1,0.8
					c-3.8-0.5-7.3-1.8-9.9-4.7c-0.2-0.2-0.5-0.5-0.7-0.7c-5.6-5.4-8.2-3.6-10.5,2.2c-2.3,5.5-3.9,11.3-8.2,16.1
					c2.2-0.4,2.5-0.7,4.6-3.3c3.5-4.4,7.9-7.3,13.6-8c3.5-0.4,7,0.2,10.3,1.2c6.6,2,13,1.3,19.1-1.7c2.4-1.2,4.8-1.8,7.4-2
					c3.7-0.2,7.4-0.4,11.1-1.4c2.3-0.6,4,1.3,3.2,3.6c-1.4,3.7-2.6,7.6-4.7,11c-1.6,2.7-4.3,4.1-7.2,5c-9.5,3-19.1,3.1-28.9,1.8
					c-2.2-0.3-4.2-1.6-6-2.9c-3.2-2.3-6.7-3-10.4-1.9c-3.6,1-7.2,1-10.8,1.5c-3.2,0.4-5.7,1.9-7.7,4.5c-4,5.1-7.1,10.7-9.3,16.9
					c4.8-3.8,10.2-6.3,16.3-7c3.5-0.4,6.8,0.3,10.1,0.9c6.1,1.1,12.1,0.7,18-1.3c7.4-2.5,14.8-3.1,22.2,0c2.4,1,4.8,0.2,7.1-0.4
					c9-2.4,14.8-8.6,18.8-16.6c2.1-4.2,3.9-8.5,6.6-12.3c1.1-1.5,2.2-2.9,3.7-4c2-1.5,4-0.8,4.5,1.7c0.3,1.3,0.2,2.7,0,4
					c-1.6,8.1-2.4,16.3-3.3,24.5c-1.3,11.9-10.8,21.3-22.6,22.9c-4.9,0.7-9.8,1-14.6,0c-5.2-1.1-10.2-0.4-15.3,0.2
					c-6.3,0.7-12.6,1.1-18.9,0.2c-7.2-1-13.2-4.3-18-9.7c-4.5-5.1-8.8-4.8-12.8,0.8c-4.9,6.9-4.9,14.3-2.3,21.9
					c0.2,0.4,0.3,1.1,0.9,1c0.3-0.1,0.6-0.6,0.8-0.9c5.9-10.2,14.7-13.9,26.3-11.1c3.2,0.8,6.2,2,9.1,3.5c8.2,4.1,16.4,8,24.6,12.3
					c9.2,4.8,19.3,6.7,29.3,8.8c5.1,1.1,10.2,2.4,14.8,5.2c6.8,4.2,7.3,9.1,1.4,14.5c-5.9,5.3-12.8,7.9-20.9,6
					c-5.8-1.4-11.4-3.2-16.4-6.5c-6.7-4.5-14-5.3-21.7-4.4c-11.4,1.4-18.3-2.2-23.6-12.5c-2.2-4.1-4.3-8.3-7.2-11.9
					c-1.6-1.9-3.3-3.5-5.7-4.3c-2.4-0.8-4.9-1.1-6.7,1c-1.9,2.2-2.5,4.9-1.3,7.7c1.6,3.4,3.2,6.8,4.8,10.1
					c2.4,5.2,4.2,10.7,5.4,16.3c0.3,1.3,0.9,3.5-0.5,3.8c-1.4,0.3-1.2-2-1.4-3.2c-1.1-5.8-3.3-11.3-5.9-16.7
					c-3.2-6.7-7.2-13.1-8.9-20.6c-0.9-3.9-1.6-7.8-1.6-11.8c0-4.3-3.1-6.1-6.9-3.8c-3.7,2.2-5.6,5.6-6.5,9.7c-0.6,2.6-1,5.2-1.5,7.8
					c-1.4,6.6-4.1,12.5-9.2,17.1c-3.8,3.5-7.2,7.4-8.7,12.5c-0.2,0.5-0.5,1-0.8,1.5c-1.1,1.7-2.4,3.1-4.6,3
					c-2.2-0.1-3.4-1.7-4.1-3.6c-2.1-6.4-3-13-1.2-19.6c1.1-3.9,3.6-6.8,6.8-8.9c3.8-2.6,6.4-5.9,7.8-10.3c1.8-5.5,3.4-11,6.1-16.1
					c1.2-2.3,2.8-4.3,4.9-5.9c6-4.5,13-3.1,16.9,3.3C52.7-573.9,53.3-572.5,54.2-570.8z"/>
			</g>
		</g>
	</g>
</pattern>
<rect y="0" class="st3" width="2267.7" height="5669.3"/>
<rect class="st4" width="2267.7" height="5669.3"/>
</svg>
